<svg id="svg849" width="661.33" height="661.33" version="1.1" viewBox="0 0 496 496" xmlns="http://www.w3.org/2000/svg" xmlns:xlink="http://www.w3.org/1999/xlink">
 <style id="style2" type="text/css">.st0{fill:#70A5DA;}
	.st1{fill:#3BA0B9;}
	.st2{fill:#00559D;}
	.st3{fill:#005191;}
	.st4{fill:#1580A6;}
	.st5{fill:#137BA1;}
	.st6{fill:#D5F2F2;}
	.st7{fill:#408C6D;}
	.st8{fill:#66C590;}
	.st9{fill:#5BBD84;}
	.st10{fill:none;stroke:#E2E88A;stroke-miterlimit:10;}
	.st11{fill:#7B685C;}
	.st12{clip-path:url(#SVGID_2_);}
	.st13{fill:none;stroke:#A78066;stroke-linecap:round;stroke-miterlimit:10;}
	.st14{clip-path:url(#SVGID_2_);fill:none;stroke:#A78066;stroke-linecap:round;stroke-miterlimit:10;}
	.st15{fill:#5FDBB7;}
	.st16{fill:#5BCCB1;}
	.st17{clip-path:url(#SVGID_4_);}
	.st18{fill:#9ECFEB;}
	.st19{fill:none;stroke:#37395E;stroke-width:4;stroke-linecap:round;stroke-linejoin:round;stroke-miterlimit:10;}
	.st20{fill:none;stroke:#CCE2FF;stroke-width:6;stroke-linecap:round;stroke-miterlimit:10;}
	.st21{fill:#A78066;}
	.st22{fill:#9C775F;}
	.st23{fill:#37395E;}
	.st24{fill:#735846;}
	.st25{fill:#BA8F72;}
	.st26{fill:none;stroke:#A78066;stroke-width:0.5;stroke-linecap:round;stroke-miterlimit:10;}
	.st27{fill:none;stroke:#BA8F72;stroke-linecap:round;stroke-miterlimit:10;}
	.st28{fill:#CFC9C3;}
	.st29{fill:#E0DAD3;}
	.st30{fill:#B8B3AD;}
	.st31{fill:#3592AB;}
	.st32{fill:none;stroke:#4499B8;stroke-width:6;stroke-linecap:round;stroke-miterlimit:10;}
	.st33{fill:#76C976;}
	.st34{fill:#F1F793;}
	.st35{fill:#E2E88A;}
	.st36{fill:none;stroke:#F1F793;stroke-linecap:round;stroke-miterlimit:10;}
	.st37{opacity:0.35;fill:url(#SVGID_5_);}
	.st38{fill:#997159;}
	.st39{fill:none;stroke:#A78066;stroke-width:2;stroke-linecap:round;stroke-linejoin:round;stroke-miterlimit:10;}
	.st40{fill:#916B55;}
	.st41{fill:#EC9034;}
	.st42{fill:#EC7B34;}
	.st43{fill:#ECA934;}
	.st44{fill:#E6E6E6;}
	.st45{fill:none;stroke:#FFADC1;stroke-width:2.5;stroke-linecap:round;stroke-miterlimit:10;}
	.st46{clip-path:url(#SVGID_7_);fill:none;stroke:#B3896D;stroke-linecap:round;stroke-miterlimit:10;}
	.st47{fill:none;stroke:#916B55;stroke-miterlimit:10;}
	.st48{clip-path:url(#SVGID_9_);fill:none;stroke:#B3896D;stroke-linecap:round;stroke-miterlimit:10;}
	.st49{fill:none;stroke:#F1F793;stroke-width:2;stroke-linecap:round;stroke-miterlimit:10;}
	.st50{fill:none;stroke:#ECA934;stroke-width:2;stroke-linecap:round;stroke-miterlimit:10;}
	.st51{fill:#F8FFC5;}
	.st52{clip-path:url(#SVGID_11_);fill:none;stroke:#B3896D;stroke-linecap:round;stroke-miterlimit:10;}
	.st53{fill:none;stroke:#1580A6;stroke-width:3;stroke-linecap:round;stroke-miterlimit:10;}
	.st54{fill:#EC5C5C;}
	.st55{fill:none;stroke:#C44D4D;stroke-width:3;stroke-linecap:round;stroke-miterlimit:10;}
	.st56{fill:none;stroke:#ECA934;stroke-width:5;stroke-linecap:round;stroke-miterlimit:10;}
	.st57{fill:#D65353;}
	.st58{fill:#EFC7B0;}
	.st59{fill:#DE5656;}
	.st60{fill:#D6B29D;}
	.st61{fill:#8A6551;}
	.st62{fill:#BD885C;}
	.st63{fill:#F2B1A5;}
	.st64{fill:#BD9B7D;}
	.st65{fill:#423127;}
	.st66{fill:none;stroke:#FF6B6B;stroke-linecap:round;stroke-miterlimit:10;}
	.st67{fill:#E6AA9F;}
	.st68{fill:#FFADB2;}
	.st69{fill:none;stroke:#FFADB2;stroke-width:5;stroke-linecap:round;stroke-miterlimit:10;}
	.st70{fill:#E69CA0;}
	.st71{fill:#93C1DB;}
	.st72{fill:#77BAE0;}
	.st73{fill:#2E304F;}
	.st74{fill:none;stroke:#C44D4D;stroke-width:2;stroke-linecap:round;stroke-miterlimit:10;}
	.st75{fill:none;stroke:#8A6551;stroke-width:0.75;stroke-linecap:round;stroke-miterlimit:10;}
	.st76{fill:#F1E193;}
	.st77{fill:none;stroke:#F8FFC5;stroke-width:2;stroke-linecap:round;stroke-miterlimit:10;}
	.st78{clip-path:url(#SVGID_13_);}
	.st79{clip-path:url(#SVGID_13_);fill:none;stroke:#A78066;stroke-linecap:round;stroke-miterlimit:10;}
	.st80{clip-path:url(#SVGID_15_);}
	.st81{opacity:0.35;fill:url(#SVGID_16_);}
	.st82{clip-path:url(#SVGID_18_);fill:none;stroke:#B3896D;stroke-linecap:round;stroke-miterlimit:10;}
	.st83{clip-path:url(#SVGID_20_);fill:none;stroke:#B3896D;stroke-linecap:round;stroke-miterlimit:10;}
	.st84{clip-path:url(#SVGID_22_);fill:none;stroke:#B3896D;stroke-linecap:round;stroke-miterlimit:10;}</style>
 <circle id="path1261" cx="248" cy="248" r="248" fill="#70a5da" stroke-opacity="0"/>
 <g id="g12" transform="translate(-53.962 -67.628)">
  <g id="g10">
   <path id="path8" class="st0" d="m310.7 267c1.8 13.6 1.8 27.2-0.3 40.7-0.3 1.9 2.6 2.7 2.9 0.8 2.1-13.8 2.2-27.7 0.4-41.5-0.2-1.9-3.2-1.9-3 0z"/>
  </g>
 </g>
 <path id="path14" d="m245.99 209.8c-6.225 0-12.45 1.625-18.05 4.875l-211.48 122.13a248 248 0 0 0 24.932 47.943l186.55 107.73c1.3859 0.79196 2.8099 1.4841 4.2627 2.0801a248 248 0 0 0 15.437 0.48194 248 248 0 0 0 11.533-0.26954c1.6299-0.64234 3.225-1.4028 4.7681-2.2925l192.03-110.89a248 248 0 0 0 22.226-43.184l-214.15-123.73c-5.6-3.25-11.825-4.875-18.05-4.875z" fill="#3ba0b9"/>
 <g id="g32" transform="translate(-53.962 -67.628)">
  <g id="g20">
   <path id="path16" class="st2" d="m192.5 374.3 94.9-235.1c4.4-11 21.2-11 25.6 0l94.9 235.1z"/>
   <path id="path18" class="st3" d="m300.2 131v243.9h107.7l-94.9-235.4c-2.2-5.5-8-8.5-12.8-8.5z"/>
  </g>
  <g id="g30">
   <path id="path22" class="st4" d="m300 374.8 78.9-177.8c3.7-8.3 17.6-8.3 21.3 0l78.9 177.8z"/>
   <path id="path24" class="st4" d="m121.2 374.8 78.9-177.8c3.7-8.3 17.6-8.3 21.3 0l78.9 177.8z"/>
   <path id="path26" class="st5" d="m389.2 190.5v184.4h90l-79.1-178c-1.9-4.1-5.9-6.4-10.9-6.4z"/>
   <path id="path28" class="st5" d="m211.2 190.5v184.4h90.1l-79.2-178c-1.8-4.1-5.9-6.4-10.9-6.4z"/>
  </g>
 </g>
 <g id="g36" transform="translate(-53.962 -67.628)">
  <path id="path34" class="st6" d="m311.7 135.3c-2-2.9-9.7-14.5-16.5-13.2-4.1 0.8-6.1 5.7-8.3 10.7 0 0-22.8 51.3-25.1 65.7-0.1 0.8-0.1 1.9 0.4 2.8 0.6 1 1.7 1.5 2.8 1.8 6.3 1.3 11.5-4.8 15.1-10.2s8.9-11.5 15.2-10c2.8 0.7 5.1 2.8 6.9 5.1 4 4.8 7 10.4 8.9 16.3 1 3.1 2.9 7.1 6 6.2 1.8-0.5 2.7-2.6 3.1-4.5 1.2-6.1-0.3-9-0.3-16.1 0-6 1.6-13.4 4.5-13.9 1.9-0.4 3.5 2.5 4.4 2 0.8-0.4 0.5-3.8-4.4-16.5z"/>
 </g>
 <g id="g40" transform="translate(-53.962 -67.628)">
  <path id="path38" class="st6" d="m198.2 194.8c-7.5 11-6.5 13-16.8 34.1-3.2 6.4-6 12-3.9 14.4 1.3 1.4 4 1.5 5.7 0.8 2.5-0.9 3-2.5 6.9-6.9 3.3-3.8 5-5.7 7.6-6.6 3.2-1.1 6.2-0.5 7.5-0.2 6.6 1.6 7.8 6.7 11.3 6.3 4.4-0.5 4.6-8.7 8.8-9 3.7-0.2 8.4 5.9 9.3 7.1 0.2 0.3 1.6 2.3 4.2 4 1 0.7 2.4 1.6 3.1 1.1 0.3-0.2 1-1-0.1-5-7.6-26.4-15.4-37.6-15.4-37.6-7.1-10.2-10.7-15.2-15.7-15-1.6 0.2-4.6 0.9-12.5 12.5z"/>
 </g>
 <g id="g44" transform="translate(-53.962 -67.628)">
  <path id="path42" class="st6" d="m379.5 191.4c-4.8 7.9-7.6 14.4-10.8 22.2-7.7 18.5-9.2 22.9-7.5 24.3 1.8 1.4 6.8-0.4 8.9-2.1 2.5-2.1 5-4.7 8.2-5 4.3-0.4 7.8 3.6 9.6 7.6s2.7 8.5 5.8 11.6 9.3 3.5 11-0.5c0.5-1.2 0.5-2.5 0.5-3.9-0.1-3.7-0.2-7.4-0.2-11.1 0-1.4 0-2.9 0.6-4.1 0.9-1.7 3.4-1.5 3.5-1.5 2.5 0 7.8 7.4 8.9 7 1.2-0.5-2.2-11.2-2.2-11.2-1.6-5.1-2.6-8.2-4.7-13-0.7-1.5-1.2-2.7-1.8-3.8-4.5-9-9.4-16.7-9.4-16.7-4.9-7.6-7.4-11.3-9.7-11.4-1.5-0.2-4.1 0.6-10.7 11.6z"/>
 </g>
 <path id="path46" class="st7" d="m257.04 199.77-25.5 27.4c-2.3 2.4-0.3 6.4 3 6s5.3 3.6 3 6l-18 18.6c-2.2 2.3-0.6 6 2.5 6.1l9.2 0.2c3.4 0.1 4.8 4.3 2.2 6.4l-23.3 18.7c-2.6 2.1-1.2 6.3 2.1 6.4l14.6 0.5c3.2 0.1 4.7 4 2.3 6.2l-15.7 14.8c-2.4 2.2-0.8 6.2 2.5 6.2h91.3c3.2 0 4.8-3.9 2.5-6.2l-17.4-16.7c-2.2-2.1-0.9-5.9 2.2-6.2l17.1-1.4c3.3-0.3 4.5-4.6 1.7-6.5l-22.4-15.6c-2.7-1.9-1.7-6 1.5-6.5l6.5-0.9c3-0.4 4.2-4.1 1.9-6.2l-20.7-19c-2.5-2.3-0.7-6.4 2.6-6.2l1.3 0.1c3.2 0.2 5-3.7 2.8-6l-24.5-26c-1.5-1.7-3.9-1.7-5.3-0.2z"/>
 <path id="path48" class="st8" d="m186.14 214.57-22.8 24.5c-2 2.2-0.2 5.7 2.7 5.4 3-0.4 4.8 3.2 2.7 5.4l-16.1 16.7c-1.9 2-0.5 5.4 2.2 5.4l8.2 0.1c3 0.1 4.3 3.8 1.9 5.7l-20.9 16.7c-2.3 1.9-1.1 5.6 1.9 5.7l13 0.4c2.8 0.1 4.2 3.6 2.1 5.5l-13.9 13.3c-2.1 2-0.7 5.5 2.2 5.5h81.6c2.9 0 4.3-3.5 2.2-5.5l-15.6-14.9c-2-1.9-0.8-5.3 1.9-5.5l15.3-1.3c3-0.3 4-4.1 1.6-5.8l-20.1-14c-2.4-1.7-1.5-5.4 1.4-5.8l5.8-0.8c2.7-0.4 3.7-3.7 1.7-5.5l-18.5-17c-2.2-2-0.7-5.7 2.3-5.6l1.1 0.1c2.9 0.1 4.5-3.3 2.5-5.4l-21.9-23.3c-1.1-1.3-3.3-1.3-4.5 0z"/>
 <path id="path50" class="st7" d="m384.74 236.37-15.3 16.4c-1.4 1.5-0.2 3.8 1.8 3.6s3.2 2.2 1.8 3.6l-10.8 11.2c-1.3 1.4-0.4 3.6 1.5 3.6l5.5 0.1c2 0 2.9 2.6 1.3 3.8l-14 11.2c-1.6 1.2-0.7 3.8 1.3 3.8l8.7 0.3c1.9 0.1 2.8 2.4 1.4 3.7l-9.4 8.9c-1.4 1.3-0.5 3.7 1.5 3.7h54.8c1.9 0 2.9-2.4 1.5-3.7l-10.4-10c-1.3-1.3-0.5-3.5 1.3-3.7l10.2-0.9c2-0.2 2.7-2.8 1-3.9l-13.5-9.4c-1.6-1.1-1-3.6 0.9-3.9l3.9-0.6c1.8-0.3 2.5-2.5 1.2-3.7l-12.4-11.4c-1.5-1.4-0.4-3.8 1.6-3.7h0.8c1.9 0.1 3-2.2 1.7-3.6l-14.8-15.4c-0.8-1-2.2-0.9-3.1 0z"/>
 <path id="path52" class="st8" d="m53.838 262.77-15.3 16.4c-1.4 1.5-0.2 3.8 1.8 3.6s3.2 2.2 1.8 3.6l-10.8 11.2c-1.3 1.4-0.4 3.6 1.5 3.6l5.5 0.1c2 0 2.9 2.6 1.3 3.8l-14 11.2c-1.6 1.2-0.7 3.8 1.3 3.8l8.7 0.3c1.9 0.1 2.8 2.4 1.4 3.7l-9.4 8.9c-1.4 1.3-0.5 3.7 1.5 3.7h54.8c1.9 0 2.9-2.4 1.5-3.7l-10.4-10c-1.3-1.3-0.5-3.5 1.3-3.7l10.2-0.9c2-0.2 2.7-2.8 1-3.9l-13.5-9.4c-1.6-1.1-1-3.6 0.9-3.9l3.9-0.6c1.8-0.3 2.5-2.5 1.2-3.7l-12.4-11.4c-1.5-1.4-0.4-3.8 1.6-3.7h0.8c1.9 0.1 3-2.2 1.7-3.6l-14.7-15.4c-0.9-0.9-2.3-0.9-3.2 0z"/>
 <path id="path54" class="st9" d="m64.538 325.07c-1.9 1.9-3.9 3.7-5.8 5.6 0-1.8 0-3.7-0.1-5.5 0.2 0 0.5-0.2 0.7-0.3 2.4-2 4.5-4.2 6.5-6.5 1.2-1.5-0.9-3.6-2.1-2.1-1.6 1.9-3.3 3.8-5.2 5.4 0-0.6-0.1-1.1-0.1-1.7 0.4-0.6 0.4-1.4-0.1-2-0.1-1.1-0.2-2.3-0.3-3.4 0.4 0.3 1 0.4 1.6 0.1 2.5-1.4 4.8-3.1 6.8-5.2 1.3-1.4-0.8-3.5-2.1-2.1-1.8 1.9-3.9 3.5-6.2 4.8-0.1 0.1-0.2 0.1-0.3 0.2-0.2-2-0.4-3.9-0.5-5.9 0.2-0.1 0.5-0.2 0.7-0.4 2.5-2.7 5.2-5.2 8.1-7.4 1.5-1.1 0-3.7-1.5-2.6-2.7 2-5.3 4.3-7.6 6.7-0.2-2.3-0.4-4.6-0.5-6.8 2.7-2.3 5.6-4.3 8.7-6.1 1.7-1 0.2-3.5-1.5-2.6-2.6 1.5-5 3.1-7.4 4.9-0.1-1.6-0.1-3.2-0.1-4.8l0.2-0.2c1.8-1.5 3.5-3.2 5.2-4.8 1.4-1.3-0.7-3.4-2.1-2.1-0.9 0.9-1.9 1.7-2.8 2.6-0.1 0.1-0.3 0.2-0.4 0.4 0.1-1.9 0.2-3.9 0.5-5.8 0.2-1.9-2.8-1.9-3 0-0.2 1.5-0.3 3-0.4 4.4-1.6-1.1-3.3-1.9-5.1-2.7-1.8-0.7-2.6 2.2-0.8 2.9 2.1 0.9 3.9 1.9 5.7 3.3-0.5 0.6-0.6 1.3-0.1 2l0.2 0.2v2.2c-2.1-0.5-4.2-1.2-6.1-2.1-1.7-0.9-3.2 1.7-1.5 2.6 2.5 1.2 5 2.1 7.7 2.6 0 0.6 0.1 1.3 0.1 1.9-0.2 0.4-0.2 0.9 0.1 1.3 0.1 1.2 0.1 2.4 0.2 3.6-3.1-0.6-5.9-1.9-8.4-3.7-1.6-1.1-3.1 1.5-1.5 2.6 3.1 2.2 6.5 3.6 10.2 4.2 0.2 1.9 0.3 3.8 0.5 5.6-2.8-1.2-5.7-2.2-8.6-3.1-1.9-0.5-2.6 2.4-0.8 2.9 3.1 0.9 6.1 2 9 3.2 0.2 0.1 0.5 0.1 0.7 0.1 0.2 1.7 0.3 3.4 0.4 5-2.4-1.1-4.7-2.2-7-3.5-1.7-0.9-3.2 1.7-1.5 2.6 2.9 1.6 5.8 3 8.8 4.2 0.1 1.8 0.2 3.5 0.3 5.3-3.2-1-6.2-2.4-9-4.2-1.6-1-3.1 1.5-1.5 2.6 3.3 2.1 6.9 3.7 10.6 4.7v5.3c-3.1-1-6.2-2.1-9.1-3.6-1.7-0.8-3.3 1.8-1.5 2.6 3.4 1.6 6.9 3 10.5 4.1 0.1 1.7 2.9 1.6 3-0.2 0-0.6 0-1.1 0.1-1.7 0.2-0.1 0.4-0.2 0.6-0.4 2.5-2.4 4.9-4.7 7.4-7.1 1-1.3-1.1-3.4-2.5-2.1z"/>
 <path id="path56" class="st8" d="m330.44 211.77-23.6 25.3c-2.1 2.3-0.3 5.9 2.8 5.5s4.9 3.3 2.8 5.6l-16.6 17.2c-2 2.1-0.6 5.6 2.3 5.6l8.5 0.2c3.1 0.1 4.4 4 2 5.9l-21.6 17.3c-2.4 1.9-1.1 5.8 2 5.9l13.5 0.5c2.9 0.1 4.3 3.7 2.2 5.7l-14.7 13.6c-2.2 2.1-0.7 5.7 2.3 5.7h84.4c3 0 4.4-3.6 2.3-5.7l-16.1-15.4c-2.1-2-0.8-5.4 2-5.7l15.8-1.3c3.1-0.3 4.2-4.2 1.6-6l-20.7-14.4c-2.5-1.7-1.6-5.6 1.4-6l6-0.9c2.8-0.4 3.8-3.8 1.8-5.7l-19.1-17.6c-2.3-2.1-0.7-5.9 2.4-5.7l1.2 0.1c3 0.2 4.6-3.4 2.6-5.6l-22.7-24c-1.3-1.5-3.5-1.5-4.8-0.1z"/>
 <path id="path58" class="st7" d="m84.438 273.87-15.3 16.5c-1.4 1.5-0.2 3.8 1.8 3.6s3.2 2.2 1.8 3.6l-10.8 11.2c-1.3 1.4-0.4 3.6 1.5 3.6l5.5 0.1c2 0 2.9 2.6 1.3 3.8l-14 11.2c-1.6 1.2-0.7 3.8 1.3 3.8l8.7 0.3c1.9 0.1 2.8 2.4 1.4 3.7l-9.4 8.9c-1.4 1.3-0.5 3.7 1.5 3.7h54.8c1.9 0 2.9-2.4 1.5-3.7l-10.4-10c-1.3-1.3-0.5-3.5 1.3-3.7l10.2-0.9c2-0.2 2.7-2.8 1-3.9l-13.5-9.4c-1.6-1.1-1-3.6 0.9-3.9l3.9-0.6c1.8-0.3 2.5-2.5 1.2-3.7l-12.4-11.4c-1.5-1.4-0.4-3.8 1.6-3.7h0.8c1.9 0.1 3-2.2 1.7-3.6l-14.7-15.6c-0.9-0.8-2.4-0.8-3.2 0.1z"/>
 <path id="path60" class="st10" d="m227.94 339.47"/>
 <path id="path62" class="st9" d="m346.54 314.07c-1.9 1.9-3.9 3.7-5.8 5.6 0-1.8 0-3.7-0.1-5.5 0.2 0 0.5-0.2 0.7-0.3 2.4-2 4.5-4.2 6.5-6.5 1.2-1.5-0.9-3.6-2.1-2.1-1.6 1.9-3.3 3.8-5.2 5.4 0-0.6-0.1-1.1-0.1-1.7 0.4-0.6 0.4-1.4-0.1-2-0.1-1.1-0.2-2.3-0.3-3.4 0.4 0.3 1 0.4 1.6 0.1 2.5-1.4 4.8-3.1 6.8-5.2 1.3-1.4-0.8-3.5-2.1-2.1-1.8 1.9-3.9 3.5-6.2 4.8-0.1 0.1-0.2 0.1-0.3 0.2-0.2-2-0.4-3.9-0.5-5.9 0.2-0.1 0.5-0.2 0.7-0.4 2.5-2.7 5.2-5.2 8.1-7.4 1.5-1.1 0-3.7-1.5-2.6-2.7 2-5.3 4.3-7.6 6.7-0.2-2.3-0.4-4.6-0.5-6.8 2.7-2.3 5.6-4.3 8.7-6.1 1.7-1 0.2-3.5-1.5-2.6-2.6 1.5-5 3.1-7.4 4.9-0.1-1.6-0.1-3.2-0.1-4.8 1.1-0.7 2-1.9 2.8-2.6 1.8-1.6 3.5-3.2 5.3-4.9 1.4-1.3-0.7-3.4-2.1-2.1-1.3 1.2-2.7 2.5-4 3.7-0.6 0.6-1.2 1.1-1.8 1.7 0.1-1.9 0.2-3.9 0.5-5.8 0.2-1.9-2.8-1.9-3 0-0.2 1.5-0.3 2.9-0.4 4.4-2.3-1.6-4.6-2.9-7.2-4-1.8-0.7-3.3 1.8-1.5 2.6 3 1.3 5.9 2.9 8.5 4.9-0.4 0.6-0.5 1.3-0.1 2 0 0.1 0.1 0.2 0.2 0.3v2.1c-2.1-0.5-4.2-1.2-6.1-2.1-1.7-0.9-3.2 1.7-1.5 2.6 2.5 1.2 5 2.1 7.7 2.6 0 0.6 0.1 1.3 0.1 1.9-0.2 0.4-0.2 0.9 0.1 1.3 0.1 1.2 0.1 2.4 0.2 3.6-3.1-0.6-5.9-1.9-8.4-3.7-1.6-1.1-3.1 1.5-1.5 2.6 3.1 2.2 6.5 3.6 10.2 4.2 0.2 1.9 0.3 3.8 0.5 5.6-2.8-1.2-5.7-2.2-8.6-3.1-1.9-0.5-2.6 2.4-0.8 2.9 3.1 0.9 6.1 2 9 3.2 0.2 0.1 0.5 0.1 0.7 0.1 0.2 1.7 0.3 3.4 0.4 5-2.4-1.1-4.7-2.2-7-3.5-1.7-0.9-3.2 1.7-1.5 2.6 2.9 1.6 5.8 3 8.8 4.2 0.1 1.8 0.2 3.5 0.3 5.3-3.2-1-6.2-2.4-9-4.2-1.6-1-3.1 1.5-1.5 2.6 3.3 2.1 6.9 3.7 10.6 4.7v5.3c-3.1-1-6.2-2.1-9.1-3.6-1.7-0.8-3.3 1.8-1.5 2.6 3.4 1.6 6.9 3 10.5 4.1 0.1 1.7 2.9 1.6 3-0.2 0-0.6 0-1.1 0.1-1.7 0.2-0.1 0.4-0.2 0.6-0.4 2.5-2.4 4.9-4.7 7.4-7.1 0.9-1.2-1.2-3.3-2.6-2z"/>
 <g id="g68" transform="translate(-53.962 -67.628)">
  <path id="path64" class="st9" d="m245.7 361.3c0.2-0.1 0.4-0.2 0.5-0.3 2.5-2.4 4.9-4.7 7.4-7.1 1.4-1.3-0.7-3.5-2.1-2.1-2 1.9-3.9 3.7-5.9 5.6 0-1.1-0.1-2.2-0.1-3.3 0.1-0.3 0.1-0.7 0-1 0-0.4 0-0.8-0.1-1.2 0.3 0 0.6-0.1 0.8-0.4 2.4-2 4.5-4.2 6.5-6.5 1.2-1.5-0.9-3.6-2.1-2.1-1.6 2-3.4 3.9-5.4 5.6 0-0.5-0.1-1.1-0.1-1.6 0.6-0.6 0.6-1.8-0.2-2.4-0.1-1.1-0.2-2.3-0.3-3.4 0.4 0.5 1.1 0.7 1.8 0.4 2.5-1.4 4.8-3.1 6.8-5.2 1.3-1.4-0.8-3.5-2.1-2.1-1.8 1.9-3.9 3.5-6.2 4.8-0.2 0.1-0.4 0.3-0.5 0.4-0.2-2-0.4-4-0.5-6.1 0.3 0 0.6-0.2 0.9-0.5 2.5-2.7 5.2-5.2 8.1-7.4 1.5-1.1 0-3.7-1.5-2.6-2.8 2.1-5.4 4.4-7.8 6.9 0-0.3-0.1-0.7-0.1-1 0.1-0.3 0-0.6-0.1-0.9-0.1-1.6-0.2-3.3-0.3-4.9 2.8-2.3 5.7-4.4 8.8-6.2 1.7-1 0.2-3.5-1.5-2.6-2.6 1.5-5.1 3.2-7.4 5v-4.8l0.1-0.1c2.2-1.8 4.3-3.9 6.4-5.8 1.4-1.3-0.7-3.4-2.1-2.1-1.1 1-2.2 2-3.3 3.1-0.3 0.3-0.6 0.5-0.8 0.8 0.1-1.9 0.2-3.9 0.5-5.8 0.2-1.9-2.8-1.9-3 0-0.2 1.5-0.3 2.9-0.4 4.4-1.9-1.3-3.8-2.3-6-3.2-1.8-0.7-2.6 2.2-0.8 2.9 2.4 1 4.5 2.3 6.6 3.8-0.5 0.6-0.6 1.5 0 2.2v2.2c-2.1-0.5-4.1-1.2-6.1-2.1-1.7-0.9-3.2 1.7-1.5 2.6 2.4 1.2 5 2.1 7.6 2.6 0 0.7 0 1.4 0.1 2.1-0.1 0.3-0.1 0.6 0 0.8 0.1 1.3 0.1 2.6 0.2 3.8-3-0.6-5.8-1.9-8.3-3.7-1.6-1.1-3.1 1.5-1.5 2.6 3 2.2 6.4 3.5 10 4.1 0.1 1.9 0.3 3.7 0.5 5.6-2.8-1.1-5.5-2.1-8.4-3-1.9-0.5-2.6 2.4-0.8 2.9 3.1 0.9 6.1 2 9 3.2 0.2 0.1 0.3 0.1 0.5 0.1 0.1 1.7 0.3 3.3 0.4 5-2.3-1-4.6-2.2-6.8-3.4-1.7-0.9-3.2 1.7-1.5 2.6 2.8 1.5 5.7 2.9 8.6 4.2 0.1 1.8 0.3 3.6 0.4 5.4-3.1-1-6.1-2.3-8.9-4.1-1.6-1-3.1 1.5-1.5 2.6 3.3 2.1 6.8 3.7 10.6 4.7 0.1 1.8 0.1 3.5 0.1 5.3-3.2-1-6.2-2.1-9.2-3.6-1.7-0.8-3.3 1.8-1.5 2.6 3.5 1.7 7 3 10.7 4.1 0 1.2-0.1 2.5-0.2 3.7-0.1 1.9 2.9 1.9 3 0-0.1-2.3 0-4.2 0-6.1z"/>
  <path id="path66" class="st9" d="m252.1 362.8c-2.1 1.9-4.2 3.8-6.4 5.7-1.4 1.3 0.7 3.4 2.1 2.1 2.1-1.9 4.2-3.8 6.4-5.7 1.5-1.3-0.7-3.4-2.1-2.1z"/>
 </g>
 <g id="g168" transform="translate(-53.962 -67.628)">
  <path id="path70" class="st11" d="m319.3 404.1c-0.4 0.4-2.3 1.9-5 1.9s-4.4-1.5-4.9-1.9v-143h9.9z"/>
  <g id="g118">
   <defs id="defs73">
    <path id="SVGID_1_" d="m319.3 404.1c-0.4 0.4-2.3 1.9-5 1.9s-4.4-1.5-4.9-1.9v-143h9.9z"/>
   </defs>
   <clipPath id="SVGID_2_">
    <use id="use75" width="100%" height="100%" xlink:href="#SVGID_1_"/>
   </clipPath>
   <g id="g112" class="st12" clip-path="url(#SVGID_2_)">
    <path id="path78" class="st13" d="m318.7 282.2c-0.2 0.2-2.7 3-1.8 6.5 0.6 2.2 2.2 3.4 2.8 3.8"/>
    <path id="path80" class="st13" d="m319.3 276.4c-1.1 0.2-3.1 0.7-4.5 2.4-1.5 1.8-1.4 3.9-1.3 6.5 0.1 2.2 0.4 7.7 3.9 9.6 0.7 0.4 1.4 0.5 1.8 0.6"/>
    <path id="path82" class="st13" d="m319.9 274.2c-0.9 0-2.4 0.2-3.9 1-3.5 1.9-4.4 5.6-4.8 7.2-1 4 0.1 7.2 0.4 8.2 0.5 1.5 1.3 3.8 3.6 5.5 1.8 1.3 3.6 1.7 4.6 1.8"/>
    <path id="path84" class="st13" d="m309.4 291.6c0.3 1.5 0.9 3.6 2.3 5.7 0.8 1.2 1.9 2.7 3.9 3.9 1.6 0.9 3.1 1.2 4.1 1.3"/>
    <path id="path86" class="st13" d="m309.4 309c0.4 0.2 1.2 0.7 1.8 1.8 0.1 0.2 0.5 0.9 0.5 2 0 0.5 0 1.4-0.5 2.2-0.6 0.9-1.4 1.2-1.7 1.3"/>
    <path id="path88" class="st13" d="m309 306.2c0.7 0.1 1.9 0.4 3 1.2 1.6 1.2 2.2 2.9 2.4 3.5 0.4 1.2 0.4 2.1 0.3 3 0 0.9 0 1.9-0.5 3-0.6 1.4-1.4 2.2-1.6 2.3-0.4 0.4-1 0.9-1.8 1.1-0.6 0.2-1.1 0.1-1.4 0.1"/>
    <path id="path90" class="st13" d="m309.4 343.7c1.3-0.2 4.9-0.9 7.6-3.8 0.7-0.7 1.9-2.1 2.4-4.3 0.4-1.7 0.2-3.1 0-3.9"/>
    <path id="path92" class="st13" d="m319.3 351.5c-1.2 0.7-1.8 1.6-2.1 2.1-1 1.6-1.5 4.3-0.1 5.8 0.5 0.5 1.1 0.7 1.5 0.8"/>
    <path id="path94" class="st13" d="m319.3 347.4c-0.9 0.4-2.2 1.1-3.4 2.4-2.3 2.5-2.8 5.3-3 6.7-0.2 1.3-0.5 4 0.8 6.6 0.4 0.7 1 1.9 2.4 2.9 1.2 0.8 2.5 1.1 3.1 1.1"/>
    <path id="path96" class="st13" d="m319.3 341.8c-1.1 0.8-2.7 2-4.5 3.6-0.8 0.7-2.3 2.1-3.3 3.5-4.5 6-1.9 14.8-1.7 15.4 0.6 1.9 1.3 4.1 3.5 6 2.3 2 4.8 2.4 6 2.5"/>
    <path id="path98" class="st13" d="m309.4 372.1c-0.1 0.8-0.1 3.5 1.6 6 0.4 0.5 2.2 3.1 5.5 3.6 1.2 0.2 2.1 0 2.8-0.1"/>
    <path id="path100" class="st13" d="m309.4 379.2c0.2 1 0.7 2.3 1.5 3.5 2.7 3.9 7.4 4.5 8.4 4.6"/>
    <path id="path102" class="st13" d="m309.4 393c0.5 0.6 1.3 1.6 1.9 2.9 0.5 1 1 2.2 1 3.8 0 1.5-0.6 2.7-1 3.5"/>
    <path id="path104" class="st13" d="m309.4 388.3c1 0.5 2.5 1.4 3.8 3.1 2.3 3 2.2 6.3 2.1 7.8-0.1 4-1.9 6.9-2.8 8.1"/>
    <path id="path106" class="st13" d="m309.4 385.5c1.4 0.6 5.8 2.7 7.9 7.5 1.4 3.2 1.1 6.1 1 7.9-0.3 3.9-1.7 6.8-2.6 8.4"/>
    <path id="path108" class="st13" d="m308.5 300.8c1.3 0.4 4.1 1.5 6.4 4.3 0.8 0.9 3.8 4.9 2.8 10.1-1.2 6.8-8.1 9.3-8.3 9.4"/>
    <path id="path110" class="st13" d="m308.4 331.9c2.2-1.1 6.7-3.8 9.9-9.2 1.7-2.9 2.5-5.6 2.9-7.6"/>
   </g>
   <path id="path114" class="st14" d="m307 272.9c1-0.6 3-1.8 4.5-4.1 1.9-2.8 2.2-5.5 2.2-6.7" clip-path="url(#SVGID_2_)"/>
   <path id="path116" class="st14" d="m310 272.9c1-0.6 3-1.8 4.5-4.1 1.9-2.8 2.2-5.5 2.2-6.7" clip-path="url(#SVGID_2_)"/>
  </g>
  <g id="g122">
   <path id="path120" class="st15" d="m357.1 290.5c-0.1-1.3-1-2.3-1.8-3.3-5.1-5.7-12.2-9.2-19.5-11.6-6-1.7-12-3.3-18.1-5-0.7-0.3-2-0.7-3.6-0.7s-2.8 0.4-3.5 0.8c-6 1.7-12 3.5-17.9 5.2-7.3 2.4-14.4 5.8-19.5 11.6-0.8 0.9-1.6 2-1.8 3.3-0.1 1.3 0.6 2.7 1.9 2.9 1.9 0.2 3.2-2.4 5.1-2.3 0.7 0 1.3 0.3 1.9 0.5 2.1 0.6 4.7-0.7 5.3-2.9 0.2-0.5 0.2-1.1 0.7-1.4 0.6-0.4 1.4-0.1 2.1 0.1 3.6 1.2 7.9-0.9 9.2-4.5 1.1 0.6 2.9 1.4 4.8 1 2.6-0.6 2.9-3 5.5-3.7 2.3-0.6 2.8 1.2 6.2 1.2 3.8 0.1 4.7-2 7.2-1.2 2.4 0.7 2.5 2.8 4.9 3.5 1.8 0.5 3.6-0.3 4.8-1 1.3 3.5 5.6 5.6 9.2 4.5 0.7-0.2 1.5-0.5 2.1-0.1 0.4 0.3 0.5 0.9 0.7 1.4 0.7 2.1 3.2 3.5 5.3 2.9 0.6-0.2 1.3-0.5 1.9-0.5 1.9 0 3.2 2.6 5.1 2.3 1.2-0.3 2-1.7 1.8-3z"/>
  </g>
  <g id="g126">
   <path id="path124" class="st16" d="m357.1 292.5c-0.1-1.3-1-2.3-1.8-3.3-5.1-5.7-12.2-9.2-19.5-11.6-6-1.7-12-3.3-18.1-5-0.7-0.3-2-0.7-3.6-0.7s-2.8 0.4-3.5 0.8c-6 1.7-12 3.5-17.9 5.2-7.3 2.4-14.4 5.8-19.5 11.6-0.8 0.9-1.6 2-1.8 3.3-0.1 1.3 0.6 2.7 1.9 2.9 1.9 0.2 3.2-2.4 5.1-2.3 0.7 0 1.3 0.3 1.9 0.5 2.1 0.6 4.7-0.7 5.3-2.9 0.2-0.5 0.2-1.1 0.7-1.4 0.6-0.4 1.4-0.1 2.1 0.1 3.6 1.2 7.9-0.9 9.2-4.5 1.1 0.6 2.9 1.4 4.8 1 2.6-0.6 2.9-3 5.5-3.7 2.3-0.6 2.8 1.2 6.2 1.2 3.8 0.1 4.7-2 7.2-1.2 2.4 0.7 2.5 2.8 4.9 3.5 1.8 0.5 3.6-0.3 4.8-1 1.3 3.5 5.6 5.6 9.2 4.5 0.7-0.2 1.5-0.5 2.1-0.1 0.4 0.3 0.5 0.9 0.7 1.4 0.7 2.1 3.2 3.5 5.3 2.9 0.6-0.2 1.3-0.5 1.9-0.5 1.9 0 3.2 2.6 5.1 2.3 1.2-0.3 2-1.7 1.8-3z"/>
  </g>
  <g id="g130">
   <path id="path128" class="st15" d="m353.2 342.4c-11.5-6.2-23.7-11.1-36.3-14.5-1.5-0.4-3-0.4-4.5 0-12.7 3.4-25.4 8.5-36.9 14.7-1.9 1-3.8 2.1-5.1 3.9 2.8 0.9 6.1-0.1 8-2.3 2.5 2.3 7.3 1.1 8.3-2.1 0.3 2.2 3.2 3.4 5.3 2.6s3.4-3 3.8-5.2c0.4 0.4 2.6 2.6 5.8 2.3 3.1-0.2 5.9-2.7 6.7-6.2 1.3 2.1 3.6 3.4 6.1 3.3 3.9-0.1 5.8-3.4 5.8-3.6 0.8 3.5 3.6 5.9 6.7 6.2 3.2 0.3 5.5-2 5.8-2.3 0.4 2.2 1.7 4.4 3.8 5.2s4.9-0.4 5.3-2.6c1 3.2 5.8 4.5 8.3 2.1 1.9 2.2 5.2 3.2 8 2.3-1.1-1.7-3-2.8-4.9-3.8z"/>
  </g>
  <g id="g134">
   <path id="path132" class="st15" d="m357.8 316.4c-15-11-40.2-16.9-40.2-16.9-0.7-0.2-1.6-0.4-2.7-0.3-1.5 0-2.6 0.4-2.9 0.6-2.8 1-29.4 9-40.2 16.9-1.3 0.9-2.8 2.2-2.6 3.3 0.3 1 1.5 1.6 2.5 1.4 1-0.1 1.9-0.8 2.7-1.5 0.3-0.3 0.7-0.7 1.1-0.7 0.5 0 0.8 0.4 1.2 0.8 1.2 1.1 3 1.2 4.4 0.7 1.5-0.5 2.7-1.7 3.6-2.9 0.2-0.3 0.5-0.6 0.9-0.7 0.6-0.1 1.1 0.6 1.5 1.1 1.3 1.4 3.6 1.3 5.2 0.3s2.7-2.6 4-4c0.2-0.3 0.5-0.5 0.8-0.6 0.5 0 0.8 0.4 1.1 0.8 1.5 1.8 4.2 2.5 6.4 1.7s3.8-3 3.9-5.4c0.2 0.2 2.5 3.3 6.5 3.1 3.6-0.2 5.5-3 5.8-3.3 0.1 2.3 1.7 4.6 3.9 5.4s4.9 0.1 6.4-1.7c0.3-0.4 0.7-0.8 1.1-0.8 0.3 0 0.6 0.3 0.8 0.6 1.2 1.4 2.4 3 4 4s4 1.1 5.2-0.3c0.4-0.5 0.9-1.2 1.5-1.1 0.4 0.1 0.6 0.4 0.9 0.7 1 1.3 2.1 2.4 3.6 2.9s3.3 0.4 4.4-0.7c0.4-0.3 0.7-0.8 1.2-0.8s0.8 0.3 1.1 0.7c0.7 0.7 1.6 1.4 2.7 1.5 1 0.1 2.2-0.4 2.5-1.4 0.5-1.2-1.2-2.6-2.3-3.4z"/>
  </g>
  <g id="g138">
   <path id="path136" class="st16" d="m357.8 318.4c-15-11-40.2-16.9-40.2-16.9-0.7-0.2-1.6-0.4-2.7-0.3-1.5 0-2.6 0.4-2.9 0.6-2.8 1-29.4 9-40.2 16.9-1.3 0.9-2.8 2.2-2.6 3.3 0.3 1 1.5 1.6 2.5 1.4 1-0.1 1.9-0.8 2.7-1.5 0.3-0.3 0.7-0.7 1.1-0.7 0.5 0 0.8 0.4 1.2 0.8 1.2 1.1 3 1.2 4.4 0.7 1.5-0.5 2.7-1.7 3.6-2.9 0.2-0.3 0.5-0.6 0.9-0.7 0.6-0.1 1.1 0.6 1.5 1.1 1.3 1.4 3.6 1.3 5.2 0.3s2.7-2.6 4-4c0.2-0.3 0.5-0.5 0.8-0.6 0.5 0 0.8 0.4 1.1 0.8 1.5 1.8 4.2 2.5 6.4 1.7s3.8-3 3.9-5.4c0.2 0.2 2.5 3.3 6.5 3.1 3.6-0.2 5.5-3 5.8-3.3 0.1 2.3 1.7 4.6 3.9 5.4s4.9 0.1 6.4-1.7c0.3-0.4 0.7-0.8 1.1-0.8 0.3 0 0.6 0.3 0.8 0.6 1.2 1.4 2.4 3 4 4s4 1.1 5.2-0.3c0.4-0.5 0.9-1.2 1.5-1.1 0.4 0.1 0.6 0.4 0.9 0.7 1 1.3 2.1 2.4 3.6 2.9s3.3 0.4 4.4-0.7c0.4-0.3 0.7-0.8 1.2-0.8s0.8 0.3 1.1 0.7c0.7 0.7 1.6 1.4 2.7 1.5 1 0.1 2.2-0.4 2.5-1.4 0.5-1.2-1.2-2.6-2.3-3.4z"/>
  </g>
  <g id="g142">
   <path id="path140" class="st16" d="m353.2 344.9c-11.5-6.2-23.7-11.1-36.3-14.5-1.5-0.4-3-0.4-4.5 0-12.7 3.4-25.4 8.5-36.9 14.7-1.9 1-3.8 2.1-5.1 3.9 2.8 0.9 6.1-0.1 8-2.3 2.5 2.3 7.3 1.1 8.3-2.1 0.3 2.2 3.2 3.4 5.3 2.6s3.4-3 3.8-5.2c0.4 0.4 2.6 2.6 5.8 2.3 3.1-0.2 5.9-2.7 6.7-6.2 1.3 2.1 3.6 3.4 6.1 3.3 3.9-0.1 5.8-3.4 5.8-3.6 0.8 3.5 3.6 5.9 6.7 6.2 3.2 0.3 5.5-2 5.8-2.3 0.4 2.2 1.7 4.4 3.8 5.2s4.9-0.4 5.3-2.6c1 3.2 5.8 4.5 8.3 2.1 1.9 2.2 5.2 3.2 8 2.3-1.1-1.7-3-2.8-4.9-3.8z"/>
  </g>
  <g id="g146">
   <path id="path144" class="st15" d="m342.5 383c-1.3-2.6-3.6-4.6-5.9-6.4-3.6-2.7-7.6-5.9-13.8-7.7-2-0.6-4.7-1.3-8.3-1.3-3.2 0.1-5.5 0.8-7.7 1.5-6.6 2.1-10.8 5.4-13.8 7.7-2.3 1.7-4.6 3.7-5.9 6.4s-1.4 6 0.5 8.3c0.4 0.5 0.9 0.9 1.5 0.9s1.1-0.5 1.4-1c0.9-1.5 0.9-3.5 0-5 0.6 1.3 2.6 1.2 3.5 0.1 0.6-0.8 0.8-1.8 0.7-2.9 0.5 0.9 1.8 1.5 2.9 1.2 1.5-0.5 2.3-2 2.7-3.5s0.4-3.1 1-4.5c0.3 1 1.5 1.6 2.6 1.4 1.1-0.1 2-0.8 2.7-1.5 1.3-1.2 2.2-2.8 2.8-4.5 0.1-0.2 0.1-0.4 0.3-0.5 0.4-0.3 1 0.1 1.2 0.3 1.8 1 6 0.8 7.8-0.2 0.2-0.1 0.9-0.5 1.2-0.3 0.1 0.1 0.2 0.3 0.3 0.5 0.6 1.7 1.5 3.2 2.8 4.5 0.8 0.8 1.7 1.4 2.7 1.5 1.1 0.1 2.3-0.4 2.6-1.4 0.5 1.4 0.6 3 1 4.5s1.2 3 2.7 3.5c1.1 0.4 2.4-0.2 2.9-1.2-0.1 1 0.1 2.1 0.7 2.9 0.9 1.1 2.9 1.2 3.5-0.1-0.9 1.5-0.9 3.5 0 5 0.3 0.5 0.8 1 1.4 1s1.1-0.4 1.5-0.9c1.9-2.3 1.8-5.7 0.5-8.3z"/>
  </g>
  <g id="g150">
   <path id="path148" class="st15" d="m360.8 356.6c-1.8 2.4-4.7 3.6-7.6 4s-5.9 0-8.8-0.5c-16.4-2.6-19.9-4.1-19.9-4.1-5.3-1.3-7.1-1.7-10.1-1.6-2.9 0.1-4.2 0.6-9.3 1.9-4 1-9.2 2.4-19.9 4.1-2.9 0.5-5.9 0.9-8.8 0.5s-5.8-1.7-7.6-4c-0.4 3.7 1.4 7.5 4.5 9.6s7.3 2.3 10.6 0.5c0.4-0.2 0.7-0.4 1.1-0.4 0.9 0 1.5 0.8 2.2 1.3 1.7 1.4 4.4 0.9 6.1-0.4s2.8-3.4 3.8-5.3c-0.6 2.1 2.2 3.8 4.3 3.1s3.3-2.8 4.3-4.7c0.8 1.9 3.8 2.5 5.3 1.1 0.7-0.7 0.6-1.6 1.6-2.3 1.1-0.8 2.8-0.8 4-0.2 1.3 0.7 1.1 1.7 2.1 2.3 0.8 0.5 2.4 0.6 5.3-1.1 1 1.9 2.2 4 4.3 4.7s4.9-1.1 4.3-3.1c1 2 2.1 4 3.8 5.3s4.4 1.8 6.1 0.4c0.7-0.5 1.3-1.4 2.2-1.3 0.4 0 0.8 0.2 1.1 0.4 3.3 1.7 7.5 1.5 10.6-0.5 3-2.2 4.8-6 4.4-9.7z"/>
  </g>
  <g id="g154">
   <path id="path152" class="st16" d="m342.5 385.5c-1.3-2.6-3.6-4.6-5.9-6.4-3.6-2.7-7.6-5.9-13.8-7.7-2-0.6-4.7-1.3-8.3-1.3-3.2 0.1-5.5 0.8-7.7 1.5-6.6 2.1-10.8 5.4-13.8 7.7-2.3 1.7-4.6 3.7-5.9 6.4s-1.4 6 0.5 8.3c0.4 0.5 0.9 0.9 1.5 0.9s1.1-0.5 1.4-1c0.9-1.5 0.9-3.5 0-5 0.6 1.3 2.6 1.2 3.5 0.1 0.6-0.8 0.8-1.8 0.7-2.9 0.5 0.9 1.8 1.5 2.9 1.2 1.5-0.5 2.3-2 2.7-3.5s0.4-3.1 1-4.5c0.3 1 1.5 1.6 2.6 1.4 1.1-0.1 2-0.8 2.7-1.5 1.3-1.2 2.2-2.8 2.8-4.5 0-0.1 0.1-0.4 0.3-0.5 0.4-0.1 0.8 1 1.4 1.7 1.5 1.6 5.5 1.6 7.3-0.2 0.6-0.6 1.1-1.4 1.5-1.3 0.3 0.1 0.3 0.6 0.4 1.2 0.4 1.4 1.4 2.3 2.6 3.3s1.9 1.4 2.7 1.5c1.1 0.1 2.3-0.4 2.6-1.4 0.5 1.4 0.6 3 1 4.5s1.2 3 2.7 3.5c1.1 0.4 2.4-0.2 2.9-1.2-0.1 1 0.1 2.1 0.7 2.9 0.9 1.1 2.9 1.2 3.5-0.1-0.9 1.5-0.9 3.5 0 5 0.3 0.5 0.8 1 1.4 1s1.1-0.4 1.5-0.9c2-2.2 1.9-5.6 0.6-8.2z"/>
  </g>
  <g id="g158">
   <path id="path156" class="st16" d="m360.8 358.6c-1.8 2.4-4.7 3.6-7.6 4s-5.9 0-8.8-0.5c-16.4-2.6-19.9-4.1-19.9-4.1-5.3-1.3-7.1-1.7-10.1-1.6-2.9 0.1-4.2 0.6-9.3 1.9-4 1-9.2 2.4-19.9 4.1-2.9 0.5-5.9 0.9-8.8 0.5s-5.8-1.7-7.6-4c-0.4 3.7 1.4 7.5 4.5 9.6s7.3 2.3 10.6 0.5c0.4-0.2 0.7-0.4 1.1-0.4 0.9 0 1.5 0.8 2.2 1.3 1.7 1.4 4.4 0.9 6.1-0.4s2.8-3.4 3.8-5.3c-0.6 2.1 2.2 3.8 4.3 3.1s3.3-2.8 4.3-4.7c0.8 1.9 3.8 2.5 5.3 1.1 0.7-0.7 0.6-1.6 1.6-2.3 1.1-0.8 2.8-0.8 4-0.2 1.3 0.7 1.1 1.7 2.1 2.3 0.8 0.5 2.4 0.6 5.3-1.1 1 1.9 2.2 4 4.3 4.7s4.9-1.1 4.3-3.1c1 2 2.1 4 3.8 5.3s4.4 1.8 6.1 0.4c0.7-0.5 1.3-1.4 2.2-1.3 0.4 0 0.8 0.2 1.1 0.4 3.3 1.7 7.5 1.5 10.6-0.5 3-2.2 4.8-6 4.4-9.7z"/>
  </g>
  <g id="g162">
   <path id="path160" class="st15" d="m348.2 261.9c-1.1-0.9-2.5-1-2.9-1-4.1-0.1-11.3-1.9-14.2-3-4.2-1.5-7.6-3.8-13.2-9.7-0.7-0.7-1.5-1.4-2.3-2.2-0.5-0.5-1.4-0.5-1.9 0-0.7 0.6-1.5 1.4-2.4 2.2-6.4 5.6-9.6 8.4-13.2 9.7-2.9 1.1-10.2 2.9-14.2 3-0.4 0-1.8 0.1-2.9 1-0.8 0.7-1.1 2.1-0.7 2.8 0.6 1 3.1 0.9 6-0.4 0.2 0.2 2.7 2.7 6.2 2.1 3.2-0.5 4.8-3.2 5-3.5 0.2 0.2 3.7 3.6 8.2 2.6 2.9-0.7 4.6-2.7 5-3.4 0.1 0.2 1.4 2 3.7 2.1 2.5 0.1 3.8-2 3.9-2.1 0.5 0.6 2.1 2.7 5 3.4 4.5 1 8-2.3 8.2-2.6 0.2 0.3 1.8 3 5 3.5 3.6 0.6 6-1.9 6.2-2.1 3 1.4 5.4 1.4 6 0.4 0.7-0.7 0.4-2.1-0.5-2.8z"/>
  </g>
  <g id="g166">
   <path id="path164" class="st16" d="m348.2 264.4c-1.1-0.9-2.5-1-2.9-1-4.1-0.1-11.3-1.9-14.2-3-4.2-1.5-7.6-3.8-13.2-9.7-0.7-0.7-1.5-1.4-2.3-2.2-0.5-0.5-1.4-0.5-1.9 0-0.7 0.6-1.5 1.4-2.4 2.2-6.4 5.6-9.6 8.4-13.2 9.7-2.9 1.1-10.2 2.9-14.2 3-0.4 0-1.8 0.1-2.9 1-0.8 0.7-1.1 2.1-0.7 2.8 0.6 1 3.1 0.9 6-0.4 0.2 0.2 2.7 2.7 6.2 2.1 3.2-0.5 4.8-3.2 5-3.5 1.7 2.4 4.5 3.5 7 2.8 2.7-0.7 3.9-3.1 4.1-3.5 0.2 0.3 2.4 3.1 6.1 3.1 3.8 0 5.9-2.8 6.1-3.1 0.1 0.2 1.3 3.1 4.4 3.7 2.4 0.5 5-0.7 6.4-3 0.2 0.3 1.8 3 5 3.5 3.6 0.6 6-1.9 6.2-2.1 3 1.4 5.4 1.4 6 0.4 0.6-0.7 0.3-2.1-0.6-2.8z"/>
  </g>
 </g>
 <g id="g264" transform="translate(-53.962 -67.628)">
  <path id="path170" class="st11" d="m196.3 425.1c-0.4 0.4-2.3 1.9-5 1.9s-4.4-1.5-4.9-1.9v-143h9.9z"/>
  <g id="g214">
   <defs id="defs173">
    <path id="SVGID_3_" d="m196.3 425.1c-0.4 0.4-2.3 1.9-5 1.9s-4.4-1.5-4.9-1.9v-143h9.9z"/>
   </defs>
   <clipPath id="SVGID_4_">
    <use id="use175" width="100%" height="100%" xlink:href="#SVGID_3_"/>
   </clipPath>
   <g id="g212" class="st17" clip-path="url(#SVGID_4_)">
    <path id="path178" class="st13" d="m187.5 295.2c0.2 0.2 2.7 3 1.8 6.5-0.6 2.2-2.2 3.4-2.8 3.8"/>
    <path id="path180" class="st13" d="m186.8 289.4c1.1 0.2 3.1 0.7 4.5 2.4 1.5 1.8 1.4 3.9 1.3 6.5-0.1 2.2-0.4 7.7-3.9 9.6-0.7 0.4-1.4 0.5-1.8 0.6"/>
    <path id="path182" class="st13" d="m186.3 287.2c0.9 0 2.4 0.2 3.9 1 3.5 1.9 4.4 5.6 4.8 7.3 1 4-0.1 7.2-0.4 8.2-0.5 1.5-1.3 3.8-3.6 5.5-1.8 1.3-3.6 1.7-4.6 1.8"/>
    <path id="path184" class="st13" d="m196.7 304.6c-0.3 1.5-0.9 3.6-2.3 5.7-0.8 1.2-1.9 2.7-3.9 3.9-1.6 0.9-3.1 1.2-4.1 1.3"/>
    <path id="path186" class="st13" d="m196.7 322c-0.4 0.2-1.2 0.7-1.8 1.8-0.1 0.2-0.5 0.9-0.5 2 0 0.5 0 1.4 0.5 2.2 0.6 0.9 1.4 1.2 1.7 1.3"/>
    <path id="path188" class="st13" d="m197.1 319.2c-0.7 0.1-1.9 0.4-3 1.2-1.6 1.2-2.2 2.9-2.4 3.5-0.4 1.2-0.4 2.1-0.3 3 0 0.9 0 1.9 0.5 3 0.6 1.4 1.4 2.2 1.6 2.3 0.4 0.4 1 0.9 1.8 1.1 0.6 0.2 1.1 0.1 1.4 0.1"/>
    <path id="path190" class="st13" d="m196.7 316.9c-0.9 0.2-2.2 0.7-3.6 1.6-0.8 0.5-2.2 1.4-3.2 3.1-0.9 1.4-1.1 2.7-1.4 4.7-0.3 1.8-0.5 3.1-0.1 4.8 0.4 2 1.4 3.4 1.8 4s0.9 1.3 1.9 2.1c0.5 0.4 1.5 1.1 2.9 1.4 0.7 0.1 1.3 0.1 1.7 0.1"/>
    <path id="path192" class="st13" d="m196.7 356.7c-1.3-0.2-4.9-0.9-7.6-3.8-0.7-0.7-1.9-2.1-2.4-4.3-0.4-1.7-0.2-3.1 0-3.9"/>
    <path id="path194" class="st13" d="m186.8 364.5c1.2 0.7 1.8 1.6 2.1 2.1 1 1.6 1.5 4.3 0.1 5.8-0.5 0.5-1.1 0.7-1.5 0.8"/>
    <path id="path196" class="st13" d="m186.8 360.4c0.9 0.4 2.2 1.1 3.4 2.4 2.3 2.5 2.8 5.3 3 6.7 0.2 1.3 0.5 4-0.8 6.6-0.4 0.7-1 1.9-2.4 2.9-1.2 0.8-2.5 1.1-3.1 1.1"/>
    <path id="path198" class="st13" d="m186.8 354.8c1.1 0.8 2.7 2 4.5 3.6 0.8 0.7 2.3 2.1 3.3 3.5 4.5 6 1.9 14.8 1.7 15.4-0.6 1.9-1.3 4.1-3.5 6-2.3 2-4.8 2.4-6 2.5"/>
    <path id="path200" class="st13" d="m196.7 385.1c0.1 0.8 0.1 3.5-1.6 6-0.4 0.5-2.2 3.1-5.5 3.6-1.2 0.2-2.1 0-2.8-0.1"/>
    <path id="path202" class="st13" d="m196.7 392.2c-0.2 1-0.7 2.3-1.5 3.5-2.7 3.9-7.4 4.5-8.4 4.6"/>
    <path id="path204" class="st13" d="m196.7 406c-0.5 0.6-1.3 1.6-1.9 2.9-0.5 1-1 2.2-1 3.8 0 1.5 0.6 2.7 1 3.5"/>
    <path id="path206" class="st13" d="m196.7 401.3c-1 0.5-2.5 1.4-3.8 3.1-2.3 3-2.2 6.3-2.1 7.8 0.1 4 1.9 6.9 2.8 8.1"/>
    <path id="path208" class="st13" d="m196.7 398.5c-1.4 0.6-5.8 2.7-7.9 7.5-1.4 3.2-1.1 6.1-1 7.9 0.3 3.9 1.7 6.8 2.6 8.4"/>
    <path id="path210" class="st13" d="m196.7 344.2c-1.2 0-4.5-0.3-7.3-2.7-0.5-0.4-1.4-1.3-2.2-2.7-1.8-3.1-1.5-6.3-1.3-7.5"/>
   </g>
  </g>
  <g id="g218">
   <path id="path216" class="st15" d="m234.1 311.5c-0.1-1.3-1-2.3-1.8-3.3-5.1-5.7-12.2-9.2-19.5-11.6-6-1.7-12-3.3-18.1-5-0.7-0.3-2-0.7-3.6-0.7s-2.8 0.4-3.5 0.8c-6 1.7-12 3.5-17.9 5.2-7.3 2.4-14.4 5.8-19.5 11.6-0.8 0.9-1.6 2-1.8 3.3-0.1 1.3 0.6 2.7 1.9 2.9 1.9 0.2 3.2-2.4 5.1-2.3 0.7 0 1.3 0.3 1.9 0.5 2.1 0.6 4.7-0.7 5.3-2.9 0.2-0.5 0.2-1.1 0.7-1.4 0.6-0.4 1.4-0.1 2.1 0.1 3.6 1.2 7.9-0.9 9.2-4.5 1.1 0.6 2.9 1.4 4.8 1 2.6-0.6 2.9-3 5.5-3.7 2.3-0.6 2.8 1.2 6.2 1.2 3.8 0.1 4.7-2 7.2-1.2 2.4 0.7 2.5 2.8 4.9 3.5 1.8 0.5 3.6-0.3 4.8-1 1.3 3.5 5.6 5.6 9.2 4.5 0.7-0.2 1.5-0.5 2.1-0.1 0.4 0.3 0.5 0.9 0.7 1.4 0.7 2.1 3.2 3.5 5.3 2.9 0.6-0.2 1.3-0.5 1.9-0.5 1.9 0 3.2 2.6 5.1 2.3 1.2-0.3 2-1.7 1.8-3z"/>
  </g>
  <g id="g222">
   <path id="path220" class="st16" d="m234.1 313.5c-0.1-1.3-1-2.3-1.8-3.3-5.1-5.7-12.2-9.2-19.5-11.6-6-1.7-12-3.3-18.1-5-0.7-0.3-2-0.7-3.6-0.7s-2.8 0.4-3.5 0.8c-6 1.7-12 3.5-17.9 5.2-7.3 2.4-14.4 5.8-19.5 11.6-0.8 0.9-1.6 2-1.8 3.3-0.1 1.3 0.6 2.7 1.9 2.9 1.9 0.2 3.2-2.4 5.1-2.3 0.7 0 1.3 0.3 1.9 0.5 2.1 0.6 4.7-0.7 5.3-2.9 0.2-0.5 0.2-1.1 0.7-1.4 0.6-0.4 1.4-0.1 2.1 0.1 3.6 1.2 7.9-0.9 9.2-4.5 1.1 0.6 2.9 1.4 4.8 1 2.6-0.6 2.9-3 5.5-3.7 2.3-0.6 2.8 1.2 6.2 1.2 3.8 0.1 4.7-2 7.2-1.2 2.4 0.7 2.5 2.8 4.9 3.5 1.8 0.5 3.6-0.3 4.8-1 1.3 3.5 5.6 5.6 9.2 4.5 0.7-0.2 1.5-0.5 2.1-0.1 0.4 0.3 0.5 0.9 0.7 1.4 0.7 2.1 3.2 3.5 5.3 2.9 0.6-0.2 1.3-0.5 1.9-0.5 1.9 0 3.2 2.6 5.1 2.3 1.2-0.3 2-1.7 1.8-3z"/>
  </g>
  <g id="g226">
   <path id="path224" class="st15" d="m230.2 363.4c-11.5-6.2-23.7-11.1-36.3-14.5-1.5-0.4-3-0.4-4.5 0-12.7 3.4-25.4 8.5-36.9 14.7-1.9 1-3.8 2.1-5.1 3.9 2.8 0.9 6.1-0.1 8-2.3 2.5 2.3 7.3 1.1 8.3-2.1 0.3 2.2 3.2 3.4 5.3 2.6s3.4-3 3.8-5.2c0.4 0.4 2.6 2.6 5.8 2.3 3.1-0.2 5.9-2.7 6.7-6.2 1.3 2.1 3.6 3.4 6.1 3.3 3.9-0.1 5.8-3.4 5.8-3.6 0.8 3.5 3.6 5.9 6.7 6.2 3.2 0.3 5.5-2 5.8-2.3 0.4 2.2 1.7 4.4 3.8 5.2s4.9-0.4 5.3-2.6c1 3.2 5.8 4.5 8.3 2.1 1.9 2.2 5.2 3.2 8 2.3-1.1-1.7-3-2.8-4.9-3.8z"/>
  </g>
  <g id="g230">
   <path id="path228" class="st15" d="m234.8 337.4c-15-11-40.2-16.9-40.2-16.9-0.7-0.2-1.6-0.4-2.7-0.3-1.5 0-2.6 0.4-2.9 0.6-2.8 1-29.4 9-40.2 16.9-1.3 0.9-2.8 2.2-2.6 3.3 0.3 1 1.5 1.6 2.5 1.4 1-0.1 1.9-0.8 2.7-1.5 0.3-0.3 0.7-0.7 1.1-0.7 0.5 0 0.8 0.4 1.2 0.8 1.2 1.1 3 1.2 4.4 0.7 1.5-0.5 2.7-1.7 3.6-2.9 0.2-0.3 0.5-0.6 0.9-0.7 0.6-0.1 1.1 0.6 1.5 1.1 1.3 1.4 3.6 1.3 5.2 0.3s2.7-2.6 4-4c0.2-0.3 0.5-0.5 0.8-0.6 0.5 0 0.8 0.4 1.1 0.8 1.5 1.8 4.2 2.5 6.4 1.7s3.8-3 3.9-5.4c0.2 0.2 2.5 3.3 6.5 3.1 3.6-0.2 5.5-3 5.8-3.3 0.1 2.3 1.7 4.6 3.9 5.4s4.9 0.1 6.4-1.7c0.3-0.4 0.7-0.8 1.1-0.8 0.3 0 0.6 0.3 0.8 0.6 1.2 1.4 2.4 3 4 4s4 1.1 5.2-0.3c0.4-0.5 0.9-1.2 1.5-1.1 0.4 0.1 0.6 0.4 0.9 0.7 1 1.3 2.1 2.4 3.6 2.9s3.3 0.4 4.4-0.7c0.4-0.3 0.7-0.8 1.2-0.8s0.8 0.3 1.1 0.7c0.7 0.7 1.6 1.4 2.7 1.5 1 0.1 2.2-0.4 2.5-1.4 0.5-1.2-1.2-2.6-2.3-3.4z"/>
  </g>
  <g id="g234">
   <path id="path232" class="st16" d="m234.8 339.4c-15-11-40.2-16.9-40.2-16.9-0.7-0.2-1.6-0.4-2.7-0.3-1.5 0-2.6 0.4-2.9 0.6-2.8 1-29.4 9-40.2 16.9-1.3 0.9-2.8 2.2-2.6 3.3 0.3 1 1.5 1.6 2.5 1.4 1-0.1 1.9-0.8 2.7-1.5 0.3-0.3 0.7-0.7 1.1-0.7 0.5 0 0.8 0.4 1.2 0.8 1.2 1.1 3 1.2 4.4 0.7 1.5-0.5 2.7-1.7 3.6-2.9 0.2-0.3 0.5-0.6 0.9-0.7 0.6-0.1 1.1 0.6 1.5 1.1 1.3 1.4 3.6 1.3 5.2 0.3s2.7-2.6 4-4c0.2-0.3 0.5-0.5 0.8-0.6 0.5 0 0.8 0.4 1.1 0.8 1.5 1.8 4.2 2.5 6.4 1.7s3.8-3 3.9-5.4c0.2 0.2 2.5 3.3 6.5 3.1 3.6-0.2 5.5-3 5.8-3.3 0.1 2.3 1.7 4.6 3.9 5.4s4.9 0.1 6.4-1.7c0.3-0.4 0.7-0.8 1.1-0.8 0.3 0 0.6 0.3 0.8 0.6 1.2 1.4 2.4 3 4 4s4 1.1 5.2-0.3c0.4-0.5 0.9-1.2 1.5-1.1 0.4 0.1 0.6 0.4 0.9 0.7 1 1.3 2.1 2.4 3.6 2.9s3.3 0.4 4.4-0.7c0.4-0.3 0.7-0.8 1.2-0.8s0.8 0.3 1.1 0.7c0.7 0.7 1.6 1.4 2.7 1.5 1 0.1 2.2-0.4 2.5-1.4 0.5-1.2-1.2-2.6-2.3-3.4z"/>
  </g>
  <g id="g238">
   <path id="path236" class="st16" d="m230.2 365.9c-11.5-6.2-23.7-11.1-36.3-14.5-1.5-0.4-3-0.4-4.5 0-12.7 3.4-25.4 8.5-36.9 14.7-1.9 1-3.8 2.1-5.1 3.9 2.8 0.9 6.1-0.1 8-2.3 2.5 2.3 7.3 1.1 8.3-2.1 0.3 2.2 3.2 3.4 5.3 2.6s3.4-3 3.8-5.2c0.4 0.4 2.6 2.6 5.8 2.3 3.1-0.2 5.9-2.7 6.7-6.2 1.3 2.1 3.6 3.4 6.1 3.3 3.9-0.1 5.8-3.4 5.8-3.6 0.8 3.5 3.6 5.9 6.7 6.2 3.2 0.3 5.5-2 5.8-2.3 0.4 2.2 1.7 4.4 3.8 5.2s4.9-0.4 5.3-2.6c1 3.2 5.8 4.5 8.3 2.1 1.9 2.2 5.2 3.2 8 2.3-1.1-1.7-3-2.8-4.9-3.8z"/>
  </g>
  <g id="g242">
   <path id="path240" class="st15" d="m219.5 404c-1.3-2.6-3.6-4.6-5.9-6.4-3.6-2.7-7.6-5.9-13.8-7.7-2-0.6-4.7-1.3-8.3-1.3-3.2 0.1-5.5 0.8-7.7 1.5-6.6 2.1-10.8 5.4-13.8 7.7-2.3 1.7-4.6 3.7-5.9 6.4s-1.4 6 0.5 8.3c0.4 0.5 0.9 0.9 1.5 0.9s1.1-0.5 1.4-1c0.9-1.5 0.9-3.5 0-5 0.6 1.3 2.6 1.2 3.5 0.1 0.6-0.8 0.8-1.8 0.7-2.9 0.5 0.9 1.8 1.5 2.9 1.2 1.5-0.5 2.3-2 2.7-3.5s0.4-3.1 1-4.5c0.3 1 1.5 1.6 2.6 1.4 1.1-0.1 2-0.8 2.7-1.5 1.3-1.2 2.2-2.8 2.8-4.5 0.1-0.2 0.1-0.4 0.3-0.5 0.4-0.3 1 0.1 1.2 0.3 1.8 1 6 0.8 7.8-0.2 0.2-0.1 0.9-0.5 1.2-0.3 0.1 0.1 0.2 0.3 0.3 0.5 0.6 1.7 1.5 3.2 2.8 4.5 0.8 0.8 1.7 1.4 2.7 1.5 1.1 0.1 2.3-0.4 2.6-1.4 0.5 1.4 0.6 3 1 4.5s1.2 3 2.7 3.5c1.1 0.4 2.4-0.2 2.9-1.2-0.1 1 0.1 2.1 0.7 2.9 0.9 1.1 2.9 1.2 3.5-0.1-0.9 1.5-0.9 3.5 0 5 0.3 0.5 0.8 1 1.4 1s1.1-0.4 1.5-0.9c1.9-2.3 1.8-5.7 0.5-8.3z"/>
  </g>
  <g id="g246">
   <path id="path244" class="st15" d="m237.8 377.6c-1.8 2.4-4.7 3.6-7.6 4s-5.9 0-8.8-0.5c-16.4-2.6-19.9-4.1-19.9-4.1-5.3-1.3-7.1-1.7-10.1-1.6-2.9 0.1-4.2 0.6-9.3 1.9-4 1-9.2 2.4-19.9 4.1-2.9 0.5-5.9 0.9-8.8 0.5s-5.8-1.7-7.6-4c-0.4 3.7 1.4 7.5 4.5 9.6s7.3 2.3 10.6 0.5c0.4-0.2 0.7-0.4 1.1-0.4 0.9 0 1.5 0.8 2.2 1.3 1.7 1.4 4.4 0.9 6.1-0.4s2.8-3.4 3.8-5.3c-0.6 2.1 2.2 3.8 4.3 3.1s3.3-2.8 4.3-4.7c0.8 1.9 3.8 2.5 5.3 1.1 0.7-0.7 0.6-1.6 1.6-2.3 1.1-0.8 2.8-0.8 4-0.2 1.3 0.7 1.1 1.7 2.1 2.3 0.8 0.5 2.4 0.6 5.3-1.1 1 1.9 2.2 4 4.3 4.7s4.9-1.1 4.3-3.1c1 2 2.1 4 3.8 5.3s4.4 1.8 6.1 0.4c0.7-0.5 1.3-1.4 2.2-1.3 0.4 0 0.8 0.2 1.1 0.4 3.3 1.7 7.5 1.5 10.6-0.5 3-2.2 4.8-6 4.4-9.7z"/>
  </g>
  <g id="g250">
   <path id="path248" class="st16" d="m219.5 406.5c-1.3-2.6-3.6-4.6-5.9-6.4-3.6-2.7-7.6-5.9-13.8-7.7-2-0.6-4.7-1.3-8.3-1.3-3.2 0.1-5.5 0.8-7.7 1.5-6.6 2.1-10.8 5.4-13.8 7.7-2.3 1.7-4.6 3.7-5.9 6.4s-1.4 6 0.5 8.3c0.4 0.5 0.9 0.9 1.5 0.9s1.1-0.5 1.4-1c0.9-1.5 0.9-3.5 0-5 0.6 1.3 2.6 1.2 3.5 0.1 0.6-0.8 0.8-1.8 0.7-2.9 0.5 0.9 1.8 1.5 2.9 1.2 1.5-0.5 2.3-2 2.7-3.5s0.4-3.1 1-4.5c0.3 1 1.5 1.6 2.6 1.4 1.1-0.1 2-0.8 2.7-1.5 1.3-1.2 2.2-2.8 2.8-4.5 0-0.1 0.1-0.4 0.3-0.5 0.4-0.1 0.8 1 1.4 1.7 1.5 1.6 5.5 1.6 7.3-0.2 0.6-0.6 1.1-1.4 1.5-1.3 0.3 0.1 0.3 0.6 0.4 1.2 0.4 1.4 1.4 2.3 2.6 3.3s1.9 1.4 2.7 1.5c1.1 0.1 2.3-0.4 2.6-1.4 0.5 1.4 0.6 3 1 4.5s1.2 3 2.7 3.5c1.1 0.4 2.4-0.2 2.9-1.2-0.1 1 0.1 2.1 0.7 2.9 0.9 1.1 2.9 1.2 3.5-0.1-0.9 1.5-0.9 3.5 0 5 0.3 0.5 0.8 1 1.4 1s1.1-0.4 1.5-0.9c2-2.2 1.9-5.6 0.6-8.2z"/>
  </g>
  <g id="g254">
   <path id="path252" class="st16" d="m237.8 379.6c-1.8 2.4-4.7 3.6-7.6 4s-5.9 0-8.8-0.5c-16.4-2.6-19.9-4.1-19.9-4.1-5.3-1.3-7.1-1.7-10.1-1.6-2.9 0.1-4.2 0.6-9.3 1.9-4 1-9.2 2.4-19.9 4.1-2.9 0.5-5.9 0.9-8.8 0.5s-5.8-1.7-7.6-4c-0.4 3.7 1.4 7.5 4.5 9.6s7.3 2.3 10.6 0.5c0.4-0.2 0.7-0.4 1.1-0.4 0.9 0 1.5 0.8 2.2 1.3 1.7 1.4 4.4 0.9 6.1-0.4s2.8-3.4 3.8-5.3c-0.6 2.1 2.2 3.8 4.3 3.1s3.3-2.8 4.3-4.7c0.8 1.9 3.8 2.5 5.3 1.1 0.7-0.7 0.6-1.6 1.6-2.3 1.1-0.8 2.8-0.8 4-0.2 1.3 0.7 1.1 1.7 2.1 2.3 0.8 0.5 2.4 0.6 5.3-1.1 1 1.9 2.2 4 4.3 4.7s4.9-1.1 4.3-3.1c1 2 2.1 4 3.8 5.3s4.4 1.8 6.1 0.4c0.7-0.5 1.3-1.4 2.2-1.3 0.4 0 0.8 0.2 1.1 0.4 3.3 1.7 7.5 1.5 10.6-0.5 3-2.2 4.8-6 4.4-9.7z"/>
  </g>
  <g id="g258">
   <path id="path256" class="st15" d="m225.2 282.9c-1.1-0.9-2.5-1-2.9-1-4.1-0.1-11.3-1.9-14.2-3-4.2-1.5-7.6-3.8-13.2-9.7-0.7-0.7-1.5-1.4-2.3-2.2-0.5-0.5-1.4-0.5-1.9 0-0.7 0.6-1.5 1.4-2.4 2.2-6.4 5.6-9.6 8.4-13.2 9.7-2.9 1.1-10.2 2.9-14.2 3-0.4 0-1.8 0.1-2.9 1-0.8 0.7-1.1 2.1-0.7 2.8 0.6 1 3.1 0.9 6-0.4 0.2 0.2 2.7 2.7 6.2 2.1 3.2-0.5 4.8-3.2 5-3.5 0.2 0.2 3.7 3.6 8.2 2.6 2.9-0.7 4.6-2.7 5-3.4 0.1 0.2 1.4 2 3.7 2.1 2.5 0.1 3.8-2 3.9-2.1 0.5 0.6 2.1 2.7 5 3.4 4.5 1 8-2.3 8.2-2.6 0.2 0.3 1.8 3 5 3.5 3.6 0.6 6-1.9 6.2-2.1 3 1.4 5.4 1.4 6 0.4 0.7-0.7 0.4-2.1-0.5-2.8z"/>
  </g>
  <g id="g262">
   <path id="path260" class="st16" d="m225.2 285.4c-1.1-0.9-2.5-1-2.9-1-4.1-0.1-11.3-1.9-14.2-3-4.2-1.5-7.6-3.8-13.2-9.7-0.7-0.7-1.5-1.4-2.3-2.2-0.5-0.5-1.4-0.5-1.9 0-0.7 0.6-1.5 1.4-2.4 2.2-6.4 5.6-9.6 8.4-13.2 9.7-2.9 1.1-10.2 2.9-14.2 3-0.4 0-1.8 0.1-2.9 1-0.8 0.7-1.1 2.1-0.7 2.8 0.6 1 3.1 0.9 6-0.4 0.2 0.2 2.7 2.7 6.2 2.1 3.2-0.5 4.8-3.2 5-3.5 1.7 2.4 4.5 3.5 7 2.8 2.7-0.7 3.9-3.1 4.1-3.5 0.2 0.3 2.4 3.1 6.1 3.1 3.8 0 5.9-2.8 6.1-3.1 0.1 0.2 1.3 3.1 4.4 3.7 2.4 0.5 5-0.7 6.4-3 0.2 0.3 1.8 3 5 3.5 3.6 0.6 6-1.9 6.2-2.1 3 1.4 5.4 1.4 6 0.4 0.6-0.7 0.3-2.1-0.6-2.8z"/>
  </g>
 </g>
 <g id="g278" class="swingingTree" transform="translate(-53.962 -67.628)">
  <g id="g268">
   <path id="path266" class="st18" d="m376.4 280.7c-2.6-0.4-11-1.6-19.2 1-18.1 5.9-28.3 28.5-28.5 47.1-0.1 5.9-0.3 20.2 10.7 31.7 7.9 8.3 19.6 12.9 31.1 12.2 19.9-1.2 31.4-16.3 33.2-18.7 14.7-20.5 10.1-52.3-6.5-65.1-8.3-6.3-19.5-8.1-20.8-8.2z"/>
  </g>
  <line id="line270" class="st19" x1="369.2" x2="369.2" y1="315.9" y2="403.9"/>
  <path id="path272" class="st19" d="m350.7 318.5c0.7 1.1 6 9.5 16.3 10.6 8.7 1 17.3-3.6 21.9-11.7"/>
  <path id="path274" class="st19" d="m345.3 340.1c0.9 1.4 7.8 12.2 20.9 13.6 11.1 1.2 22.3-4.7 28.2-15"/>
  <path id="path276" class="st20" d="m384.5 292c2.3 0.8 5.5 2.2 8.8 4.8 4.9 3.9 7.3 8.5 8.4 11.1"/>
 </g>
 <g id="g292" class="bearFace" transform="translate(-53.962 -67.628)">
  <g id="g284" class="bearBody">
   <path id="path280" class="st21" d="m441.2 386.4 1.6 15.4c0 2.2-1.8 4-4 4h-10.9c-2.2 0-4-1.8-4-4l2.4-21.3c0-2.2 2.4-5.3 5.3-5.3h3.5c3-0.1 5.5 3.3 5.5 5.5z"/>
   <path id="path282" class="st22" d="m434.2 375.2c2.4 0.8 4 3.7 4 5.4l0.6 5.7 1.6 15.5c0 2.2-1.8 4.1-4 4.1h2.5c2.2 0 4-1.9 4-4.1l-1.6-15.4-0.6-5.7c-0.1-2.2-2.8-6.1-6.5-5.5"/>
  </g>
  <g id="g290" class="bearEyes">
   <path id="path286" class="st23" d="m434.8 382.6c-0.3 0-0.5-0.2-0.5-0.5v-0.7c0-0.3 0.2-0.5 0.5-0.5s0.5 0.2 0.5 0.5v0.7c0 0.2-0.3 0.5-0.5 0.5z"/>
   <path id="path288" class="st23" d="m431 382.6c-0.3 0-0.5-0.2-0.5-0.5v-0.7c0-0.3 0.2-0.5 0.5-0.5s0.5 0.2 0.5 0.5v0.7c-0.1 0.2-0.3 0.5-0.5 0.5z"/>
  </g>
 </g>
 <g id="g308" class="bearNose" transform="translate(-53.962 -67.628)">
  <path id="path294" class="st24" d="m428.6 389.8c-0.9-1.6-0.4-3.5 1.2-4.4l1.1-0.6c1.6-0.9 3.5-0.4 4.4 1.2s0.4 3.5-1.2 4.4l-1.1 0.6c-1.5 0.8-3.5 0.3-4.4-1.2z"/>
  <path id="path296" class="st25" d="m428.6 389.3c-0.9-1.6-0.4-3.5 1.2-4.4l1.1-0.6c1.6-0.9 3.5-0.4 4.4 1.2s0.4 3.5-1.2 4.4l-1.1 0.6c-1.5 0.8-3.5 0.3-4.4-1.2z"/>
  <g id="g300">
   <path id="path298" class="st23" d="m428.7 385.6c0 0.1-0.1 0.3 0 0.5s0.3 0.3 0.6 0.3c1.1 0.1 1.8-0.6 2.2-0.3 0.5 0.3 0.3 2.2-0.9 2.9-0.5 0.3-0.9 0.3-1.2 0.3-0.2 0-0.6-0.1-0.9-0.4-0.8-0.7-0.5-1.9-0.5-2.2 0.2-0.6 0.5-0.9 0.7-1.1z"/>
  </g>
  <circle id="circle302" class="st24" cx="432.8" cy="385.6" r=".2"/>
  <circle id="circle304" class="st24" cx="434.4" cy="385.8" r=".2"/>
  <circle id="circle306" class="st24" cx="433.6" cy="386.8" r=".2"/>
 </g>
 <g id="g322" class="bearEars" transform="translate(-53.962 -67.628)">
  <g id="g314" class="bearEarLeft">
   <path id="path310" class="st25" d="m428 375.8-2-2.6c-0.3-0.4-0.9-0.4-1.2 0l-1.8 2c-0.4 0.5-0.2 1.2 0.4 1.3l3.8 0.7c0.8-0.1 1.3-0.9 0.8-1.4z"/>
   <path id="path312" class="st26" d="m425.1 375.5c0.1 0 1.1-0.3 1.9 0.4 0.4 0.4 0.6 0.9 0.6 1.1"/>
  </g>
  <g id="g320" class="bearEarRight">
   <path id="path316" class="st25" d="m439.3 376.1 2.6-2.1c0.4-0.3 1-0.2 1.2 0.2l1.3 2.3c0.3 0.5-0.1 1.2-0.7 1.2l-3.8-0.3c-0.8 0.1-1.1-0.8-0.6-1.3z"/>
   <path id="path318" class="st26" d="m442.2 376.9c-0.2-0.1-0.8-0.4-1.6-0.3-0.9 0.1-1.4 0.6-1.6 0.8"/>
  </g>
 </g>
 <g id="g328" class="bearBrows" transform="translate(-53.962 -67.628)">
  <path id="path324" class="st27 bearBrowLeft" d="m428.8 379.4c0.3-0.7 0.9-1.2 1.7-1.3 0.9-0.1 1.5 0.5 1.6 0.6"/>
  <path id="path326" class="st27 bearBrowRight" d="m436.8 380.2c-0.3-0.2-0.7-0.4-1.3-0.5-0.7-0.1-1.3 0-1.6 0.1"/>
 </g>
 <g id="g334" transform="translate(-53.962 -67.628)">
  <path id="path330" class="st28" d="m435.1 415.7c-5.1 1-12.1 1.9-20.4 1.3-7.1-0.5-13.1-2-17.6-3.5 0.1-2.4 0.3-4.8 0.4-7.2 0.6-9.4 8.6-16.6 18-16l1.7 0.1c10.6 0.6 18.7 9.8 18.1 20.4z"/>
  <path id="path332" class="st28" d="m420.1 414.2c-4.7-0.4-8.9-1.1-12.5-2-3-0.7-5-3.5-4.8-6.5l0.1-2.1c0.3-5.1 2.8-9.5 6.5-12.4-6.5 2.1-11.4 8-11.8 15.2-0.1 2.4-0.3 4.8-0.4 7.2 4.5 1.5 10.5 3 17.6 3.5 8.3 0.6 15.3-0.2 20.4-1.3l0.1-2c-4.3 0.6-9.5 0.8-15.2 0.4z"/>
 </g>
 <g id="g340" transform="translate(-53.962 -67.628)">
  <path id="path336" class="st29" d="m460.4 419.1c-4.6 0.6-10 0.9-16.1 0.6-7-0.3-13-1.4-17.9-2.6 0.8-13.5 12.4-23.8 25.9-23l1.4 0.1c9 0.5 15.9 8.3 15.4 17.3-0.3 4.5-4.2 7.9-8.7 7.6z"/>
  <line id="line338" class="st29" x1="458" x2="458" y1="400.8" y2="400.8"/>
 </g>
 <g id="g378" class="bearPaws" transform="translate(-53.962 -67.628)">
  <g id="g358" class="bearPawRight">
   <g id="g344">
    <path id="path342" class="st28" d="m441.7 397c0.2 0.4 1.3 2 3.3 2.6 0.4 0.1 2.5 0.7 4.2-0.5 1.6-1.1 2.6-3.5 1.8-4.7-0.5-0.7-1.5-0.9-2.9-1.1-0.8-0.1-2-0.3-3.4 0.2-2 0.6-3.1 2-3.5 2.6 0.2 0.3 0.3 0.6 0.5 0.9z"/>
   </g>
   <g id="g348">
    <path id="path346" class="st21" d="m441.7 396c0.2 0.4 1.3 2 3.3 2.6 0.4 0.1 2.5 0.7 4.2-0.5 1.6-1.1 2.6-3.5 1.8-4.7-0.5-0.7-1.5-0.9-2.9-1.1-0.8-0.1-2-0.3-3.4 0.2-2 0.6-3.1 2-3.5 2.6 0.2 0.3 0.3 0.6 0.5 0.9z"/>
   </g>
   <g id="g356">
    <path id="path350" class="st24" d="m444.7 399.1c-0.3 0-0.5-0.2-0.5-0.5v-0.7c0-0.3 0.2-0.5 0.5-0.5s0.5 0.2 0.5 0.5v0.7c0 0.3-0.2 0.5-0.5 0.5z"/>
    <path id="path352" class="st24" d="m446.7 399.1c-0.3 0-0.5-0.2-0.5-0.5v-0.7c0-0.3 0.2-0.5 0.5-0.5s0.5 0.2 0.5 0.5v0.7c0 0.3-0.2 0.5-0.5 0.5z"/>
    <path id="path354" class="st24" d="m448.8 399.1c-0.3 0-0.5-0.2-0.5-0.5v-0.7c0-0.3 0.2-0.5 0.5-0.5s0.5 0.2 0.5 0.5v0.7c-0.1 0.3-0.3 0.5-0.5 0.5z"/>
   </g>
  </g>
  <g id="g376" class="bearPawLeft">
   <g id="g362">
    <path id="path360" class="st30" d="m415.6 390.5c0 1.2 0.6 2.3 1.4 3.1s1.9 1.2 3 1.2c1.6 0.1 3.3-0.5 4.6-1.7 0.2-0.2 0.4-0.4 0.5-0.7 0.2-0.7-0.4-1.4-1.1-1.8-1.8-1-4-1.1-6-1.2-0.8 0-1.6 0-2.1 0.6z"/>
   </g>
   <g id="g366">
    <path id="path364" class="st21" d="m415.9 389.4c0 1.3 0.6 2.5 1.5 3.3s2.1 1.2 3.3 1.3c1.8 0.1 3.6-0.5 4.9-1.8 0.2-0.2 0.4-0.4 0.5-0.7 0.2-0.8-0.5-1.5-1.1-1.9-2-1.1-4.3-1.2-6.5-1.2-0.8 0-1.7 0-2.3 0.6z"/>
   </g>
   <g id="g374">
    <path id="path368" class="st24" d="m417.9 393.7c-0.3-0.1-0.4-0.3-0.4-0.6l0.2-0.7c0.1-0.3 0.3-0.4 0.6-0.4 0.3 0.1 0.4 0.3 0.4 0.6l-0.2 0.7c-0.1 0.3-0.4 0.5-0.6 0.4z"/>
    <path id="path370" class="st24" d="m419.8 394.2c-0.3-0.1-0.4-0.3-0.4-0.6l0.2-0.7c0.1-0.3 0.3-0.4 0.6-0.4 0.3 0.1 0.4 0.3 0.4 0.6l-0.2 0.7c-0.1 0.2-0.3 0.4-0.6 0.4z"/>
    <path id="path372" class="st24" d="m421.8 394.6c-0.3-0.1-0.4-0.3-0.4-0.6l0.2-0.7c0.1-0.3 0.3-0.4 0.6-0.4 0.3 0.1 0.4 0.3 0.4 0.6l-0.2 0.7c-0.1 0.3-0.3 0.4-0.6 0.4z"/>
   </g>
  </g>
 </g>
 <g id="g384" transform="translate(-53.962 -67.628)">
  <path id="path380" class="st5" d="m338 421.5c-3.8 0.5-8.3 0.7-13.4 0.5-5.8-0.3-10.8-1.2-14.9-2.2 0.7-11.2 10.3-19.8 21.5-19.1l1.1 0.1c7.5 0.4 13.2 6.9 12.8 14.4-0.2 3.7-3.4 6.5-7.1 6.3z"/>
  <line id="line382" class="st32" x1="335.9" x2="335.9" y1="406.3" y2="406.3"/>
 </g>
 <g id="g390" transform="translate(-53.962 -67.628)">
  <path id="path386" class="st4" d="m320.6 430.9c-7.8 1.6-18.6 2.9-31.4 2-11-0.8-20.2-3.1-27.2-5.4 0.2-3.7 0.4-7.4 0.7-11.1 0.9-14.5 13.3-25.6 27.8-24.7l2.6 0.2c16.4 1 28.9 15.1 28 31.5z"/>
  <path id="path388" class="st32" d="m298.6 400.5c1.5 0.3 5.1 1.4 8.4 4.7 3.3 3.4 4.3 7.1 4.6 8.6"/>
 </g>
 <g id="g396" class="grass" transform="translate(-53.962 -67.628)">
  <path id="path392" class="st31" d="m282.9 536.4c-0.4 1.2-2.8 3.5-7.6 8.1-0.2 0.2-0.6 0.5-1 0.6-0.9 0.3-1.3-0.4-1.4-0.9-0.2-1.8 0.2-3.8 1.3-5.8-1.6 0.4-2.9 1.7-4.2 2.6-1.3 1-3.5 1.8-4.3 1.1-0.7-0.6 0.3-1.8 1.3-2.7s2.4-1.8 2.7-2.7c-3 0.5-5.8 0.7-8.4 0.4-1.5-0.2-3-1-1.9-2.2 0.5-0.5 1.3-0.8 1.7-1 9.6-3.3 10.6-4.8 14.1-4.8 5.2 0 8.9 3.2 7.7 7.3z"/>
  <path id="path394" class="st33" d="m268.4 532c-1-1-1.7-3.7-3.1-9.1 0-0.2-0.1-0.6 0.1-0.9 0.4-0.6 1.3-0.4 2-0.1 2 1.1 3.8 2.6 5.2 4.4 0.7-1.1 0.3-2.5 0.2-3.8s0.6-3 1.9-2.9c1.1 0.1 1.7 1.3 1.9 2.4s0.2 2.3 1 3.1c1.5-1.8 3.4-3.4 5.6-4.5 1.2-0.6 3.2-0.9 3.6 0.5 0.2 0.6 0 1.2-0.2 1.5-3.3 7-2.4 8.5-5 10.3-3.7 2.6-9.8 2.4-13.2-0.9z"/>
 </g>
 <g id="g400" class="grass" transform="translate(-53.962 -67.628)">
  <path id="path398" class="st33" d="m421.1 418.9c-2.3-1.9-2.8-4.8-2.9-5.6-0.1-0.7-0.2-2 0.3-2.4 1-0.9 2.6 0.3 3.2 1.6s1.1 2.9 2.5 3.1c-0.5-2.2-0.6-4.5-0.2-6.7 0.2-0.9 0.4-1.8 1-2.5s1.7-0.9 2.4-0.4c0.6 0.5 0.8 1.3 0.9 2l0.9 6.3c1.2-1.5 2.8-2.7 4.5-3.4 0.5-0.2 1.3-0.4 1.6 0.1 0.3 0.4 0 1-0.2 1.3-1.8 3.8-2.6 5.8-3.2 6.2-2.7 2.5-7.7 2.9-10.8 0.4z"/>
 </g>
 <g id="g404" class="grass" transform="translate(-53.962 -67.628)">
  <path id="path402" class="st4" d="m439.1 458.9c-2.3-1.9-2.8-4.8-2.9-5.6-0.1-0.7-0.2-2 0.3-2.4 1-0.9 2.6 0.3 3.2 1.6s1.1 2.9 2.5 3.1c-0.5-2.2-0.6-4.5-0.2-6.7 0.2-0.9 0.4-1.8 1-2.5s1.7-0.9 2.4-0.4c0.6 0.5 0.8 1.3 0.9 2l0.9 6.3c1.2-1.5 2.8-2.7 4.5-3.4 0.5-0.2 1.3-0.4 1.6 0.1 0.3 0.4 0 1-0.2 1.3-1.8 3.8-2.6 5.8-3.2 6.2-2.7 2.5-7.7 2.9-10.8 0.4z"/>
 </g>
 <g id="g408" class="grass" transform="translate(-53.962 -67.628)">
  <path id="path406" class="st33" d="m352.1 404.9c-2.3-1.9-2.8-4.8-2.9-5.6-0.1-0.7-0.2-2 0.3-2.4 1-0.9 2.6 0.3 3.2 1.6s1.1 2.9 2.5 3.1c-0.5-2.2-0.6-4.5-0.2-6.7 0.2-0.9 0.4-1.8 1-2.5s1.7-0.9 2.4-0.4c0.6 0.5 0.8 1.3 0.9 2l0.9 6.3c1.2-1.5 2.8-2.7 4.5-3.4 0.5-0.2 1.3-0.4 1.6 0.1 0.3 0.4 0 1-0.2 1.3-1.8 3.8-2.6 5.8-3.2 6.2-2.7 2.5-7.7 2.9-10.8 0.4z"/>
 </g>
 <g id="g412" class="grass" transform="translate(-53.962 -67.628)">
  <path id="path410" class="st33" d="m366.4 409c-1-1-1.7-3.7-3.1-9.1 0-0.2-0.1-0.6 0.1-0.9 0.4-0.6 1.3-0.4 2-0.1 2 1.1 3.8 2.6 5.2 4.4 0.7-1.1 0.3-2.5 0.2-3.8s0.6-3 1.9-2.9c1.1 0.1 1.7 1.3 1.9 2.4s0.2 2.3 1 3.1c1.5-1.8 3.4-3.4 5.6-4.5 1.2-0.6 3.2-0.9 3.6 0.5 0.2 0.6 0 1.2-0.2 1.5-3.3 7-2.4 8.5-5 10.3-3.7 2.6-9.8 2.4-13.2-0.9z"/>
 </g>
 <polyline id="polyline414" class="st31" transform="translate(-53.962 -67.628)" points="233.8 471.8 113.2 426.9 177.7 412.9"/>
 <path id="path416" class="st34" d="m179.84 404.17 61.8-35.7s-3.9-58-61.7-71.3z"/>
 <path id="path418" class="st35" d="m179.84 297.17c-8.2 0.6-23.5 3-39.1 13.1-13.5 8.8-20.8 19.3-22.8 22.3-7.8 11.7-10.6 23-11.7 29.4l73.6 42.2z"/>
 <path id="path420" class="st23" d="m194.54 357.77c-0.3-6 1.5-16.5 8.6-18.7 4.6-1.4 9.7 1.2 12.5 4l10.6 34.3-22.8 13.1z"/>
 <polygon id="polygon422" class="st35" transform="translate(-53.962 -67.628)" points="241.2 461 281.9 407.1 247.3 382.6"/>
 <line id="line424" class="st36" x1="153.24" x2="111.84" y1="341.97" y2="395.47"/>
 <radialGradient id="SVGID_5_" cx="296.95" cy="495.08" r="26.96" gradientTransform="matrix(-.015773 .9999 -1.9155 -.030218 1196 145.5)" gradientUnits="userSpaceOnUse">
  <stop id="stop426" stop-color="#F1F793" offset="0"/>
  <stop id="stop428" stop-color="#EBF494" offset=".1188"/>
  <stop id="stop430" stop-color="#DBED98" offset=".2714"/>
  <stop id="stop432" stop-color="#C1E09D" offset=".4423"/>
  <stop id="stop434" stop-color="#9CCEA5" offset=".6266"/>
  <stop id="stop436" stop-color="#6EB8AE" offset=".8195"/>
  <stop id="stop438" stop-color="#3BA0B9" offset="1"/>
 </radialGradient>
 <ellipse id="ellipse441" class="st37 fireLight" cx="242.94" cy="427.47" rx="64.2" ry="27.1" fill="url(#SVGID_5_)"/>
 <g id="g449" transform="translate(-53.962 -67.628)">
  <ellipse id="ellipse443" class="st31 shadowTrunk2" transform="matrix(.1934 -.9811 .9811 .1934 -233.63 757.55)" cx="343.9" cy="520.9" rx="3" ry="19.1"/>
  <path id="path445" class="st21" d="m336.9 499.4c-2.8 0-5 0.8-6.1 1.4-0.1 0.9-0.2 1.9-0.3 2.8l-4.8-2c-0.3-0.1-0.6 0.3-0.4 0.6l1.1 1.2-1.1 0.5c-0.1 0-0.1 0.2 0 0.2l1.8 0.1 3 3.4c-0.4 3.7-0.8 7.5-1.1 11.2 2.1 0.3 4.4 0.5 7 0.5 2.7 0 5.2-0.2 7.2-0.5v-18.1c-1-0.5-3.4-1.3-6.3-1.3z"/>
  <ellipse id="ellipse447" class="st38" cx="337.1" cy="500.7" rx="6.3" ry="1.2"/>
 </g>
 <line id="line451" class="st39" x1="255.94" x2="233.94" y1="408.47" y2="396.47"/>
 <polyline id="polyline453" class="st39" transform="translate(-53.962 -67.628)" points="280.5 493 287.9 464.1 299.1 482.3"/>
 <path id="path455" class="st38" d="m253.14 422.77-14.5 8-2.9-3.7-0.1-0.2 14.5-8c0.3-0.1 1.1-0.1 1.8 0.3 1.1 0.6 1.6 2.1 1.2 3.6z"/>
 <g id="g459" transform="translate(-53.962 -67.628)">
  <path id="path457" class="st40" d="m291.6 494.9c0.4 0.5 0.7 0.9 0.8 1.2 0 0 0.3 0.7 0.4 1.5 0 0.2 0 0.4-0.1 0.5 0 0 0 0.1-0.1 0.1-0.1 0.3-0.5 0.4-0.7 0.4-0.3 0-0.6-0.1-0.9-0.2-0.8-0.4-1.6-1-1.8-1.9-0.1-0.3-0.1-0.7 0-1 0-0.4 0.1-0.9 0.5-1.1 0.2-0.1 0.3-0.1 0.5-0.1 0.7 0.1 1.2 0.4 1.4 0.6z"/>
 </g>
 <path id="path461" class="st41 fireRight" d="m249.84 425.47c-1.3 0-2.3-1-2.3-2.3v-5.5c0-1.3 1-2.3 2.3-2.3s2.3 1 2.3 2.3v5.5c0 1.3-1 2.3-2.3 2.3z"/>
 <path id="path463" class="st38" d="m235.44 422.77 14.5 8 2.9-3.7 0.1-0.2-14.5-8c-0.3-0.1-1.1-0.1-1.8 0.3-1.1 0.6-1.6 2.1-1.2 3.6z"/>
 <path id="path465" class="st42 fireMiddle" d="m245.34 423.57c-1.3 0-2.3-1-2.3-2.3v-9.1c0-1.3 1-2.3 2.3-2.3s2.3 1 2.3 2.3v9.1c0 1.3-1.1 2.3-2.3 2.3z"/>
 <path id="path467" class="st43 fireLeft" d="m240.64 425.57c-1.3 0-2.3-1-2.3-2.3v-7.1c0-1.3 1-2.3 2.3-2.3s2.3 1 2.3 2.3v7.1c0 1.3-1 2.3-2.3 2.3z"/>
 <g id="g471" transform="translate(-53.962 -67.628)">
  <path id="path469" class="st38" d="m304.9 494.9c-0.4 0.5-0.7 0.9-0.8 1.2 0 0-0.3 0.7-0.4 1.5 0 0.2 0 0.4 0.1 0.5 0 0 0 0.1 0.1 0.1 0.1 0.3 0.5 0.4 0.7 0.4 0.3 0 0.6-0.1 0.9-0.2 0.8-0.4 1.6-1 1.8-1.9 0.1-0.3 0.1-0.7 0-1 0-0.4-0.1-0.9-0.5-1.1-0.2-0.1-0.3-0.1-0.5-0.1-0.7 0.1-1.2 0.4-1.4 0.6z"/>
 </g>
 <polyline id="polyline473" class="st39" transform="translate(-53.962 -67.628)" points="302.5 505 309.9 476.1 321.1 494.3"/>
 <ellipse id="ellipse475" class="st31 shadowTrunk1" cx="181.54" cy="433.17" rx="18.2" ry="2.3"/>
 <g id="g481" transform="translate(-53.962 -67.628)">
  <path id="path477" class="st21" d="m252 500.1c-0.9 0.6-3.2 1.8-6.3 1.8s-5.3-1.2-6.2-1.8v-12.3h12.5z"/>
  <ellipse id="ellipse479" class="st38" cx="245.7" cy="487.8" rx="6.3" ry="1.2"/>
 </g>
 <path id="path483" class="st31" d="m325.74 409.57c0 5.1-8.9 10.2-16.5 11.1-5.1 0.6-9.2-0.7-12-1.8-17.2-6.7-34.1-25.1-30.7-30.5 2.8-4.4 18.1 1 33.8 6.5 13.7 4.8 25.4 8.9 25.4 14.7z"/>
 <path id="path485" class="st21" d="m262.64 398.87 36.8 21.1 10.1-12.9 0.3-0.6-36.9-21.1c-1.2-0.2-3.8-0.5-6.3 1-3.7 2.2-5.4 7.3-4 12.5z"/>
 <g id="g491" transform="translate(-53.962 -67.628)">
  <polygon id="polygon487" class="st44" points="341.2 499.1 334.7 493.9 332.3 496.5 335.3 500.9 338.2 500.9"/>
  <line id="line489" class="st45" x1="333" x2="344.8" y1="496.2" y2="482.7"/>
 </g>
 <g id="g517" transform="translate(-53.962 -67.628)">
  <defs id="defs494">
   <path id="SVGID_6_" d="m316.6 466.5 36.8 21.1 10.1-12.9 0.3-0.6-36.9-21.1c-1.2-0.2-3.8-0.5-6.3 1-3.7 2.2-5.4 7.3-4 12.5z"/>
  </defs>
  <clipPath id="SVGID_7_">
   <use id="use496" width="100%" height="100%" xlink:href="#SVGID_6_"/>
  </clipPath>
  <path id="path499" class="st46" d="m347.2 460.7c-0.1 0.2-2 2.9-0.9 5.9 1.3 3.2 4.9 3.7 5.6 3.7 3.8 0.4 6.3-2.4 6.6-2.7" clip-path="url(#SVGID_7_)"/>
  <path id="path501" class="st46" d="m341 458.6c-0.4 0.8-1.6 3.7-0.6 6.9 0.8 2.5 2.6 3.9 3.7 4.7 1.9 1.5 3.8 2 4.7 2.3s2.9 0.8 5.4 0.4c3.1-0.4 5.3-1.9 6.3-2.7" clip-path="url(#SVGID_7_)"/>
  <path id="path503" class="st46" d="m335.2 456.7c0.5 2.5 0.9 4.5 1.1 5.9 0.4 2.2 0.5 3 1 4.2 0.8 1.6 1.8 2.6 2.9 3.7 1 1 2.6 2.6 5 3.6 0.6 0.3 0.6 0.2 4.6 1.3 2.9 0.8 3.3 0.9 3.6 1 1.8 0.4 5 0 10.6-5.2" clip-path="url(#SVGID_7_)"/>
  <path id="path505" class="st46" d="m316.3 457.3c0.9 1.3 2.4 3.2 4.8 4.5 2.4 1.4 3.5 1 5.5 2.4 2.6 1.8 2.2 3.5 4.4 5.9 0.3 0.3 0.5 0.4 0.6 0.6 2.9 2.7 6 4.1 7.4 4.8 4.1 2 7.6 3.6 11 5.8 2.2 1.4 3.9 2.7 4.9 3.6" clip-path="url(#SVGID_7_)"/>
  <path id="path507" class="st46" d="m319.7 453c0.2 0.3 2 2 4.7 1.9 2.9-0.2 4.4-2.3 4.6-2.6" clip-path="url(#SVGID_7_)"/>
  <path id="path509" class="st46" d="m318.3 451.8c0.1 0.4 1.2 5 5.1 6.2 2.6 0.9 5.1-0.2 6.5-0.9 2-0.9 3.4-2.2 4.2-3" clip-path="url(#SVGID_7_)"/>
  <path id="path511" class="st46" d="m312.2 461.1c5.5 1 8.8 3.1 10.9 4.9 2.2 2 2.7 3.2 5.1 5.5 3.6 3.4 6.9 4.6 10.9 6.4 3.7 1.7 8.8 4.5 14.9 8.9" clip-path="url(#SVGID_7_)"/>
  <path id="path513" class="st46" d="m316.8 453.7c1.2 2.2 2 3.3 3 4.1 1.3 1.1 2.6 1.5 3.3 1.8 2.7 0.9 6.5 2.6 10 5.9 2.4 2.3 3.6 4.3 4.4 5.4 2.5 3.5 7.7 7.5 19.6 9.4" clip-path="url(#SVGID_7_)"/>
  <path id="path515" class="st46" d="m334.7 453.6c0.1 0.3 0.5 3.4-1.8 5.8-1.7 1.7-4.3 2.3-6.7 1.6" clip-path="url(#SVGID_7_)"/>
 </g>
 <g id="g521" transform="translate(-53.962 -67.628)">
  <path id="path519" class="st38" d="m356.9 475.3c-1.5 1.6-2.4 3.1-2.9 4.2 0 0-1.2 2.4-1.5 5.3-0.1 0.9 0 1.4 0.2 1.9 0.1 0.2 0.1 0.3 0.2 0.4 0.5 0.9 1.6 1.4 2.6 1.5 1 0 2.1-0.3 3-0.7 2.8-1.2 5.6-3.5 6.3-6.6 0.3-1.2 0.3-2.4 0.2-3.6s-0.4-3.1-1.8-3.8c-0.6-0.3-1.2-0.3-1.8-0.3-2.1 0-3.7 1-4.5 1.7z"/>
 </g>
 <path id="path523" class="st47" d="m306.84 412.87c0 0.1-0.3 1.1-1.1 1.4-0.4 0.2-1.1 0.2-1.3-0.1-0.2-0.4 0.6-1.4 1.2-1.8 0.5-0.4 1.2-1 1.8-0.8 0.7 0.3 0.7 1.7 0.4 2.7-0.4 1.3-1.5 1.9-1.9 2.1-0.2 0.1-2.2 1.1-3.1 0.3s-0.5-2.8 0.2-4.1c1.2-2.1 4.2-3.4 5.6-2.4 1 0.7 1 2.2 1 2.9 0 2.2-1.3 3.6-1.6 3.9-0.7 0.7-1.4 1-2.5 1.4-1.8 0.7-3.4 1.4-4.4 0.7-0.7-0.6-0.7-1.7-0.7-3.2 0-0.9 0.1-2.6 1.2-4.4 1-1.5 2.2-2.2 3.5-2.9 1.1-0.6 1.8-0.9 2.5-0.8s1.2 0.4 1.4 0.6c1.3 1.1 1.5 3.7 0.3 6.3"/>
 <g id="g539" transform="translate(-53.962 -67.628)">
  <defs id="defs526">
   <path id="SVGID_8_" d="m343.3 518.9c-2.1 0.3-4.6 0.5-7.3 0.5-2.6 0-5-0.2-7.1-0.5 0.6-6 1.2-12.1 1.9-18.1 1.2-0.5 3.3-1.4 6.2-1.4s5.2 0.8 6.3 1.4v18.1z"/>
  </defs>
  <clipPath id="SVGID_9_">
   <use id="use528" width="100%" height="100%" xlink:href="#SVGID_8_"/>
  </clipPath>
  <path id="path531" class="st48" d="m330.1 522.8c0.9-1.2 1.9-3.1 1.9-5.5 0-2-0.7-3.1-0.9-4.8-0.3-1.9-0.1-4.6 2.3-8.4" clip-path="url(#SVGID_9_)"/>
  <path id="path533" class="st48" d="m333.5 523.4c0.7-1.4 1.8-3.9 1.9-7.2 0-1.2-0.3-2.1-0.6-4.4-0.2-1.9-0.2-3.5-0.2-4.5" clip-path="url(#SVGID_9_)"/>
  <path id="path535" class="st48" d="m339.3 523.6c0.1-3.4 0-6.2-0.2-8.1-0.2-2.6-0.4-3.3-0.2-5.1 0.2-1.3 0.5-2.5 0.5-4.6 0-0.9 0-1.6-0.1-2.1" clip-path="url(#SVGID_9_)"/>
  <path id="path537" class="st48" d="m341.3 523.3c0-2.7 0.1-4.9 0.2-6.4 0.2-2.3 0.4-3 0.2-4.6-0.1-1.5-0.4-2.3-0.3-3.8 0-1.3 0.3-2.4 0.4-3.1" clip-path="url(#SVGID_9_)"/>
 </g>
 <g id="g545" class="fireParticle fireParticleCross1" transform="translate(-53.962 -67.628)">
  <line id="line541" class="st49" x1="307" x2="302" y1="463.4" y2="469.2"/>
  <line id="line543" class="st49" x1="307.4" x2="301.6" y1="468.8" y2="463.8"/>
 </g>
 <g id="g551" class="fireParticle fireParticleCross2" transform="translate(-53.962 -67.628)">
  <line id="line547" class="st50" x1="294" x2="289" y1="420.4" y2="426.2"/>
  <line id="line549" class="st50" x1="294.4" x2="288.6" y1="425.8" y2="420.8"/>
 </g>
 <rect id="rect553" class="st51 fireParticle fireParticleSquare1" transform="rotate(45)" x="436.83" y="80.217" width="4.7" height="4.7" stroke-width=".99999"/>
 <rect id="rect555" class="st43 fireParticle fireParticleSquare2" transform="rotate(45)" x="435.99" y="98.135" width="4.7" height="4.7" stroke-width=".99999"/>
 <rect id="rect557" class="st51 fireParticle fireParticleSquare3" transform="rotate(45)" x="457.84" y="114.34" width="2.3" height="2.3" stroke-width=".99999"/>
 <rect id="rect559" class="st43 fireParticle fireParticleSquare4" transform="rotate(45)" x="467.24" y="112.97" width="2.3" height="2.3" stroke-width=".99999"/>
 <g id="g577" transform="translate(-53.962 -67.628)">
  <defs id="defs562">
   <path id="SVGID_10_" d="m252 500.1c-0.9 0.6-3.2 1.8-6.3 1.8s-5.3-1.2-6.2-1.8v-12.3h12.5z"/>
  </defs>
  <clipPath id="SVGID_11_">
   <use id="use564" width="100%" height="100%" xlink:href="#SVGID_10_"/>
  </clipPath>
  <path id="path567" class="st52" d="m237.3 496.5c0.3 0 2.5-0.3 4 1.2 1 1 1.1 2.3 1.2 3.1 0.1 1.4-0.2 2.6-0.4 3.2" clip-path="url(#SVGID_11_)"/>
  <path id="path569" class="st52" d="m238.1 493.4c0.9 0.1 2.7 0.4 4.5 1.7 0.6 0.4 1.6 1.2 2.4 2.7 1.3 2.6 0.5 5.1 0.2 5.8" clip-path="url(#SVGID_11_)"/>
  <path id="path571" class="st52" d="m237.9 490.5c2 0.4 3.5 0.9 4.6 1.4 1.7 0.7 3.1 1.3 4.5 2.8 1.1 1.2 1.7 2.4 2.1 3.3 0.5 1.2 1.3 3.5 1.2 6.6" clip-path="url(#SVGID_11_)"/>
  <path id="path573" class="st52" d="m243.9 485.1c1.1 2.2 2.5 4.5 4.3 6.8 1.3 1.7 2 2.3 2.8 3.6 1.1 1.8 2 4.4 1.8 8.1" clip-path="url(#SVGID_11_)"/>
  <path id="path575" class="st52" d="m248.9 485.3c0.6 1.8 1.3 3.6 2 5.5l1.8 4.5" clip-path="url(#SVGID_11_)"/>
 </g>
 <ellipse id="ellipse579" class="st38" cx="191.74" cy="420.17" rx="6.3" ry="1.2"/>
 <g id="g593" class="swingingTree" transform="translate(-53.962 -67.628)">
  <g id="g583">
   <path id="path581" class="st18" d="m162.2 344.1c-11.4-1.1-19.6 5.4-21.7 7.1-11.7 9.6-11.8 24.1-11.8 26.7 0 4.3-0.2 14.2 7.5 22.3 5.6 5.9 13.8 9.1 21.9 8.6 13-0.8 20.7-9.9 22.5-12.1 7-8.6 7.5-17.9 7.6-20.6 0.1-2.4 0.1-17.1-11.4-26.1-2-1.6-7.1-5.2-14.6-5.9z"/>
  </g>
  <line id="line585" class="st19" x1="157.2" x2="157.2" y1="368.9" y2="434.9"/>
  <path id="path587" class="st19" d="m144.2 370.7c0.5 0.8 4.2 6.6 11.4 7.4 6.1 0.7 12.2-2.5 15.4-8.2"/>
  <path id="path589" class="st19" d="m140.3 385.8c0.6 1 5.5 8.5 14.7 9.6 7.8 0.9 15.6-3.3 19.8-10.5"/>
  <path id="path591" class="st20" d="m163.3 351c1.5 0.2 4.5 0.8 7.4 3 2.3 1.7 3.6 3.6 4.3 4.8"/>
 </g>
 <g id="g607" class="swingingTree" transform="translate(-53.962 -67.628)">
  <g id="g597">
   <path id="path595" class="st18" d="m485.2 327.1c-2.1-0.4-7.4-1.4-13.5 0.7-13.7 4.7-19.9 20.9-20 33.1 0 4.1-0.2 14.2 7.5 22.3 5.6 5.9 13.8 9.1 21.9 8.6 13.3-0.8 21.2-10.3 23.3-13.2 9.6-13.1 5.3-28 4.9-29.3-3.7-11.5-13.5-20-24.1-22.2z"/>
  </g>
  <line id="line599" class="st19" x1="480.2" x2="480.2" y1="351.9" y2="417.9"/>
  <path id="path601" class="st19" d="m467.2 353.7c0.5 0.8 4.2 6.6 11.4 7.4 6.1 0.7 12.2-2.5 15.4-8.2"/>
  <path id="path603" class="st19" d="m463.3 368.8c0.6 1 5.5 8.5 14.7 9.6 7.8 0.9 15.6-3.3 19.8-10.5"/>
  <path id="path605" class="st20" d="m488.7 335.7c1.3 0.2 4.4 0.9 7.3 3.4 2.6 2.2 3.7 4.8 4.1 6.1"/>
 </g>
 <path id="path609" class="st23" d="m207.64 391.27c0-1.4-1.2-2.6-2.6-2.6s-2.6 1.2-2.6 2.6c0 0.7 0.3 1.3 0.7 1.8-0.4 0.5-0.7 1.1-0.7 1.8v0.4c-1.1 0.3-1.9 1.3-1.9 2.5 0 1.4 1.2 2.6 2.6 2.6s2.6-1.2 2.6-2.6v-0.4c1.1-0.3 1.9-1.3 1.9-2.5 0-0.7-0.3-1.3-0.7-1.8 0.5-0.5 0.7-1.1 0.7-1.8z"/>
 <path id="path611" class="st53 blueArm" d="m193.74 397.27c1 1.4 3.6 4.6 8.1 6.6 5.1 2.2 9.6 1.5 11.3 1.1"/>
 <path id="path613" class="st54" d="m279.34 376.27-5.8 1.4c-0.9 0.2-1.3 1.3-0.7 2.1l1.1 1.4c3-0.6 5.2-2.1 5.5-3.9 0-0.3 0-0.6-0.1-1z"/>
 <path id="path615" class="st38" d="m292.34 399.77c1.2-0.6 2.1-1.2 2.8-1.6l-7.6-4.4c-0.7 0.2-1.3 0.5-2 0.8-1.8 0.9-3.3 2.2-4.4 3.9-0.5 0.8-1 1.8-0.6 2.7 0.1 0.3 0.5 0.8 1.8 1.2 3.4 0.9 7-1 10-2.6z"/>
 <path id="path617" class="st55" d="m275.94 380.97c-0.7 0.8-2.1 2.8-2.5 5.7-0.5 3.6 0.8 6.3 1.3 7.2"/>
 <g id="g621" transform="translate(-53.962 -67.628)">
  <path id="path619" class="st43" d="m344.2 463.1c0.3-5.5-0.9-9.5-1.8-11.7-1.4-3.4-3-5.1-3.6-5.7-1.6-1.6-3.7-2.8-6-3-1.4-0.1-2.9 0.3-3.9 1.3-1.6 1.9-0.8 4.7-0.1 7.1 1 3.1 1.6 6.5 0.5 9.6-0.2 0.6-0.5 1.2-0.6 1.9-0.5 2.6 2.1 5.1 4.2 6.3 0.7 0.4 2.9 1.6 5.6 1 2.9-0.9 5.1-3.5 5.7-6.8z"/>
 </g>
 <path id="path623" class="st56" d="m278.94 394.27c-3.7 0.6-6.1 2-7.6 2.9-1.2 0.8-2 1.3-2.4 2.3-1.6 3.3 2.3 7.9 2.6 8.2"/>
 <g id="g627" transform="translate(-53.962 -67.628)">
  <path id="path625" class="st42" d="m343.5 454.6c0-0.1-0.1-0.1-0.1-0.2v-0.3c-0.3-1.1-0.6-2.1-0.9-2.8-0.5-1.1-0.9-2-1.4-2.8l-0.4-0.4c0-0.2-0.2-0.5-0.4-0.9-0.2-0.3-0.4-0.5-0.5-0.7-0.2-0.2-0.4-0.4-0.7-0.5-0.9-0.5-1.8-0.4-1.9-0.4-0.2 0-0.5 0.1-0.5 0.1h-0.1c-0.4 0.2-0.7 0.5-1.7 1.3-2.5 1.9-5.1 1.5-6.4 2 0.2 0.7 0.4 1.3 0.5 1.9 1 3.1 1.6 6.5 0.5 9.6 0 0.1 0 0.1-0.1 0.2 0.1 0.2 0.2 0.4 0.3 0.5 0.9 1.2 2.4 1.9 3.9 2.1 0.1 0 0.3 0 0.5 0.1 1.8 0.2 3.2-0.1 4-0.3 3.7-0.8 5.5-1.2 6.2-2.3 0-0.1 0.1-0.1 0.1-0.2-0.2-2.3-0.5-4.3-0.9-6z"/>
 </g>
 <g id="g631" transform="translate(-53.962 -67.628)">
  <path id="path629" class="st54" d="m327.5 447.8c-0.3 0.8 0.5 1 1.3 3.1s0.4 4.6 0.4 4.8c-0.1 0.7-0.4 1.6 0 2.8 0 0.1 0.1 0.5 0.4 0.9 0.9 1.2 2.4 1.9 3.9 2.1 0.1 0 0.3 0 0.5 0.1 1.8 0.2 3.2-0.1 4-0.3 3.7-0.8 5.5-1.2 6.2-2.3 0.9-1.4 0.6-3 0.6-3.5-0.2-1.5-1-2.5-1.4-2.9 0.1-0.7 0.1-2.2-0.8-3.9-0.6-1.3-1.5-2-2-2.5-0.3-0.9-0.7-1.6-1-2-0.4-0.5-1.4-1.8-2.9-1.9-0.6-0.1-1.1 0.1-1.3 0.2 0 0.3-0.1 0.7-0.2 1.2-0.2 0.9-0.3 1.3-0.3 1.5-0.8 1.7-6.8 0.7-7.4 2.6z"/>
 </g>
 <path id="path633" class="st56" d="m286.74 396.97c-3.2 1.3-5.5 2.8-7.1 3.9-1.7 1.2-2.2 1.7-2.4 2.3-1.5 3.1 2 7.5 2.6 8.2"/>
 <g id="g637" transform="translate(-53.962 -67.628)">
  <path id="path635" class="st42" d="m342.4 451.3c-1.4-3.4-3-5.1-3.6-5.7-1.6-1.6-3.7-2.8-6-3-1.1-0.1-2.3 0.1-3.2 0.7 1.2 0.5 2.3 1.3 3.2 2.2 0.7 0.7 2.2 2.3 3.6 5.7 0.9 2.2 2.1 6.2 1.8 11.7-0.5 2.8-2.1 5.1-4.3 6.2 1.1 0.5 2.8 1 4.7 0.5 2.9-0.7 5.1-3.4 5.7-6.7 0.2-5.3-1-9.4-1.9-11.6z"/>
 </g>
 <g id="g641" transform="translate(-53.962 -67.628)">
  <path id="path639" class="st57" d="m344.7 455.4c-0.2-1.5-1-2.5-1.4-2.9 0.1-0.7 0.1-2.2-0.8-3.9-0.6-1.3-1.5-2-2-2.5-0.3-0.9-0.7-1.6-1-2-0.4-0.5-1.4-1.8-2.9-1.9-0.6-0.1-1.1 0.1-1.3 0.2 0 0.3-0.1 0.7-0.2 1.2-0.2 0.9-0.3 1.3-0.3 1.5-0.2 0.5-0.7 0.8-1.5 1 0.8 0.9 2.1 2.4 3.2 5.3 0.8 1.9 1.8 5.3 1.9 9.8 3.4-0.8 5.2-1.2 5.9-2.2 0.7-1.4 0.5-3.1 0.4-3.6z"/>
 </g>
 <path id="path643" class="st42" d="m281.74 409.87c-1.8-2.2-2.8-4.5-2.3-5.5 0-0.1 0.3-0.4 1.6-1.3 2-1.4 4.3-2.7 6.7-3.7 1.3-0.5 1.9-2 1.3-3.3-0.1-0.3-0.3-0.5-0.5-0.8-2.2 1-4.4 2.2-6.3 3.6-1.9 1.3-2.7 2.1-3.3 3.2-2 4.1 1.2 8.9 2.8 10.8 0.7-0.9 0.7-2.1 0-3z"/>
 <g id="g647" transform="translate(-53.962 -67.628)">
  <path id="path645" class="st58" d="m337.2 444c-0.9-2.5-2.1-4.3-2.9-5.3-1.3-1.5-2.1-2.5-3.6-2.8-1.3-0.2-3 0.2-4 1.4-0.5 0.5-0.7 1.1-0.8 1.4-0.9 2.5 0.5 5 1.2 6.5 0.5 0.9 0.7 1.4 1.3 1.8 1.5 1.1 3.5 0.6 4.3 0.3 2.5-0.6 4-2.5 4.5-3.3z"/>
 </g>
 <g id="g653" transform="translate(-53.962 -67.628)">
  <g id="g651">
   <path id="path649" class="st59" d="m330.7 449.4c2.3 2.8 1.8 7.7-0.6 10.4-0.3 0.4 0.2 0.9 0.5 0.5 2.6-3 3.1-8.3 0.6-11.5-0.3-0.3-0.8 0.2-0.5 0.6z"/>
  </g>
 </g>
 <g id="g657" transform="translate(-53.962 -67.628)">
  <path id="path655" class="st60" d="m333 439.8 0.5-1.1c0-0.3-0.1-2.2-1.4-3.1-0.2-0.1-0.6-0.5-1.2-0.4-0.5 0-0.8 0.3-1.1 0.5-1 0.6-1.6 0.1-2.9 0.3l-0.3 0.3c-0.5 0.5-0.7 1.1-0.8 1.4-0.3 1-0.3 1.9-0.2 2.8 0.4 0.2 0.9 0.3 1.3 0.3 1.1 0 2-0.6 3-1s2.3-0.6 3.1 0z"/>
 </g>
 <g id="g661" transform="translate(-53.962 -67.628)">
  <path id="path659" class="st61" d="m333.5 437.7c0-0.3-0.1-2.2-1.4-3.1-0.2-0.1-0.6-0.5-1.2-0.4-0.5 0-0.8 0.3-1.1 0.5-1.1 0.6-1.7 0-3.2 0.3-0.4 0.1-2.1 0.6-2.5 1.8-0.2 0.6 0 1.2 0.3 1.7 0.5 0.8 1.5 1.3 2.5 1.3 1.1 0 2-0.6 3-1s2.2-0.7 3.1-0.1z"/>
 </g>
 <g id="g667" transform="translate(-53.962 -67.628)">
  <g id="g665">
   <path id="path663" class="st62" d="m332.7 438.5c-1.2-0.4-2.1-0.2-3.3 0.2-0.6 0.2-1.3 0.6-1.9 0.7-1.1 0.2-2.4-0.1-2.9-1.2-0.1-0.3-0.2-0.5-0.2-0.8-0.2-0.8 0.3-1.2 1.7-1.1-0.4-0.3-0.9 0.2-0.5 0.5 0.7 0.7 1.7 0.1 1.4-0.9-0.4-1.5-2.5-1.2-3.1 0-0.8 1.4 0.1 3.6 1.5 4.2 2.5 1 4.6-1.7 7.1-0.8 0.5 0.1 0.7-0.6 0.2-0.8z"/>
  </g>
 </g>
 <g id="g671" transform="translate(-53.962 -67.628)">
  <path id="path669" class="st61" d="m331.7 438.2c-0.3 0.5 0.8 1.4 1.6 2.7 0.5 1 0.8 1.9 0.9 2.6 0.3-0.1 0.8-0.3 1.3-0.7s0.7-0.8 0.9-1.1c-0.2-0.6-0.5-1.2-0.8-1.9-0.6-1.2-1.4-2-2-2.6-0.2 0.1-0.5 0.4-1 0.6-0.7 0.3-0.9 0.3-0.9 0.4z"/>
 </g>
 <circle id="circle673" class="st63" cx="278.34" cy="376.07" r="1.9"/>
 <g id="g677" transform="translate(-53.962 -67.628)">
  <path id="path675" class="st21" d="m327.4 444.2c-0.3 0.1-0.7 0.2-0.8 0.6-0.1 0.3 0.1 0.7 0.3 1.1 0.8 1.6 1.6 2.4 1.6 2.4 0.9 1 1.3 1.5 1.7 1.6 0.9 0.1 1.7-0.8 2.1-1.2 0.5-0.5 0.5-0.8 1.1-1.2 0.5-0.4 0.8-0.4 1.3-0.6 0.2-0.1 1.8-0.8 2.3-1.9 0.6-1.4-0.8-3.2-0.9-3.4-1.3 1.7-2.4 2.2-3.3 2.4-1.5 0.1-3.7-0.4-5.4 0.2z"/>
 </g>
 <circle id="circle679" class="st58" cx="280.44" cy="374.27" r="1.3"/>
 <g id="g685" transform="translate(-53.962 -67.628)">
  <g id="g683">
   <path id="path681" class="st61" d="m324.3 445.3c-0.3 0.9 0.3 1.5 1.2 1.3 0.5-0.1 0.9-0.3 1.2-0.6 0.4-0.4 0.9-2 1.7-1.4 0.1 0.1 0.4 0.2 0.5 0 0.9-1 2.7 1.1 3.9 0.8 1-0.2 1.3-0.9 0.7-1.7-0.3-0.4-0.9 0-0.6 0.4-0.5 0.6-1.1 0.7-1.6 0.1-0.2-0.2-0.5-0.3-0.7-0.5-0.2-0.1-0.4-0.3-0.6-0.3-0.6-0.1-1.2 0.2-1.6 0.6h0.5c-0.5-0.4-0.9-0.6-1.5-0.3-0.3 0.1-0.4 0.4-0.6 0.6-0.2 0.3-0.3 0.6-0.5 0.8-0.1 0.2-1.7 1.2-1.4 0.3 0.3-0.4-0.4-0.6-0.6-0.1z"/>
  </g>
 </g>
 <path id="path687" class="st54" d="m283.24 376.97-5.8 1.4c-0.9 0.2-1.3 1.3-0.7 2.1l1.1 1.4c3-0.6 5.2-2.1 5.5-3.9-0.1-0.3-0.1-0.6-0.1-1z"/>
 <g id="g693" transform="translate(-53.962 -67.628)">
  <g id="g691">
   <path id="path689" class="st64" d="m329.9 435.9c0.6 0 1.2 0.2 1.6 0.7 0.3 0.4 0.8-0.2 0.5-0.5-0.5-0.6-1.3-0.9-2.1-0.9-0.4-0.1-0.4 0.7 0 0.7z"/>
  </g>
 </g>
 <g id="g699" class="characterEyes" transform="translate(-53.962 -67.628)">
  <path id="path695" class="st65" d="m329.6 442.3c-0.3 0-0.5-0.2-0.5-0.5s0.2-0.5 0.5-0.5 0.5 0.2 0.5 0.5-0.3 0.5-0.5 0.5z"/>
  <path id="path697" class="st65" d="m327.2 442.5c-0.3 0-0.5-0.2-0.5-0.5s0.2-0.5 0.5-0.5 0.5 0.2 0.5 0.5c0.1 0.2-0.2 0.5-0.5 0.5z"/>
 </g>
 <path id="path701" class="st66" d="m284.14 377.27c0.2 0.1 0.8 0.5 1.2 1.2 0.3 0.6 0.3 1.1 0.3 1.4"/>
 <path id="path703" class="st67" d="m273.24 377.07v-0.4c0-1 0.4-1.7 0.7-2.1h1c0.2 0.4 0.5 1 0.5 1.9v0.5s-0.4 0.6-1.1 0.7c-0.7-0.1-1.1-0.6-1.1-0.6z"/>
 <g id="g707" transform="translate(-53.962 -67.628)">
  <path id="path705" class="st68" d="m240.4 482.1c-0.3-5.5 0.9-9.5 1.8-11.7 1.4-3.4 3-5.1 3.6-5.7 1.6-1.6 3.7-2.8 6-3 1.4-0.1 2.9 0.3 3.9 1.3 1.6 1.9 0.8 4.7 0.1 7.1-1 3.1-1.6 6.5-0.5 9.6 0.2 0.6 0.5 1.2 0.6 1.9 0.5 2.6-2.1 5.1-4.2 6.3-0.7 0.4-2.9 1.6-5.6 1-2.9-0.9-5.1-3.5-5.7-6.8z"/>
 </g>
 <path id="path709" class="st69" d="m189.04 414.17c1.7 0.3 4.3 0.8 7.4 1.7 1.2 0.3 1.9 0.5 2.3 0.7 1.2 0.5 4.5 2.4 5.4 12.3"/>
 <path id="path711" class="st69" d="m192.84 418.67c0.8-0.6 2.9-2 5.9-2.1 0 0 2.3-0.1 4.6 1 4.1 1.8 7.2 7.5 8 14.6"/>
 <g id="g715" transform="translate(-53.962 -67.628)">
  <path id="path713" class="st70" d="m252.2 470.3c-0.9 2.2-2.1 6.2-1.8 11.7 0.3 1.9 1.2 3.7 2.5 4.9-0.4 0.3-0.8 0.6-1.2 0.8-0.7 0.4-2.9 1.6-5.6 1-2.9-0.7-5.1-3.3-5.7-6.7-0.3-5.5 0.9-9.5 1.8-11.7 1.4-3.5 3-5 3.6-5.7 1.6-1.6 3.7-2.8 6-3 1.4-0.1 2.9 0.3 3.9 1.3 0.3 0.4 0.5 0.7 0.7 1.2-0.2 0.2-0.4 0.3-0.5 0.5-0.7 0.7-2.3 2.3-3.7 5.7z"/>
 </g>
 <g id="g719" transform="translate(-53.962 -67.628)">
  <path id="path717" class="st18" d="m257.1 464.3-5.8-1.4c-0.1 0.4-0.1 0.7 0 1 0.1 0.4 0.2 0.8 0.5 1.2-0.9-0.2-1.7-0.5-1.9-1-0.1-0.2-0.2-0.6-0.3-1.5-0.1-0.5-0.2-0.9-0.2-1.2-0.3-0.1-0.8-0.2-1.3-0.2-1.5 0.1-2.5 1.4-2.9 1.9-0.3 0.4-0.7 1.1-1 2-0.5 0.4-1.4 1.2-2 2.5-0.8 1.6-0.8 3.2-0.8 3.9-0.4 0.4-1.1 1.4-1.4 2.9-0.1 0.5-0.3 2.1 0.6 3.5 0.7 1 2.5 1.5 6.2 2.3 0.8 0.2 2.2 0.5 4 0.3 0.2 0 0.4 0 0.5-0.1 1.5-0.2 3-0.9 3.9-2.1 0.3-0.4 0.4-0.7 0.4-0.9 0.4-1.2 0.1-2.1 0-2.8 0-0.2-0.4-2.6 0.4-4.8 0.5-1.4 1.1-2 1.3-2.5l0.8-1c0.3-0.7-0.1-1.7-1-2z"/>
 </g>
 <g id="g723" transform="translate(-53.962 -67.628)">
  <path id="path721" class="st58" d="m247.4 463c0.9-2.5 2.1-4.3 2.9-5.3 1.3-1.5 2.1-2.5 3.6-2.8 1.3-0.2 3 0.2 4 1.4 0.5 0.5 0.7 1.1 0.8 1.4 0.9 2.5-0.5 5-1.2 6.5-0.5 0.9-0.7 1.4-1.3 1.8-1.5 1.1-3.5 0.6-4.3 0.3-2.5-0.6-4-2.5-4.5-3.3z"/>
 </g>
 <g id="g727" transform="translate(-53.962 -67.628)">
  <path id="path725" class="st60" d="m254.3 464.7-2.4-0.4c-0.1 0.3-1.3 1.2-1.3 1.5 0.8 0.8-0.2 0.1 1.4 0.5 0.6 0.2 2 0.5 3.3 0.2 0.2-0.7-0.2-1.6-1-1.8z"/>
 </g>
 <path id="path729" class="st71" d="m199.44 404.47c0-1.4 0.3-2.7 0.7-4.1l0.1 1.1 1.4-0.5-1.6-1.7v0.1h-0.1c-0.3-0.1-0.5 0.1-0.6 0.3-0.5 1.6-0.8 3.2-0.9 4.8-0.1 2.4 0.3 4.8 1.2 7.1 0.1 0.2 0.3 0.3 0.5 0.3h0.2c0.3-0.1 0.4-0.4 0.3-0.6-0.9-2.3-1.2-4.5-1.2-6.8z"/>
 <path id="path731" class="st72" d="m199.34 397.37-3-0.7c-0.1-0.1-0.2-0.1-0.4-0.2-0.5-0.2-1.1-0.3-1.6-0.3l-0.9-0.2v0.2c-1.9 0.2-3.3 1.2-3.4 1.3-0.5 0.4-1.4 1.2-2 2.5-0.8 1.6-0.8 3.2-0.8 3.9-0.4 0.4-1.1 1.4-1.4 2.9-0.1 0.5-0.3 2.1 0.6 3.5 0.7 1 2.5 1.5 6.2 2.3 0.8 0.2 2.1 0.4 3.7 0.3 0-2.7 0.3-6.3 1.9-10.1 0.4-0.9 0.8-1.7 1.2-2.5l0.6-0.8c0.6-0.8 0.2-1.9-0.7-2.1z"/>
 <path id="path733" class="st53" d="m193.74 398.77c-0.7 0.8-2.2 2.8-2.6 5.6-0.2 1.3-0.7 5.1 1.9 7.5 2.8 2.5 6.8 1.5 7.1 1.4"/>
 <g id="g737" transform="translate(-53.962 -67.628)">
  <path id="path735" class="st60" d="m251.7 460.3c3.3 0.4 6-1.1 7.2-1.9 0-0.2-0.1-0.4-0.2-0.7s-0.3-0.9-0.8-1.4c-1-1.2-2.7-1.6-4-1.4-1.5 0.2-2.3 1.3-3.6 2.8-0.4 0.5-0.9 1.1-1.3 1.9 0.7 0.3 1.6 0.6 2.7 0.7z"/>
 </g>
 <g id="g743" class="characterEyes" transform="translate(-53.962 -67.628)">
  <path id="path739" class="st65" d="m258.3 460.6c-0.3 0-0.5-0.2-0.5-0.5s0.2-0.5 0.5-0.5 0.5 0.2 0.5 0.5-0.2 0.5-0.5 0.5z"/>
  <path id="path741" class="st65" d="m256 460.7c-0.3 0-0.5-0.2-0.5-0.5s0.2-0.5 0.5-0.5 0.5 0.2 0.5 0.5-0.2 0.5-0.5 0.5z"/>
 </g>
 <circle id="circle745" class="st23" cx="198.44" cy="387.87" r="2.6"/>
 <path id="path747" class="st23" d="m202.44 391.77c0-1.4-1.2-2.6-2.6-2.6-1 0-1.9 0.6-2.3 1.4-0.5-0.4-1-0.6-1.7-0.6-0.2 0-0.5 0-0.7 0.1-0.5-0.5-1.2-0.9-2-0.9-1.4 0-2.6 1.2-2.6 2.6 0 0.5 0.2 1.1 0.5 1.5h-0.2c-1.4 0-2.6 1.2-2.6 2.6 0 0.6 0.2 1.1 0.5 1.6-0.1 0.3-0.2 0.6-0.2 0.9 0 1.4 1.2 2.6 2.6 2.6s2.5-1 2.6-2.4c0.3 0.1 0.5 0.1 0.8 0.1 1 0 1.9-0.6 2.3-1.4 0.4 0.3 1 0.5 1.6 0.5 1.4 0 2.6-1.2 2.6-2.6 0-0.4-0.1-0.7-0.2-1 0.9-0.4 1.6-1.4 1.6-2.4z"/>
 <path id="path749" class="st73" d="m197.04 390.27c-0.3 0.4-0.5 0.9-0.5 1.5 0 0.5 0.2 1 0.5 1.5h-0.2c-1.5 0-2.6 1.2-2.6 2.6 0 0.6 0.2 1.1 0.5 1.6-0.1 0.3-0.2 0.4-0.2 0.7v0.2c-0.3 0-0.5 0.1-0.8 0-0.1 1.3-1.2 2.5-2.6 2.5s-2.6-1.1-2.6-2.6c0-0.3 0.1-0.6 0.2-0.9-0.3-0.4-0.5-1-0.5-1.5 0-1.4 1.2-2.6 2.6-2.6h0.2c-0.3-0.4-0.5-0.9-0.5-1.5 0-1.5 1.2-2.6 2.6-2.6 0.8 0 1.5 0.4 2 0.9 0.2-0.1 0.4-0.1 0.7-0.1 0.4-0.1 0.8 0 1.2 0.3z"/>
 <g id="g753" transform="translate(-53.962 -67.628)">
  <path id="path751" class="st54" d="m250.7 458.3c3.9 0.5 6.9-1.7 7.7-2.3 0.2-1.1-0.5-2.1-1.3-2.9-1.2-1.1-2.7-1.9-4.3-2.3s-3.3-0.2-4.8 0.5c-1.1 0.6-2.1 1.6-2.4 2.8-0.2 1.3 0.5 2.7 1.7 3 0.8 0.6 2 1.1 3.4 1.2z"/>
 </g>
 <path id="path755" class="st74" d="m192.04 389.07c0.9 0.5 2.8 1.4 5.1 1.4 2.2 0 3.9-0.7 4.8-1.1 1.2-0.5 2.2-1.2 2.8-1.7"/>
 <path id="path757" class="st67" d="m202.24 395.87c0-0.1 0-0.3-0.1-0.4-0.1-1 0.3-1.7 0.6-2.2 0.3 0 0.7 0 1-0.1 0.2 0.4 0.6 1 0.6 1.8v0.5s-0.3 0.7-1 0.7c-0.6 0.1-1-0.3-1.1-0.3z"/>
 <g id="g761" transform="translate(-53.962 -67.628)">
  <path id="path759" class="st70" d="m263.3 501.3c-0.2-0.3-0.4-0.8-0.5-1.2-0.7-6.1-3.3-11.2-6.5-12.6-1.8-0.8-3.5-0.8-3.6-0.8-0.6 0-1.2 0.1-1.8 0.3-1.1 0.3-2 0.8-2.6 1.3-1.1 0.8-2.6 0.6-3.4-0.4l-0.1-0.1c-0.8-1.1-0.6-2.2 0.5-3 1.2-0.9 3.1-1.9 5.6-1.9 1 0 2.2-0.1 3.4 0.5 4.9 2.2 8.5 8.3 9.5 16.4 0.1 0.6-0.1 1-0.5 1.5z"/>
 </g>
 <path id="path763" class="st55 redArm" d="m283.74 382.27c0 0.8 0.1 5.6-3.6 9.2-4.6 4.5-10.9 3.1-11.4 3"/>
 <g id="g785" class="marshmallow redStick" transform="translate(-53.962 -67.628)">
  <line id="line765" class="st75" x1="310.6" x2="323" y1="455" y2="462.4"/>
  <g id="g771">
   <path id="path767" class="st51" d="m319.5 460.1-0.7 0.9c-0.2 0.2-0.5 0.3-0.8 0.1l-0.9-0.7c-0.2-0.2-0.3-0.5-0.1-0.8l0.7-0.9c0.2-0.2 0.5-0.3 0.8-0.1l0.9 0.7c0.2 0.2 0.2 0.6 0.1 0.8z"/>
   <path id="path769" class="st76" d="m318.4 460.6-0.9-0.7c-0.2-0.2-0.3-0.5-0.1-0.8l-0.4 0.6c-0.2 0.2-0.1 0.6 0.1 0.8l0.9 0.7c0.2 0.2 0.6 0.1 0.8-0.1l0.4-0.6c-0.2 0.2-0.5 0.2-0.8 0.1z"/>
  </g>
  <g id="g777">
   <path id="path773" class="st51" d="m314.1 456.5-0.6 1c-0.2 0.3-0.5 0.3-0.8 0.2l-1-0.6c-0.3-0.2-0.3-0.5-0.2-0.8l0.6-1c0.2-0.3 0.5-0.3 0.8-0.2l1 0.6c0.3 0.2 0.4 0.5 0.2 0.8z"/>
   <path id="path775" class="st76" d="m313.1 457-1-0.6c-0.3-0.2-0.3-0.5-0.2-0.8l-0.4 0.6c-0.2 0.3-0.1 0.6 0.2 0.8l1 0.6c0.3 0.2 0.6 0.1 0.8-0.2l0.4-0.6c-0.2 0.3-0.5 0.4-0.8 0.2z"/>
  </g>
  <g id="g783">
   <path id="path779" class="st51" d="m316.5 457.8-0.5 1.1c-0.1 0.3-0.4 0.4-0.7 0.3l-1.1-0.5c-0.3-0.1-0.4-0.4-0.3-0.7l0.5-1.1c0.1-0.3 0.4-0.4 0.7-0.3l1.1 0.5c0.3 0.1 0.4 0.4 0.3 0.7z"/>
   <path id="path781" class="st76" d="m315.6 458.5-1.1-0.5c-0.3-0.1-0.4-0.4-0.3-0.7l-0.2 0.7c-0.1 0.3 0 0.6 0.3 0.7l1.1 0.5c0.3 0.1 0.6 0 0.7-0.3l0.3-0.6c-0.2 0.2-0.5 0.3-0.8 0.2z"/>
  </g>
 </g>
 <g id="g807" class="marshmallow blueStick" transform="translate(-53.962 -67.628)">
  <line id="line787" class="st75" x1="277.6" x2="267.2" y1="465.5" y2="472.9"/>
  <g id="g793">
   <path id="path789" class="st51" d="m269.1 471.2 0.8 0.9c0.2 0.2 0.5 0.2 0.8 0l0.9-0.8c0.2-0.2 0.2-0.5 0-0.8l-0.8-0.9c-0.2-0.2-0.5-0.2-0.8 0l-0.9 0.8c-0.2 0.3-0.2 0.6 0 0.8z"/>
   <path id="path791" class="st76" d="m270.2 471.6 0.9-0.8c0.2-0.2 0.2-0.5 0-0.8l0.5 0.5c0.2 0.2 0.2 0.6 0 0.8l-0.9 0.8c-0.2 0.2-0.6 0.2-0.8 0l-0.5-0.5c0.2 0.2 0.6 0.2 0.8 0z"/>
  </g>
  <g id="g799">
   <path id="path795" class="st51" d="m274.1 467.2 0.7 0.9c0.2 0.2 0.5 0.3 0.8 0.1l0.9-0.7c0.2-0.2 0.3-0.5 0.1-0.8l-0.7-0.9c-0.2-0.2-0.5-0.3-0.8-0.1l-0.9 0.7c-0.2 0.2-0.2 0.5-0.1 0.8z"/>
   <path id="path797" class="st76" d="m275.2 467.6 0.9-0.7c0.2-0.2 0.3-0.5 0.1-0.8l0.4 0.6c0.2 0.2 0.1 0.6-0.1 0.8l-0.9 0.7c-0.2 0.2-0.6 0.1-0.8-0.1l-0.4-0.6c0.2 0.3 0.5 0.3 0.8 0.1z"/>
  </g>
  <g id="g805">
   <path id="path801" class="st51" d="m271.9 468.7 0.6 1c0.1 0.3 0.5 0.4 0.7 0.2l1-0.6c0.3-0.1 0.4-0.5 0.2-0.7l-0.6-1c-0.1-0.3-0.5-0.4-0.7-0.2l-1 0.6c-0.3 0.1-0.4 0.4-0.2 0.7z"/>
   <path id="path803" class="st76" d="m272.8 469.3 1-0.6c0.3-0.1 0.4-0.5 0.2-0.7l0.3 0.6c0.1 0.3 0 0.6-0.2 0.7l-1 0.6c-0.3 0.1-0.6 0-0.7-0.2l-0.3-0.6c0.2 0.3 0.5 0.4 0.7 0.2z"/>
  </g>
 </g>
 <path id="path809" class="st51 starPointy" d="m335.04 32.872-5.4-2.2c-0.2-0.1-0.4-0.3-0.5-0.6l-1.2-6.5c-0.1-0.8-1.3-0.8-1.5 0l-1.4 6.5c-0.1 0.3-0.3 0.5-0.5 0.6l-5.4 1.7c-0.7 0.2-0.7 1.2 0 1.4l5.2 2c0.2 0.1 0.4 0.3 0.5 0.6l1.2 6.9c0.1 0.8 1.3 0.8 1.5 0l1.6-7.5v0.3l5.7-1.9c0.8 0 0.8-1 0.2-1.3z"/>
 <path id="path811" class="st51 starSmall" d="m188.44 83.372-1.4-1.4c-0.1-0.1-0.1-0.2 0-0.2l1.4-1.4c0.1-0.1 0.2-0.1 0.2 0l1.4 1.4c0.1 0.1 0.1 0.2 0 0.2l-1.4 1.4c0 0.1-0.1 0.1-0.2 0z"/>
 <path id="path813" class="st51 starSmall" d="m251.84 3.7719-1.4-1.4c-0.1-0.1-0.1-0.2 0-0.2l1.4-1.4c0.1-0.1 0.2-0.1 0.2 0l1.4 1.4c0.1 0.1 0.1 0.2 0 0.2l-1.4 1.4c-0.1 0.1-0.2 0.1-0.2 0z"/>
 <path id="path815" class="st51 starSmall" d="m141.64 49.872-1.4-1.4c-0.1-0.1-0.1-0.2 0-0.2l1.4-1.4c0.1-0.1 0.2-0.1 0.2 0l1.4 1.4c0.1 0.1 0.1 0.2 0 0.2l-1.4 1.4h-0.2z"/>
 <path id="path817" class="st51 starSmall" d="m265.14 43.072-1.4-1.4c-0.1-0.1-0.1-0.2 0-0.2l1.4-1.4c0.1-0.1 0.2-0.1 0.2 0l1.4 1.4c0.1 0.1 0.1 0.2 0 0.2l-1.4 1.4h-0.2z"/>
 <path id="path821" class="st51 starSmall" d="m334.64 63.772-1.4-1.4c-0.1-0.1-0.1-0.2 0-0.2l1.4-1.4c0.1-0.1 0.2-0.1 0.2 0l1.4 1.4c0.1 0.1 0.1 0.2 0 0.2l-1.4 1.4h-0.2z"/>
 <path id="path825" class="st51 starSmall" d="m365.14 11.772-1.4-1.4c-0.1-0.1-0.1-0.2 0-0.2l1.4-1.4c0.1-0.1 0.2-0.1 0.2 0l1.4 1.4c0.1 0.1 0.1 0.2 0 0.2l-1.4 1.4c0 0.1-0.1 0.1-0.2 0z"/>
 <path id="path827" class="st51 starSmall" d="m113.44 10.572-1.4-1.4c-0.1-0.1-0.1-0.2 0-0.2l1.4-1.4c0.1-0.1 0.2-0.1 0.2 0l1.4 1.4c0.1 0.1 0.1 0.2 0 0.2l-1.4 1.4c-0.1 0.1-0.2 0.1-0.2 0z"/>
 <g id="g833" class="starCross" transform="translate(-53.962 -67.628)">
  <line id="line829" class="st77" x1="356" x2="351" y1="136.4" y2="142.2"/>
  <line id="line831" class="st77" x1="356.4" x2="350.6" y1="141.8" y2="136.8"/>
 </g>
 <g id="g839" class="starCross" transform="translate(-53.962 -67.628)">
  <line id="line835" class="st77" x1="262" x2="257" y1="89.4" y2="95.2"/>
  <line id="line837" class="st77" x1="262.4" x2="256.6" y1="94.8" y2="89.8"/>
 </g>
</svg>
