<svg id="svg849" width="1100" height="880" version="1.1" viewBox="0 0 825 660" xmlns="http://www.w3.org/2000/svg" xmlns:xlink="http://www.w3.org/1999/xlink">
 <style id="style2" type="text/css">.st0{fill:#70A5DA;}
	.st1{fill:#3BA0B9;}
	.st2{fill:#00559D;}
	.st3{fill:#005191;}
	.st4{fill:#1580A6;}
	.st5{fill:#137BA1;}
	.st6{fill:#D5F2F2;}
	.st7{fill:#408C6D;}
	.st8{fill:#66C590;}
	.st9{fill:#5BBD84;}
	.st10{fill:none;stroke:#E2E88A;stroke-miterlimit:10;}
	.st11{fill:#7B685C;}
	.st12{clip-path:url(#SVGID_2_);}
	.st13{fill:none;stroke:#A78066;stroke-linecap:round;stroke-miterlimit:10;}
	.st14{clip-path:url(#SVGID_2_);fill:none;stroke:#A78066;stroke-linecap:round;stroke-miterlimit:10;}
	.st15{fill:#5FDBB7;}
	.st16{fill:#5BCCB1;}
	.st17{clip-path:url(#SVGID_4_);}
	.st18{fill:#9ECFEB;}
	.st19{fill:none;stroke:#37395E;stroke-width:4;stroke-linecap:round;stroke-linejoin:round;stroke-miterlimit:10;}
	.st20{fill:none;stroke:#CCE2FF;stroke-width:6;stroke-linecap:round;stroke-miterlimit:10;}
	.st21{fill:#A78066;}
	.st22{fill:#9C775F;}
	.st23{fill:#37395E;}
	.st24{fill:#735846;}
	.st25{fill:#BA8F72;}
	.st26{fill:none;stroke:#A78066;stroke-width:0.5;stroke-linecap:round;stroke-miterlimit:10;}
	.st27{fill:none;stroke:#BA8F72;stroke-linecap:round;stroke-miterlimit:10;}
	.st28{fill:#CFC9C3;}
	.st29{fill:#E0DAD3;}
	.st30{fill:#B8B3AD;}
	.st31{fill:#3592AB;}
	.st32{fill:none;stroke:#4499B8;stroke-width:6;stroke-linecap:round;stroke-miterlimit:10;}
	.st33{fill:#76C976;}
	.st34{fill:#F1F793;}
	.st35{fill:#E2E88A;}
	.st36{fill:none;stroke:#F1F793;stroke-linecap:round;stroke-miterlimit:10;}
	.st37{opacity:0.35;fill:url(#SVGID_5_);}
	.st38{fill:#997159;}
	.st39{fill:none;stroke:#A78066;stroke-width:2;stroke-linecap:round;stroke-linejoin:round;stroke-miterlimit:10;}
	.st40{fill:#916B55;}
	.st41{fill:#EC9034;}
	.st42{fill:#EC7B34;}
	.st43{fill:#ECA934;}
	.st44{fill:#E6E6E6;}
	.st45{fill:none;stroke:#FFADC1;stroke-width:2.5;stroke-linecap:round;stroke-miterlimit:10;}
	.st46{clip-path:url(#SVGID_7_);fill:none;stroke:#B3896D;stroke-linecap:round;stroke-miterlimit:10;}
	.st47{fill:none;stroke:#916B55;stroke-miterlimit:10;}
	.st48{clip-path:url(#SVGID_9_);fill:none;stroke:#B3896D;stroke-linecap:round;stroke-miterlimit:10;}
	.st49{fill:none;stroke:#F1F793;stroke-width:2;stroke-linecap:round;stroke-miterlimit:10;}
	.st50{fill:none;stroke:#ECA934;stroke-width:2;stroke-linecap:round;stroke-miterlimit:10;}
	.st51{fill:#F8FFC5;}
	.st52{clip-path:url(#SVGID_11_);fill:none;stroke:#B3896D;stroke-linecap:round;stroke-miterlimit:10;}
	.st53{fill:none;stroke:#1580A6;stroke-width:3;stroke-linecap:round;stroke-miterlimit:10;}
	.st54{fill:#EC5C5C;}
	.st55{fill:none;stroke:#C44D4D;stroke-width:3;stroke-linecap:round;stroke-miterlimit:10;}
	.st56{fill:none;stroke:#ECA934;stroke-width:5;stroke-linecap:round;stroke-miterlimit:10;}
	.st57{fill:#D65353;}
	.st58{fill:#EFC7B0;}
	.st59{fill:#DE5656;}
	.st60{fill:#D6B29D;}
	.st61{fill:#8A6551;}
	.st62{fill:#BD885C;}
	.st63{fill:#F2B1A5;}
	.st64{fill:#BD9B7D;}
	.st65{fill:#423127;}
	.st66{fill:none;stroke:#FF6B6B;stroke-linecap:round;stroke-miterlimit:10;}
	.st67{fill:#E6AA9F;}
	.st68{fill:#FFADB2;}
	.st69{fill:none;stroke:#FFADB2;stroke-width:5;stroke-linecap:round;stroke-miterlimit:10;}
	.st70{fill:#E69CA0;}
	.st71{fill:#93C1DB;}
	.st72{fill:#77BAE0;}
	.st73{fill:#2E304F;}
	.st74{fill:none;stroke:#C44D4D;stroke-width:2;stroke-linecap:round;stroke-miterlimit:10;}
	.st75{fill:none;stroke:#8A6551;stroke-width:0.75;stroke-linecap:round;stroke-miterlimit:10;}
	.st76{fill:#F1E193;}
	.st77{fill:none;stroke:#F8FFC5;stroke-width:2;stroke-linecap:round;stroke-miterlimit:10;}
	.st78{clip-path:url(#SVGID_13_);}
	.st79{clip-path:url(#SVGID_13_);fill:none;stroke:#A78066;stroke-linecap:round;stroke-miterlimit:10;}
	.st80{clip-path:url(#SVGID_15_);}
	.st81{opacity:0.35;fill:url(#SVGID_16_);}
	.st82{clip-path:url(#SVGID_18_);fill:none;stroke:#B3896D;stroke-linecap:round;stroke-miterlimit:10;}
	.st83{clip-path:url(#SVGID_20_);fill:none;stroke:#B3896D;stroke-linecap:round;stroke-miterlimit:10;}
	.st84{clip-path:url(#SVGID_22_);fill:none;stroke:#B3896D;stroke-linecap:round;stroke-miterlimit:10;}</style>
 <radialGradient id="SVGID_5_" cx="296.95" cy="495.08" r="26.96" gradientTransform="matrix(-.030628 1.9416 -3.7195 -.058677 2585.5 233.5)" gradientUnits="userSpaceOnUse">
  <stop id="stop426" stop-color="#F1F793" offset="0"/>
  <stop id="stop428" stop-color="#EBF494" offset=".1188"/>
  <stop id="stop430" stop-color="#DBED98" offset=".2714"/>
  <stop id="stop432" stop-color="#C1E09D" offset=".4423"/>
  <stop id="stop434" stop-color="#9CCEA5" offset=".6266"/>
  <stop id="stop436" stop-color="#6EB8AE" offset=".8195"/>
  <stop id="stop438" stop-color="#3BA0B9" offset="1"/>
 </radialGradient>
 <g id="layer1" transform="translate(-18.649 -9.7378)">
  <g id="g12" transform="matrix(1.9418 0 0 1.9418 -136.37 -183.57)">
   <g id="g10">
    <path id="path8" class="st0" d="m310.7 267c1.8 13.6 1.8 27.2-0.3 40.7-0.3 1.9 2.6 2.7 2.9 0.8 2.1-13.8 2.2-27.7 0.4-41.5-0.2-1.9-3.2-1.9-3 0z"/>
   </g>
  </g>
  <path id="path14" d="m441.51 366.35c-12.088 0-24.175 3.155-35.049 9.4658l-431.08 248.94c-15.923 9.3207-15.923 32.234 0 41.555l9.2109 5.3188h913.65l9.2109-5.3188c15.923-9.3207 15.923-32.234 0-41.555l-430.89-248.94c-10.874-6.3109-22.962-9.4658-35.049-9.4658z" fill="#3ba0b9" stroke-width="1.9418"/>
  <g id="g2559" transform="translate(-294.72 -3.2014)">
   <g id="g32" transform="matrix(1.9418 0 0 1.9418 158.35 -180.37)">
    <g id="g20">
     <path id="path16" class="st2" d="m192.5 374.3 94.9-235.1c4.4-11 21.2-11 25.6 0l94.9 235.1z"/>
     <path id="path18" class="st3" d="m300.2 131v243.9h107.7l-94.9-235.4c-2.2-5.5-8-8.5-12.8-8.5z"/>
    </g>
    <g id="g30">
     <path id="path22" class="st4" d="m300 374.8 78.9-177.8c3.7-8.3 17.6-8.3 21.3 0l78.9 177.8z"/>
     <path id="path24" class="st4" d="m121.2 374.8 78.9-177.8c3.7-8.3 17.6-8.3 21.3 0l78.9 177.8z"/>
     <path id="path26" class="st5" d="m389.2 190.5v184.4h90l-79.1-178c-1.9-4.1-5.9-6.4-10.9-6.4z"/>
     <path id="path28" class="st5" d="m211.2 190.5v184.4h90.1l-79.2-178c-1.8-4.1-5.9-6.4-10.9-6.4z"/>
    </g>
   </g>
   <g id="g36" transform="matrix(1.9418 0 0 1.9418 158.35 -180.37)">
    <path id="path34" class="st6" d="m311.7 135.3c-2-2.9-9.7-14.5-16.5-13.2-4.1 0.8-6.1 5.7-8.3 10.7 0 0-22.8 51.3-25.1 65.7-0.1 0.8-0.1 1.9 0.4 2.8 0.6 1 1.7 1.5 2.8 1.8 6.3 1.3 11.5-4.8 15.1-10.2s8.9-11.5 15.2-10c2.8 0.7 5.1 2.8 6.9 5.1 4 4.8 7 10.4 8.9 16.3 1 3.1 2.9 7.1 6 6.2 1.8-0.5 2.7-2.6 3.1-4.5 1.2-6.1-0.3-9-0.3-16.1 0-6 1.6-13.4 4.5-13.9 1.9-0.4 3.5 2.5 4.4 2 0.8-0.4 0.5-3.8-4.4-16.5z"/>
   </g>
   <g id="g40" transform="matrix(1.9418 0 0 1.9418 158.35 -180.37)">
    <path id="path38" class="st6" d="m198.2 194.8c-7.5 11-6.5 13-16.8 34.1-3.2 6.4-6 12-3.9 14.4 1.3 1.4 4 1.5 5.7 0.8 2.5-0.9 3-2.5 6.9-6.9 3.3-3.8 5-5.7 7.6-6.6 3.2-1.1 6.2-0.5 7.5-0.2 6.6 1.6 7.8 6.7 11.3 6.3 4.4-0.5 4.6-8.7 8.8-9 3.7-0.2 8.4 5.9 9.3 7.1 0.2 0.3 1.6 2.3 4.2 4 1 0.7 2.4 1.6 3.1 1.1 0.3-0.2 1-1-0.1-5-7.6-26.4-15.4-37.6-15.4-37.6-7.1-10.2-10.7-15.2-15.7-15-1.6 0.2-4.6 0.9-12.5 12.5z"/>
   </g>
   <g id="g44" transform="matrix(1.9418 0 0 1.9418 158.35 -180.37)">
    <path id="path42" class="st6" d="m379.5 191.4c-4.8 7.9-7.6 14.4-10.8 22.2-7.7 18.5-9.2 22.9-7.5 24.3 1.8 1.4 6.8-0.4 8.9-2.1 2.5-2.1 5-4.7 8.2-5 4.3-0.4 7.8 3.6 9.6 7.6s2.7 8.5 5.8 11.6 9.3 3.5 11-0.5c0.5-1.2 0.5-2.5 0.5-3.9-0.1-3.7-0.2-7.4-0.2-11.1 0-1.4 0-2.9 0.6-4.1 0.9-1.7 3.4-1.5 3.5-1.5 2.5 0 7.8 7.4 8.9 7 1.2-0.5-2.2-11.2-2.2-11.2-1.6-5.1-2.6-8.2-4.7-13-0.7-1.5-1.2-2.7-1.8-3.8-4.5-9-9.4-16.7-9.4-16.7-4.9-7.6-7.4-11.3-9.7-11.4-1.5-0.2-4.1 0.6-10.7 11.6z"/>
   </g>
  </g>
  <g id="g2385" transform="translate(-294.72 -3.2014)" stroke-width="1.9418">
   <path id="path46" class="st7" d="m762.25 338.87-49.516 53.206c-4.4662 4.6603-0.58254 12.428 5.8254 11.651 6.408-0.77673 10.292 6.9905 5.8254 11.651l-34.952 36.118c-4.272 4.4661-1.1651 11.651 4.8545 11.845l17.865 0.38836c6.6022 0.19418 9.3207 8.3498 4.272 12.428l-45.244 36.312c-5.0487 4.0778-2.3302 12.233 4.0778 12.428l28.35 0.97091c6.2138 0.19418 9.1265 7.7672 4.4662 12.039l-30.486 28.739c-4.6603 4.272-1.5534 12.039 4.8545 12.039h177.29c6.2138 0 9.3207-7.573 4.8545-12.039l-33.787-32.428c-4.272-4.0778-1.7476-11.457 4.272-12.039l33.205-2.7185c6.408-0.58253 8.7381-8.9323 3.3011-12.622l-43.496-30.292c-5.2429-3.6894-3.3011-11.651 2.9127-12.622l12.622-1.7476c5.8254-0.77673 8.1556-7.9614 3.6894-12.039l-40.195-36.894c-4.8545-4.4662-1.3593-12.428 5.0487-12.039l2.5243 0.19418c6.2138 0.38836 9.709-7.1847 5.4371-11.651l-47.574-50.487c-2.9127-3.301-7.573-3.301-10.292-0.38836z"/>
   <path id="path50" class="st7" d="m1010.2 409.94-29.71 31.846c-2.7186 2.9127-0.3884 7.3789 3.4952 6.9905 3.8837-0.38836 6.2138 4.272 3.4953 6.9905l-20.972 21.748c-2.5244 2.7185-0.77672 6.9905 2.9127 6.9905l10.68 0.19419c3.8836 0 5.6313 5.0487 2.5243 7.3788l-27.185 21.748c-3.1069 2.3302-1.3593 7.3789 2.5244 7.3789l16.894 0.58254c3.6894 0.19418 5.437 4.6603 2.7186 7.1847l-18.253 17.282c-2.7185 2.5244-0.97091 7.1847 2.9127 7.1847h106.41c3.6894 0 5.6312-4.6603 2.9125-7.1847l-20.195-19.418c-2.5244-2.5243-0.971-6.7963 2.5242-7.1847l19.806-1.7476c3.8836-0.38836 5.2429-5.4371 1.9418-7.5731l-26.214-18.253c-3.1068-2.136-1.9417-6.9905 1.7477-7.573l7.573-1.1651c3.4952-0.58252 4.8546-4.8545 2.3302-7.1847l-24.078-22.137c-2.9126-2.7185-0.7768-7.3789 3.1068-7.1847h1.5535c3.6895 0.19417 5.8255-4.272 3.3011-6.9905l-28.739-29.904c-1.5535-1.9418-4.272-1.7476-6.0197 0z"/>
  </g>
  <g id="g2395" transform="translate(-294.72 -3.2014)">
   <path id="path48" class="st8" d="m624.58 367.61-44.273 47.574c-3.8836 4.272-0.38837 11.068 5.2428 10.486 5.8254-0.77673 9.3207 6.2138 5.2429 10.486l-31.263 32.428c-3.6894 3.8836-0.97089 10.486 4.272 10.486l15.923 0.19419c5.8254 0.19417 8.3498 7.3789 3.6894 11.068l-40.584 32.428c-4.4662 3.6894-2.136 10.874 3.6894 11.068l25.243 0.77672c5.4371 0.19419 8.1556 6.9905 4.0778 10.68l-26.991 25.826c-4.0778 3.8836-1.3593 10.68 4.272 10.68h158.45c5.6312 0 8.3498-6.7963 4.272-10.68l-30.292-28.933c-3.8836-3.6894-1.5534-10.292 3.6894-10.68l29.71-2.5243c5.8254-0.58256 7.7672-7.9614 3.1069-11.262l-39.03-27.185c-4.6604-3.3011-2.9127-10.486 2.7185-11.262l11.262-1.5534c5.2429-0.77672 7.1847-7.1847 3.3011-10.68l-35.923-33.011c-4.272-3.8836-1.3593-11.068 4.4661-10.874l2.136 0.1942c5.6312 0.19417 8.7381-6.408 4.8545-10.486l-42.526-45.244c-2.136-2.5243-6.408-2.5243-8.7381 0z" stroke-width="1.9418"/>
   <path id="path52" class="st8" d="m367.68 461.21-29.71 31.846c-2.7185 2.9127-0.38835 7.3788 3.4952 6.9905 3.8836-0.38836 6.2138 4.272 3.4952 6.9905l-20.971 21.748c-2.5244 2.7185-0.77673 6.9905 2.9127 6.9905l10.68 0.19419c3.8836 0 5.6312 5.0487 2.5243 7.3789l-27.185 21.748c-3.1069 2.3302-1.3593 7.3789 2.5244 7.3789l16.894 0.58255c3.6895 0.19417 5.4371 4.6603 2.7186 7.1847l-18.253 17.282c-2.7185 2.5244-0.9709 7.1847 2.9127 7.1847h106.41c3.6894 0 5.6312-4.6603 2.9127-7.1847l-20.195-19.418c-2.5244-2.5244-0.97091-6.7963 2.5243-7.1847l19.806-1.7476c3.8836-0.38836 5.2429-5.437 1.9418-7.5731l-26.214-18.253c-3.1069-2.136-1.9418-6.9905 1.7476-7.5731l7.573-1.1651c3.4953-0.58253 4.8545-4.8545 2.3302-7.1847l-24.078-22.137c-2.9127-2.7185-0.77671-7.3789 3.1069-7.1847h1.5534c3.6894 0.19418 5.8254-4.272 3.3011-6.9905l-28.545-29.904c-1.7476-1.7476-4.4661-1.7476-6.2138 0z" stroke-width="1.9418"/>
   <path id="path54" class="st9" d="m388.45 582.18c-3.6894 3.6894-7.5731 7.1847-11.262 10.874 0-3.4952 0-7.1847-0.19419-10.68 0.38836 0 0.97091-0.38837 1.3593-0.58255 4.6603-3.8836 8.7381-8.1556 12.622-12.622 2.3302-2.9127-1.7476-6.9905-4.0778-4.0778-3.1069 3.6894-6.408 7.3789-10.097 10.486 0-1.1651-0.19419-2.136-0.19419-3.3011 0.77673-1.1651 0.77673-2.7185-0.19417-3.8836-0.19419-2.136-0.38836-4.4662-0.58255-6.6021 0.77672 0.58253 1.9418 0.77672 3.1069 0.19417 4.8545-2.7185 9.3207-6.0196 13.204-10.097 2.5243-2.7185-1.5534-6.7963-4.0778-4.0778-3.4953 3.6894-7.5731 6.7963-12.039 9.3207-0.19419 0.19417-0.38836 0.19417-0.58255 0.38836-0.38837-3.8836-0.77673-7.573-0.9709-11.457 0.38836-0.19419 0.9709-0.38836 1.3593-0.77671 4.8545-5.2429 10.097-10.097 15.729-14.369 2.9127-2.136 0-7.1847-2.9127-5.0487-5.2429 3.8836-10.292 8.3498-14.758 13.01-0.38836-4.4661-0.77671-8.9323-0.97088-13.204 5.2429-4.4662 10.874-8.3498 16.894-11.845 3.3011-1.9418 0.38836-6.7963-2.9127-5.0487-5.0487 2.9127-9.709 6.0196-14.369 9.5148-0.19419-3.1069-0.19419-6.2138-0.19419-9.3206l0.38836-0.38836c3.4952-2.9127 6.7963-6.2138 10.097-9.3207 2.7185-2.5243-1.3592-6.6021-4.0778-4.0778-1.7476 1.7476-3.6895 3.3011-5.4371 5.0487-0.19419 0.19418-0.58256 0.38836-0.77673 0.77673 0.19417-3.6894 0.38837-7.573 0.97089-11.262 0.38836-3.6894-5.437-3.6894-5.8254 0-0.38836 2.9127-0.58254 5.8254-0.77672 8.544-3.1069-2.136-6.408-3.6894-9.9032-5.2429-3.4953-1.3593-5.0487 4.272-1.5534 5.6312 4.0778 1.7476 7.5731 3.6894 11.068 6.408-0.9709 1.1651-1.1651 2.5243-0.19418 3.8836 0.19418 0.19416 0.19418 0.19416 0.38837 0.38836v4.272c-4.0778-0.97092-8.1556-2.3302-11.845-4.0778-3.3011-1.7476-6.2138 3.3011-2.9127 5.0487 4.8545 2.3302 9.709 4.0778 14.952 5.0487 0 1.1651 0.19418 2.5244 0.19418 3.6894-0.38836 0.77672-0.38836 1.7476 0.19418 2.5243 0.19418 2.3302 0.19418 4.6603 0.38836 6.9905-6.0196-1.1651-11.457-3.6894-16.311-7.1847-3.1069-2.136-6.0196 2.9127-2.9127 5.0487 6.0196 4.272 12.622 6.9905 19.806 8.1556 0.38835 3.6894 0.58254 7.3789 0.9709 10.874-5.4371-2.3302-11.068-4.272-16.7-6.0196-3.6894-0.97092-5.0487 4.6603-1.5534 5.6312 6.0196 1.7476 11.845 3.8836 17.476 6.2138 0.38835 0.19415 0.97089 0.19415 1.3592 0.19415 0.38836 3.3011 0.58253 6.6022 0.77672 9.709-4.6603-2.136-9.1265-4.272-13.593-6.7963-3.3011-1.7476-6.2138 3.3011-2.9127 5.0487 5.6312 3.1069 11.262 5.8254 17.088 8.1556 0.19419 3.4952 0.38836 6.7963 0.58255 10.292-6.2138-1.9418-12.039-4.6604-17.476-8.1556-3.1069-1.9418-6.0196 2.9127-2.9127 5.0487 6.408 4.0778 13.398 7.1847 20.583 9.1265v10.292c-6.0196-1.9418-12.039-4.0778-17.67-6.9905-3.301-1.5534-6.408 3.4952-2.9127 5.0487 6.6021 3.1069 13.398 5.8254 20.389 7.9614 0.19417 3.3011 5.6312 3.1069 5.8254-0.38837 0-1.1651 0-2.136 0.19417-3.301 0.38836-0.19419 0.77671-0.38836 1.1651-0.77673 4.8545-4.6603 9.5149-9.1265 14.369-13.787 1.9418-2.5244-2.136-6.6022-4.8545-4.0778z" stroke-width="1.9418"/>
   <path id="path56" class="st8" d="m904.78 362.18-45.827 49.128c-4.0778 4.4662-0.58252 11.457 5.4371 10.68 6.0196-0.77671 9.5149 6.408 5.4371 10.874l-32.234 33.399c-3.8836 4.0778-1.1651 10.874 4.4661 10.874l16.505 0.38836c6.0196 0.19419 8.5439 7.7672 3.8836 11.457l-41.943 33.593c-4.6603 3.6894-2.136 11.262 3.8836 11.457l26.214 0.97088c5.6312 0.19421 8.3498 7.1847 4.272 11.068l-28.545 26.409c-4.272 4.0778-1.3593 11.068 4.4661 11.068h163.89c5.8255 0 8.544-6.9905 4.4662-11.068l-31.263-29.904c-4.0778-3.8836-1.5534-10.486 3.8836-11.068l30.68-2.5243c6.0197-0.58256 8.1557-8.1556 3.107-11.651l-40.195-27.962c-4.8545-3.3011-3.1069-10.874 2.7185-11.651l11.651-1.7476c5.437-0.77672 7.3788-7.3789 3.4952-11.068l-37.088-34.176c-4.4662-4.0778-1.3593-11.457 4.6603-11.068l2.3302 0.19419c5.8254 0.38836 8.9323-6.6022 5.0487-10.874l-44.079-46.603c-2.5244-2.9127-6.7963-2.9127-9.3207-0.1942z" stroke-width="1.9418"/>
   <path id="path62" class="st9" d="m936.04 560.82c-3.6894 3.6894-7.5731 7.1847-11.262 10.874 0-3.4952 0-7.1847-0.19419-10.68 0.38836 0 0.97091-0.38835 1.3593-0.58254 4.6603-3.8836 8.7381-8.1556 12.622-12.622 2.3302-2.9127-1.7476-6.9905-4.0778-4.0778-3.1069 3.6894-6.408 7.3788-10.097 10.486 0-1.1651-0.19419-2.136-0.19419-3.3011 0.77673-1.1651 0.77673-2.7185-0.19417-3.8836-0.19419-2.136-0.38836-4.4661-0.58255-6.6021 0.77672 0.58255 1.9418 0.77672 3.1069 0.19419 4.8545-2.7185 9.3207-6.0196 13.204-10.097 2.5243-2.7185-1.5534-6.7963-4.0778-4.0778-3.4953 3.6894-7.5731 6.7963-12.039 9.3207-0.19419 0.19419-0.38836 0.19419-0.58255 0.38836-0.38837-3.8836-0.77673-7.573-0.9709-11.457 0.38836-0.19419 0.9709-0.38836 1.3593-0.77672 4.8545-5.2429 10.097-10.097 15.729-14.369 2.9127-2.136 0-7.1847-2.9127-5.0487-5.2429 3.8836-10.292 8.3498-14.758 13.01-0.38836-4.4662-0.77673-8.9323-0.97088-13.204 5.2429-4.4662 10.874-8.3498 16.894-11.845 3.3011-1.9418 0.38836-6.7963-2.9127-5.0487-5.0487 2.9127-9.709 6.0196-14.369 9.5148-0.19419-3.1069-0.19419-6.2138-0.19419-9.3207 2.136-1.3592 3.8836-3.6894 5.4371-5.0487 3.4952-3.1069 6.7963-6.2138 10.292-9.5148 2.7185-2.5244-1.3593-6.6022-4.0778-4.0778-2.5243 2.3302-5.2429 4.8545-7.7672 7.1847-1.1651 1.1651-2.3302 2.136-3.4952 3.301 0.1942-3.6894 0.38835-7.573 0.97091-11.262 0.38836-3.6894-5.4371-3.6894-5.8254 0-0.38836 2.9127-0.58254 5.6312-0.77672 8.544-4.4662-3.1069-8.9323-5.6312-13.981-7.7672-3.4952-1.3593-6.4079 3.4953-2.9127 5.0487 5.8254 2.5244 11.457 5.6312 16.505 9.5149-0.77673 1.1651-0.97091 2.5243-0.19419 3.8836 0 0.19417 0.19419 0.38835 0.38837 0.58253v4.0778c-4.0778-0.9709-8.1556-2.3302-11.845-4.0778-3.3011-1.7476-6.2138 3.3011-2.9127 5.0487 4.8545 2.3302 9.709 4.0778 14.952 5.0487 0 1.1651 0.19418 2.5243 0.19418 3.6894-0.38836 0.77672-0.38836 1.7476 0.19418 2.5244 0.19418 2.3302 0.19418 4.6604 0.38836 6.9905-6.0196-1.1651-11.457-3.6894-16.311-7.1847-3.1069-2.136-6.0196 2.9127-2.9127 5.0487 6.0196 4.272 12.622 6.9905 19.806 8.1556 0.38835 3.6894 0.58253 7.3789 0.97089 10.874-5.4371-2.3302-11.068-4.272-16.7-6.0196-3.6894-0.9709-5.0487 4.6603-1.5534 5.6312 6.0196 1.7476 11.845 3.8836 17.476 6.2138 0.38837 0.19417 0.97091 0.19417 1.3593 0.19417 0.38836 3.3011 0.58254 6.6021 0.77673 9.709-4.6603-2.136-9.1265-4.272-13.593-6.7963-3.3011-1.7476-6.2138 3.3011-2.9127 5.0487 5.6312 3.1069 11.262 5.8254 17.088 8.1556 0.19417 3.4953 0.38836 6.7963 0.58253 10.292-6.2138-1.9418-12.039-4.6603-17.476-8.1556-3.1069-1.9418-6.0196 2.9127-2.9127 5.0487 6.408 4.0778 13.398 7.1847 20.583 9.1265v10.292c-6.0196-1.9418-12.039-4.0778-17.67-6.9905-3.3011-1.5534-6.408 3.4952-2.9127 5.0487 6.6021 3.1069 13.398 5.8254 20.389 7.9614 0.19419 3.3011 5.6312 3.1069 5.8254-0.38836 0-1.1651 0-2.136 0.19419-3.3011 0.38836-0.19418 0.77671-0.38835 1.1651-0.77671 4.8545-4.6603 9.5148-9.1265 14.369-13.787 1.7476-2.3302-2.3302-6.408-5.0487-3.8836z" stroke-width="1.9418"/>
   <g id="g68" transform="matrix(1.9418 0 0 1.9418 158.35 -180.37)">
    <path id="path64" class="st9" d="m245.7 361.3c0.2-0.1 0.4-0.2 0.5-0.3 2.5-2.4 4.9-4.7 7.4-7.1 1.4-1.3-0.7-3.5-2.1-2.1-2 1.9-3.9 3.7-5.9 5.6 0-1.1-0.1-2.2-0.1-3.3 0.1-0.3 0.1-0.7 0-1 0-0.4 0-0.8-0.1-1.2 0.3 0 0.6-0.1 0.8-0.4 2.4-2 4.5-4.2 6.5-6.5 1.2-1.5-0.9-3.6-2.1-2.1-1.6 2-3.4 3.9-5.4 5.6 0-0.5-0.1-1.1-0.1-1.6 0.6-0.6 0.6-1.8-0.2-2.4-0.1-1.1-0.2-2.3-0.3-3.4 0.4 0.5 1.1 0.7 1.8 0.4 2.5-1.4 4.8-3.1 6.8-5.2 1.3-1.4-0.8-3.5-2.1-2.1-1.8 1.9-3.9 3.5-6.2 4.8-0.2 0.1-0.4 0.3-0.5 0.4-0.2-2-0.4-4-0.5-6.1 0.3 0 0.6-0.2 0.9-0.5 2.5-2.7 5.2-5.2 8.1-7.4 1.5-1.1 0-3.7-1.5-2.6-2.8 2.1-5.4 4.4-7.8 6.9 0-0.3-0.1-0.7-0.1-1 0.1-0.3 0-0.6-0.1-0.9-0.1-1.6-0.2-3.3-0.3-4.9 2.8-2.3 5.7-4.4 8.8-6.2 1.7-1 0.2-3.5-1.5-2.6-2.6 1.5-5.1 3.2-7.4 5v-4.8l0.1-0.1c2.2-1.8 4.3-3.9 6.4-5.8 1.4-1.3-0.7-3.4-2.1-2.1-1.1 1-2.2 2-3.3 3.1-0.3 0.3-0.6 0.5-0.8 0.8 0.1-1.9 0.2-3.9 0.5-5.8 0.2-1.9-2.8-1.9-3 0-0.2 1.5-0.3 2.9-0.4 4.4-1.9-1.3-3.8-2.3-6-3.2-1.8-0.7-2.6 2.2-0.8 2.9 2.4 1 4.5 2.3 6.6 3.8-0.5 0.6-0.6 1.5 0 2.2v2.2c-2.1-0.5-4.1-1.2-6.1-2.1-1.7-0.9-3.2 1.7-1.5 2.6 2.4 1.2 5 2.1 7.6 2.6 0 0.7 0 1.4 0.1 2.1-0.1 0.3-0.1 0.6 0 0.8 0.1 1.3 0.1 2.6 0.2 3.8-3-0.6-5.8-1.9-8.3-3.7-1.6-1.1-3.1 1.5-1.5 2.6 3 2.2 6.4 3.5 10 4.1 0.1 1.9 0.3 3.7 0.5 5.6-2.8-1.1-5.5-2.1-8.4-3-1.9-0.5-2.6 2.4-0.8 2.9 3.1 0.9 6.1 2 9 3.2 0.2 0.1 0.3 0.1 0.5 0.1 0.1 1.7 0.3 3.3 0.4 5-2.3-1-4.6-2.2-6.8-3.4-1.7-0.9-3.2 1.7-1.5 2.6 2.8 1.5 5.7 2.9 8.6 4.2 0.1 1.8 0.3 3.6 0.4 5.4-3.1-1-6.1-2.3-8.9-4.1-1.6-1-3.1 1.5-1.5 2.6 3.3 2.1 6.8 3.7 10.6 4.7 0.1 1.8 0.1 3.5 0.1 5.3-3.2-1-6.2-2.1-9.2-3.6-1.7-0.8-3.3 1.8-1.5 2.6 3.5 1.7 7 3 10.7 4.1 0 1.2-0.1 2.5-0.2 3.7-0.1 1.9 2.9 1.9 3 0-0.1-2.3 0-4.2 0-6.1z"/>
    <path id="path66" class="st9" d="m252.1 362.8c-2.1 1.9-4.2 3.8-6.4 5.7-1.4 1.3 0.7 3.4 2.1 2.1 2.1-1.9 4.2-3.8 6.4-5.7 1.5-1.3-0.7-3.4-2.1-2.1z"/>
   </g>
  </g>
  <g id="g2398" transform="translate(-294.72 -3.2014)">
   <path id="path58" class="st7" d="m427.1 482.76-29.71 32.04c-2.7185 2.9127-0.38837 7.3789 3.4952 6.9905 3.8836-0.38836 6.2138 4.272 3.4952 6.9905l-20.971 21.748c-2.5244 2.7185-0.77673 6.9905 2.9127 6.9905l10.68 0.19417c3.8836 0 5.6312 5.0487 2.5244 7.3789l-27.185 21.748c-3.1069 2.3302-1.3592 7.3789 2.5244 7.3789l16.894 0.58253c3.6894 0.19419 5.437 4.6603 2.7185 7.1847l-18.253 17.282c-2.7185 2.5243-0.97089 7.1847 2.9127 7.1847h106.41c3.6894 0 5.6312-4.6603 2.9127-7.1847l-20.195-19.418c-2.5244-2.5243-0.97091-6.7963 2.5244-7.1847l19.806-1.7476c3.8836-0.38836 5.2429-5.4371 1.9418-7.573l-26.214-18.253c-3.1069-2.136-1.9418-6.9905 1.7476-7.573l7.5731-1.1651c3.4952-0.58256 4.8545-4.8545 2.3302-7.1847l-24.078-22.137c-2.9127-2.7185-0.77672-7.3789 3.1069-7.1847h1.5534c3.6894 0.19418 5.8254-4.272 3.301-6.9905l-28.545-30.292c-1.7476-1.5534-4.6603-1.5534-6.2138 0.19419z" stroke-width="1.9418"/>
  </g>
  <path id="path60" class="st10" d="m411.03 606.94" stroke-width="1.9418"/>
  <g id="g2500" transform="translate(-294.72 -3.2014)">
   <g id="g168" transform="matrix(1.9418 0 0 1.9418 158.35 -180.37)">
    <path id="path70" class="st11" d="m319.3 404.1c-0.4 0.4-2.3 1.9-5 1.9s-4.4-1.5-4.9-1.9v-143h9.9z"/>
    <g id="g118">
     <defs id="defs73">
      <path id="SVGID_1_" d="m319.3 404.1c-0.4 0.4-2.3 1.9-5 1.9s-4.4-1.5-4.9-1.9v-143h9.9z"/>
     </defs>
     <clipPath id="SVGID_2_">
      <use id="use75" width="100%" height="100%" xlink:href="#SVGID_1_"/>
     </clipPath>
     <g id="g112" class="st12" clip-path="url(#SVGID_2_)">
      <path id="path78" class="st13" d="m318.7 282.2c-0.2 0.2-2.7 3-1.8 6.5 0.6 2.2 2.2 3.4 2.8 3.8"/>
      <path id="path80" class="st13" d="m319.3 276.4c-1.1 0.2-3.1 0.7-4.5 2.4-1.5 1.8-1.4 3.9-1.3 6.5 0.1 2.2 0.4 7.7 3.9 9.6 0.7 0.4 1.4 0.5 1.8 0.6"/>
      <path id="path82" class="st13" d="m319.9 274.2c-0.9 0-2.4 0.2-3.9 1-3.5 1.9-4.4 5.6-4.8 7.2-1 4 0.1 7.2 0.4 8.2 0.5 1.5 1.3 3.8 3.6 5.5 1.8 1.3 3.6 1.7 4.6 1.8"/>
      <path id="path84" class="st13" d="m309.4 291.6c0.3 1.5 0.9 3.6 2.3 5.7 0.8 1.2 1.9 2.7 3.9 3.9 1.6 0.9 3.1 1.2 4.1 1.3"/>
      <path id="path86" class="st13" d="m309.4 309c0.4 0.2 1.2 0.7 1.8 1.8 0.1 0.2 0.5 0.9 0.5 2 0 0.5 0 1.4-0.5 2.2-0.6 0.9-1.4 1.2-1.7 1.3"/>
      <path id="path88" class="st13" d="m309 306.2c0.7 0.1 1.9 0.4 3 1.2 1.6 1.2 2.2 2.9 2.4 3.5 0.4 1.2 0.4 2.1 0.3 3 0 0.9 0 1.9-0.5 3-0.6 1.4-1.4 2.2-1.6 2.3-0.4 0.4-1 0.9-1.8 1.1-0.6 0.2-1.1 0.1-1.4 0.1"/>
      <path id="path90" class="st13" d="m309.4 343.7c1.3-0.2 4.9-0.9 7.6-3.8 0.7-0.7 1.9-2.1 2.4-4.3 0.4-1.7 0.2-3.1 0-3.9"/>
      <path id="path92" class="st13" d="m319.3 351.5c-1.2 0.7-1.8 1.6-2.1 2.1-1 1.6-1.5 4.3-0.1 5.8 0.5 0.5 1.1 0.7 1.5 0.8"/>
      <path id="path94" class="st13" d="m319.3 347.4c-0.9 0.4-2.2 1.1-3.4 2.4-2.3 2.5-2.8 5.3-3 6.7-0.2 1.3-0.5 4 0.8 6.6 0.4 0.7 1 1.9 2.4 2.9 1.2 0.8 2.5 1.1 3.1 1.1"/>
      <path id="path96" class="st13" d="m319.3 341.8c-1.1 0.8-2.7 2-4.5 3.6-0.8 0.7-2.3 2.1-3.3 3.5-4.5 6-1.9 14.8-1.7 15.4 0.6 1.9 1.3 4.1 3.5 6 2.3 2 4.8 2.4 6 2.5"/>
      <path id="path98" class="st13" d="m309.4 372.1c-0.1 0.8-0.1 3.5 1.6 6 0.4 0.5 2.2 3.1 5.5 3.6 1.2 0.2 2.1 0 2.8-0.1"/>
      <path id="path100" class="st13" d="m309.4 379.2c0.2 1 0.7 2.3 1.5 3.5 2.7 3.9 7.4 4.5 8.4 4.6"/>
      <path id="path102" class="st13" d="m309.4 393c0.5 0.6 1.3 1.6 1.9 2.9 0.5 1 1 2.2 1 3.8 0 1.5-0.6 2.7-1 3.5"/>
      <path id="path104" class="st13" d="m309.4 388.3c1 0.5 2.5 1.4 3.8 3.1 2.3 3 2.2 6.3 2.1 7.8-0.1 4-1.9 6.9-2.8 8.1"/>
      <path id="path106" class="st13" d="m309.4 385.5c1.4 0.6 5.8 2.7 7.9 7.5 1.4 3.2 1.1 6.1 1 7.9-0.3 3.9-1.7 6.8-2.6 8.4"/>
      <path id="path108" class="st13" d="m308.5 300.8c1.3 0.4 4.1 1.5 6.4 4.3 0.8 0.9 3.8 4.9 2.8 10.1-1.2 6.8-8.1 9.3-8.3 9.4"/>
      <path id="path110" class="st13" d="m308.4 331.9c2.2-1.1 6.7-3.8 9.9-9.2 1.7-2.9 2.5-5.6 2.9-7.6"/>
     </g>
     <path id="path114" class="st14" d="m307 272.9c1-0.6 3-1.8 4.5-4.1 1.9-2.8 2.2-5.5 2.2-6.7" clip-path="url(#SVGID_2_)"/>
     <path id="path116" class="st14" d="m310 272.9c1-0.6 3-1.8 4.5-4.1 1.9-2.8 2.2-5.5 2.2-6.7" clip-path="url(#SVGID_2_)"/>
    </g>
    <g id="g122">
     <path id="path120" class="st15" d="m357.1 290.5c-0.1-1.3-1-2.3-1.8-3.3-5.1-5.7-12.2-9.2-19.5-11.6-6-1.7-12-3.3-18.1-5-0.7-0.3-2-0.7-3.6-0.7s-2.8 0.4-3.5 0.8c-6 1.7-12 3.5-17.9 5.2-7.3 2.4-14.4 5.8-19.5 11.6-0.8 0.9-1.6 2-1.8 3.3-0.1 1.3 0.6 2.7 1.9 2.9 1.9 0.2 3.2-2.4 5.1-2.3 0.7 0 1.3 0.3 1.9 0.5 2.1 0.6 4.7-0.7 5.3-2.9 0.2-0.5 0.2-1.1 0.7-1.4 0.6-0.4 1.4-0.1 2.1 0.1 3.6 1.2 7.9-0.9 9.2-4.5 1.1 0.6 2.9 1.4 4.8 1 2.6-0.6 2.9-3 5.5-3.7 2.3-0.6 2.8 1.2 6.2 1.2 3.8 0.1 4.7-2 7.2-1.2 2.4 0.7 2.5 2.8 4.9 3.5 1.8 0.5 3.6-0.3 4.8-1 1.3 3.5 5.6 5.6 9.2 4.5 0.7-0.2 1.5-0.5 2.1-0.1 0.4 0.3 0.5 0.9 0.7 1.4 0.7 2.1 3.2 3.5 5.3 2.9 0.6-0.2 1.3-0.5 1.9-0.5 1.9 0 3.2 2.6 5.1 2.3 1.2-0.3 2-1.7 1.8-3z"/>
    </g>
    <g id="g126">
     <path id="path124" class="st16" d="m357.1 292.5c-0.1-1.3-1-2.3-1.8-3.3-5.1-5.7-12.2-9.2-19.5-11.6-6-1.7-12-3.3-18.1-5-0.7-0.3-2-0.7-3.6-0.7s-2.8 0.4-3.5 0.8c-6 1.7-12 3.5-17.9 5.2-7.3 2.4-14.4 5.8-19.5 11.6-0.8 0.9-1.6 2-1.8 3.3-0.1 1.3 0.6 2.7 1.9 2.9 1.9 0.2 3.2-2.4 5.1-2.3 0.7 0 1.3 0.3 1.9 0.5 2.1 0.6 4.7-0.7 5.3-2.9 0.2-0.5 0.2-1.1 0.7-1.4 0.6-0.4 1.4-0.1 2.1 0.1 3.6 1.2 7.9-0.9 9.2-4.5 1.1 0.6 2.9 1.4 4.8 1 2.6-0.6 2.9-3 5.5-3.7 2.3-0.6 2.8 1.2 6.2 1.2 3.8 0.1 4.7-2 7.2-1.2 2.4 0.7 2.5 2.8 4.9 3.5 1.8 0.5 3.6-0.3 4.8-1 1.3 3.5 5.6 5.6 9.2 4.5 0.7-0.2 1.5-0.5 2.1-0.1 0.4 0.3 0.5 0.9 0.7 1.4 0.7 2.1 3.2 3.5 5.3 2.9 0.6-0.2 1.3-0.5 1.9-0.5 1.9 0 3.2 2.6 5.1 2.3 1.2-0.3 2-1.7 1.8-3z"/>
    </g>
    <g id="g130">
     <path id="path128" class="st15" d="m353.2 342.4c-11.5-6.2-23.7-11.1-36.3-14.5-1.5-0.4-3-0.4-4.5 0-12.7 3.4-25.4 8.5-36.9 14.7-1.9 1-3.8 2.1-5.1 3.9 2.8 0.9 6.1-0.1 8-2.3 2.5 2.3 7.3 1.1 8.3-2.1 0.3 2.2 3.2 3.4 5.3 2.6s3.4-3 3.8-5.2c0.4 0.4 2.6 2.6 5.8 2.3 3.1-0.2 5.9-2.7 6.7-6.2 1.3 2.1 3.6 3.4 6.1 3.3 3.9-0.1 5.8-3.4 5.8-3.6 0.8 3.5 3.6 5.9 6.7 6.2 3.2 0.3 5.5-2 5.8-2.3 0.4 2.2 1.7 4.4 3.8 5.2s4.9-0.4 5.3-2.6c1 3.2 5.8 4.5 8.3 2.1 1.9 2.2 5.2 3.2 8 2.3-1.1-1.7-3-2.8-4.9-3.8z"/>
    </g>
    <g id="g134">
     <path id="path132" class="st15" d="m357.8 316.4c-15-11-40.2-16.9-40.2-16.9-0.7-0.2-1.6-0.4-2.7-0.3-1.5 0-2.6 0.4-2.9 0.6-2.8 1-29.4 9-40.2 16.9-1.3 0.9-2.8 2.2-2.6 3.3 0.3 1 1.5 1.6 2.5 1.4 1-0.1 1.9-0.8 2.7-1.5 0.3-0.3 0.7-0.7 1.1-0.7 0.5 0 0.8 0.4 1.2 0.8 1.2 1.1 3 1.2 4.4 0.7 1.5-0.5 2.7-1.7 3.6-2.9 0.2-0.3 0.5-0.6 0.9-0.7 0.6-0.1 1.1 0.6 1.5 1.1 1.3 1.4 3.6 1.3 5.2 0.3s2.7-2.6 4-4c0.2-0.3 0.5-0.5 0.8-0.6 0.5 0 0.8 0.4 1.1 0.8 1.5 1.8 4.2 2.5 6.4 1.7s3.8-3 3.9-5.4c0.2 0.2 2.5 3.3 6.5 3.1 3.6-0.2 5.5-3 5.8-3.3 0.1 2.3 1.7 4.6 3.9 5.4s4.9 0.1 6.4-1.7c0.3-0.4 0.7-0.8 1.1-0.8 0.3 0 0.6 0.3 0.8 0.6 1.2 1.4 2.4 3 4 4s4 1.1 5.2-0.3c0.4-0.5 0.9-1.2 1.5-1.1 0.4 0.1 0.6 0.4 0.9 0.7 1 1.3 2.1 2.4 3.6 2.9s3.3 0.4 4.4-0.7c0.4-0.3 0.7-0.8 1.2-0.8s0.8 0.3 1.1 0.7c0.7 0.7 1.6 1.4 2.7 1.5 1 0.1 2.2-0.4 2.5-1.4 0.5-1.2-1.2-2.6-2.3-3.4z"/>
    </g>
    <g id="g138">
     <path id="path136" class="st16" d="m357.8 318.4c-15-11-40.2-16.9-40.2-16.9-0.7-0.2-1.6-0.4-2.7-0.3-1.5 0-2.6 0.4-2.9 0.6-2.8 1-29.4 9-40.2 16.9-1.3 0.9-2.8 2.2-2.6 3.3 0.3 1 1.5 1.6 2.5 1.4 1-0.1 1.9-0.8 2.7-1.5 0.3-0.3 0.7-0.7 1.1-0.7 0.5 0 0.8 0.4 1.2 0.8 1.2 1.1 3 1.2 4.4 0.7 1.5-0.5 2.7-1.7 3.6-2.9 0.2-0.3 0.5-0.6 0.9-0.7 0.6-0.1 1.1 0.6 1.5 1.1 1.3 1.4 3.6 1.3 5.2 0.3s2.7-2.6 4-4c0.2-0.3 0.5-0.5 0.8-0.6 0.5 0 0.8 0.4 1.1 0.8 1.5 1.8 4.2 2.5 6.4 1.7s3.8-3 3.9-5.4c0.2 0.2 2.5 3.3 6.5 3.1 3.6-0.2 5.5-3 5.8-3.3 0.1 2.3 1.7 4.6 3.9 5.4s4.9 0.1 6.4-1.7c0.3-0.4 0.7-0.8 1.1-0.8 0.3 0 0.6 0.3 0.8 0.6 1.2 1.4 2.4 3 4 4s4 1.1 5.2-0.3c0.4-0.5 0.9-1.2 1.5-1.1 0.4 0.1 0.6 0.4 0.9 0.7 1 1.3 2.1 2.4 3.6 2.9s3.3 0.4 4.4-0.7c0.4-0.3 0.7-0.8 1.2-0.8s0.8 0.3 1.1 0.7c0.7 0.7 1.6 1.4 2.7 1.5 1 0.1 2.2-0.4 2.5-1.4 0.5-1.2-1.2-2.6-2.3-3.4z"/>
    </g>
    <g id="g142">
     <path id="path140" class="st16" d="m353.2 344.9c-11.5-6.2-23.7-11.1-36.3-14.5-1.5-0.4-3-0.4-4.5 0-12.7 3.4-25.4 8.5-36.9 14.7-1.9 1-3.8 2.1-5.1 3.9 2.8 0.9 6.1-0.1 8-2.3 2.5 2.3 7.3 1.1 8.3-2.1 0.3 2.2 3.2 3.4 5.3 2.6s3.4-3 3.8-5.2c0.4 0.4 2.6 2.6 5.8 2.3 3.1-0.2 5.9-2.7 6.7-6.2 1.3 2.1 3.6 3.4 6.1 3.3 3.9-0.1 5.8-3.4 5.8-3.6 0.8 3.5 3.6 5.9 6.7 6.2 3.2 0.3 5.5-2 5.8-2.3 0.4 2.2 1.7 4.4 3.8 5.2s4.9-0.4 5.3-2.6c1 3.2 5.8 4.5 8.3 2.1 1.9 2.2 5.2 3.2 8 2.3-1.1-1.7-3-2.8-4.9-3.8z"/>
    </g>
    <g id="g146">
     <path id="path144" class="st15" d="m342.5 383c-1.3-2.6-3.6-4.6-5.9-6.4-3.6-2.7-7.6-5.9-13.8-7.7-2-0.6-4.7-1.3-8.3-1.3-3.2 0.1-5.5 0.8-7.7 1.5-6.6 2.1-10.8 5.4-13.8 7.7-2.3 1.7-4.6 3.7-5.9 6.4s-1.4 6 0.5 8.3c0.4 0.5 0.9 0.9 1.5 0.9s1.1-0.5 1.4-1c0.9-1.5 0.9-3.5 0-5 0.6 1.3 2.6 1.2 3.5 0.1 0.6-0.8 0.8-1.8 0.7-2.9 0.5 0.9 1.8 1.5 2.9 1.2 1.5-0.5 2.3-2 2.7-3.5s0.4-3.1 1-4.5c0.3 1 1.5 1.6 2.6 1.4 1.1-0.1 2-0.8 2.7-1.5 1.3-1.2 2.2-2.8 2.8-4.5 0.1-0.2 0.1-0.4 0.3-0.5 0.4-0.3 1 0.1 1.2 0.3 1.8 1 6 0.8 7.8-0.2 0.2-0.1 0.9-0.5 1.2-0.3 0.1 0.1 0.2 0.3 0.3 0.5 0.6 1.7 1.5 3.2 2.8 4.5 0.8 0.8 1.7 1.4 2.7 1.5 1.1 0.1 2.3-0.4 2.6-1.4 0.5 1.4 0.6 3 1 4.5s1.2 3 2.7 3.5c1.1 0.4 2.4-0.2 2.9-1.2-0.1 1 0.1 2.1 0.7 2.9 0.9 1.1 2.9 1.2 3.5-0.1-0.9 1.5-0.9 3.5 0 5 0.3 0.5 0.8 1 1.4 1s1.1-0.4 1.5-0.9c1.9-2.3 1.8-5.7 0.5-8.3z"/>
    </g>
    <g id="g150">
     <path id="path148" class="st15" d="m360.8 356.6c-1.8 2.4-4.7 3.6-7.6 4s-5.9 0-8.8-0.5c-16.4-2.6-19.9-4.1-19.9-4.1-5.3-1.3-7.1-1.7-10.1-1.6-2.9 0.1-4.2 0.6-9.3 1.9-4 1-9.2 2.4-19.9 4.1-2.9 0.5-5.9 0.9-8.8 0.5s-5.8-1.7-7.6-4c-0.4 3.7 1.4 7.5 4.5 9.6s7.3 2.3 10.6 0.5c0.4-0.2 0.7-0.4 1.1-0.4 0.9 0 1.5 0.8 2.2 1.3 1.7 1.4 4.4 0.9 6.1-0.4s2.8-3.4 3.8-5.3c-0.6 2.1 2.2 3.8 4.3 3.1s3.3-2.8 4.3-4.7c0.8 1.9 3.8 2.5 5.3 1.1 0.7-0.7 0.6-1.6 1.6-2.3 1.1-0.8 2.8-0.8 4-0.2 1.3 0.7 1.1 1.7 2.1 2.3 0.8 0.5 2.4 0.6 5.3-1.1 1 1.9 2.2 4 4.3 4.7s4.9-1.1 4.3-3.1c1 2 2.1 4 3.8 5.3s4.4 1.8 6.1 0.4c0.7-0.5 1.3-1.4 2.2-1.3 0.4 0 0.8 0.2 1.1 0.4 3.3 1.7 7.5 1.5 10.6-0.5 3-2.2 4.8-6 4.4-9.7z"/>
    </g>
    <g id="g154">
     <path id="path152" class="st16" d="m342.5 385.5c-1.3-2.6-3.6-4.6-5.9-6.4-3.6-2.7-7.6-5.9-13.8-7.7-2-0.6-4.7-1.3-8.3-1.3-3.2 0.1-5.5 0.8-7.7 1.5-6.6 2.1-10.8 5.4-13.8 7.7-2.3 1.7-4.6 3.7-5.9 6.4s-1.4 6 0.5 8.3c0.4 0.5 0.9 0.9 1.5 0.9s1.1-0.5 1.4-1c0.9-1.5 0.9-3.5 0-5 0.6 1.3 2.6 1.2 3.5 0.1 0.6-0.8 0.8-1.8 0.7-2.9 0.5 0.9 1.8 1.5 2.9 1.2 1.5-0.5 2.3-2 2.7-3.5s0.4-3.1 1-4.5c0.3 1 1.5 1.6 2.6 1.4 1.1-0.1 2-0.8 2.7-1.5 1.3-1.2 2.2-2.8 2.8-4.5 0-0.1 0.1-0.4 0.3-0.5 0.4-0.1 0.8 1 1.4 1.7 1.5 1.6 5.5 1.6 7.3-0.2 0.6-0.6 1.1-1.4 1.5-1.3 0.3 0.1 0.3 0.6 0.4 1.2 0.4 1.4 1.4 2.3 2.6 3.3s1.9 1.4 2.7 1.5c1.1 0.1 2.3-0.4 2.6-1.4 0.5 1.4 0.6 3 1 4.5s1.2 3 2.7 3.5c1.1 0.4 2.4-0.2 2.9-1.2-0.1 1 0.1 2.1 0.7 2.9 0.9 1.1 2.9 1.2 3.5-0.1-0.9 1.5-0.9 3.5 0 5 0.3 0.5 0.8 1 1.4 1s1.1-0.4 1.5-0.9c2-2.2 1.9-5.6 0.6-8.2z"/>
    </g>
    <g id="g158">
     <path id="path156" class="st16" d="m360.8 358.6c-1.8 2.4-4.7 3.6-7.6 4s-5.9 0-8.8-0.5c-16.4-2.6-19.9-4.1-19.9-4.1-5.3-1.3-7.1-1.7-10.1-1.6-2.9 0.1-4.2 0.6-9.3 1.9-4 1-9.2 2.4-19.9 4.1-2.9 0.5-5.9 0.9-8.8 0.5s-5.8-1.7-7.6-4c-0.4 3.7 1.4 7.5 4.5 9.6s7.3 2.3 10.6 0.5c0.4-0.2 0.7-0.4 1.1-0.4 0.9 0 1.5 0.8 2.2 1.3 1.7 1.4 4.4 0.9 6.1-0.4s2.8-3.4 3.8-5.3c-0.6 2.1 2.2 3.8 4.3 3.1s3.3-2.8 4.3-4.7c0.8 1.9 3.8 2.5 5.3 1.1 0.7-0.7 0.6-1.6 1.6-2.3 1.1-0.8 2.8-0.8 4-0.2 1.3 0.7 1.1 1.7 2.1 2.3 0.8 0.5 2.4 0.6 5.3-1.1 1 1.9 2.2 4 4.3 4.7s4.9-1.1 4.3-3.1c1 2 2.1 4 3.8 5.3s4.4 1.8 6.1 0.4c0.7-0.5 1.3-1.4 2.2-1.3 0.4 0 0.8 0.2 1.1 0.4 3.3 1.7 7.5 1.5 10.6-0.5 3-2.2 4.8-6 4.4-9.7z"/>
    </g>
    <g id="g162">
     <path id="path160" class="st15" d="m348.2 261.9c-1.1-0.9-2.5-1-2.9-1-4.1-0.1-11.3-1.9-14.2-3-4.2-1.5-7.6-3.8-13.2-9.7-0.7-0.7-1.5-1.4-2.3-2.2-0.5-0.5-1.4-0.5-1.9 0-0.7 0.6-1.5 1.4-2.4 2.2-6.4 5.6-9.6 8.4-13.2 9.7-2.9 1.1-10.2 2.9-14.2 3-0.4 0-1.8 0.1-2.9 1-0.8 0.7-1.1 2.1-0.7 2.8 0.6 1 3.1 0.9 6-0.4 0.2 0.2 2.7 2.7 6.2 2.1 3.2-0.5 4.8-3.2 5-3.5 0.2 0.2 3.7 3.6 8.2 2.6 2.9-0.7 4.6-2.7 5-3.4 0.1 0.2 1.4 2 3.7 2.1 2.5 0.1 3.8-2 3.9-2.1 0.5 0.6 2.1 2.7 5 3.4 4.5 1 8-2.3 8.2-2.6 0.2 0.3 1.8 3 5 3.5 3.6 0.6 6-1.9 6.2-2.1 3 1.4 5.4 1.4 6 0.4 0.7-0.7 0.4-2.1-0.5-2.8z"/>
    </g>
    <g id="g166">
     <path id="path164" class="st16" d="m348.2 264.4c-1.1-0.9-2.5-1-2.9-1-4.1-0.1-11.3-1.9-14.2-3-4.2-1.5-7.6-3.8-13.2-9.7-0.7-0.7-1.5-1.4-2.3-2.2-0.5-0.5-1.4-0.5-1.9 0-0.7 0.6-1.5 1.4-2.4 2.2-6.4 5.6-9.6 8.4-13.2 9.7-2.9 1.1-10.2 2.9-14.2 3-0.4 0-1.8 0.1-2.9 1-0.8 0.7-1.1 2.1-0.7 2.8 0.6 1 3.1 0.9 6-0.4 0.2 0.2 2.7 2.7 6.2 2.1 3.2-0.5 4.8-3.2 5-3.5 1.7 2.4 4.5 3.5 7 2.8 2.7-0.7 3.9-3.1 4.1-3.5 0.2 0.3 2.4 3.1 6.1 3.1 3.8 0 5.9-2.8 6.1-3.1 0.1 0.2 1.3 3.1 4.4 3.7 2.4 0.5 5-0.7 6.4-3 0.2 0.3 1.8 3 5 3.5 3.6 0.6 6-1.9 6.2-2.1 3 1.4 5.4 1.4 6 0.4 0.6-0.7 0.3-2.1-0.6-2.8z"/>
    </g>
   </g>
   <g id="g264" transform="matrix(1.9418 0 0 1.9418 158.35 -180.37)">
    <path id="path170" class="st11" d="m196.3 425.1c-0.4 0.4-2.3 1.9-5 1.9s-4.4-1.5-4.9-1.9v-143h9.9z"/>
    <g id="g214">
     <defs id="defs173">
      <path id="SVGID_3_" d="m196.3 425.1c-0.4 0.4-2.3 1.9-5 1.9s-4.4-1.5-4.9-1.9v-143h9.9z"/>
     </defs>
     <clipPath id="SVGID_4_">
      <use id="use175" width="100%" height="100%" xlink:href="#SVGID_3_"/>
     </clipPath>
     <g id="g212" class="st17" clip-path="url(#SVGID_4_)">
      <path id="path178" class="st13" d="m187.5 295.2c0.2 0.2 2.7 3 1.8 6.5-0.6 2.2-2.2 3.4-2.8 3.8"/>
      <path id="path180" class="st13" d="m186.8 289.4c1.1 0.2 3.1 0.7 4.5 2.4 1.5 1.8 1.4 3.9 1.3 6.5-0.1 2.2-0.4 7.7-3.9 9.6-0.7 0.4-1.4 0.5-1.8 0.6"/>
      <path id="path182" class="st13" d="m186.3 287.2c0.9 0 2.4 0.2 3.9 1 3.5 1.9 4.4 5.6 4.8 7.3 1 4-0.1 7.2-0.4 8.2-0.5 1.5-1.3 3.8-3.6 5.5-1.8 1.3-3.6 1.7-4.6 1.8"/>
      <path id="path184" class="st13" d="m196.7 304.6c-0.3 1.5-0.9 3.6-2.3 5.7-0.8 1.2-1.9 2.7-3.9 3.9-1.6 0.9-3.1 1.2-4.1 1.3"/>
      <path id="path186" class="st13" d="m196.7 322c-0.4 0.2-1.2 0.7-1.8 1.8-0.1 0.2-0.5 0.9-0.5 2 0 0.5 0 1.4 0.5 2.2 0.6 0.9 1.4 1.2 1.7 1.3"/>
      <path id="path188" class="st13" d="m197.1 319.2c-0.7 0.1-1.9 0.4-3 1.2-1.6 1.2-2.2 2.9-2.4 3.5-0.4 1.2-0.4 2.1-0.3 3 0 0.9 0 1.9 0.5 3 0.6 1.4 1.4 2.2 1.6 2.3 0.4 0.4 1 0.9 1.8 1.1 0.6 0.2 1.1 0.1 1.4 0.1"/>
      <path id="path190" class="st13" d="m196.7 316.9c-0.9 0.2-2.2 0.7-3.6 1.6-0.8 0.5-2.2 1.4-3.2 3.1-0.9 1.4-1.1 2.7-1.4 4.7-0.3 1.8-0.5 3.1-0.1 4.8 0.4 2 1.4 3.4 1.8 4s0.9 1.3 1.9 2.1c0.5 0.4 1.5 1.1 2.9 1.4 0.7 0.1 1.3 0.1 1.7 0.1"/>
      <path id="path192" class="st13" d="m196.7 356.7c-1.3-0.2-4.9-0.9-7.6-3.8-0.7-0.7-1.9-2.1-2.4-4.3-0.4-1.7-0.2-3.1 0-3.9"/>
      <path id="path194" class="st13" d="m186.8 364.5c1.2 0.7 1.8 1.6 2.1 2.1 1 1.6 1.5 4.3 0.1 5.8-0.5 0.5-1.1 0.7-1.5 0.8"/>
      <path id="path196" class="st13" d="m186.8 360.4c0.9 0.4 2.2 1.1 3.4 2.4 2.3 2.5 2.8 5.3 3 6.7 0.2 1.3 0.5 4-0.8 6.6-0.4 0.7-1 1.9-2.4 2.9-1.2 0.8-2.5 1.1-3.1 1.1"/>
      <path id="path198" class="st13" d="m186.8 354.8c1.1 0.8 2.7 2 4.5 3.6 0.8 0.7 2.3 2.1 3.3 3.5 4.5 6 1.9 14.8 1.7 15.4-0.6 1.9-1.3 4.1-3.5 6-2.3 2-4.8 2.4-6 2.5"/>
      <path id="path200" class="st13" d="m196.7 385.1c0.1 0.8 0.1 3.5-1.6 6-0.4 0.5-2.2 3.1-5.5 3.6-1.2 0.2-2.1 0-2.8-0.1"/>
      <path id="path202" class="st13" d="m196.7 392.2c-0.2 1-0.7 2.3-1.5 3.5-2.7 3.9-7.4 4.5-8.4 4.6"/>
      <path id="path204" class="st13" d="m196.7 406c-0.5 0.6-1.3 1.6-1.9 2.9-0.5 1-1 2.2-1 3.8 0 1.5 0.6 2.7 1 3.5"/>
      <path id="path206" class="st13" d="m196.7 401.3c-1 0.5-2.5 1.4-3.8 3.1-2.3 3-2.2 6.3-2.1 7.8 0.1 4 1.9 6.9 2.8 8.1"/>
      <path id="path208" class="st13" d="m196.7 398.5c-1.4 0.6-5.8 2.7-7.9 7.5-1.4 3.2-1.1 6.1-1 7.9 0.3 3.9 1.7 6.8 2.6 8.4"/>
      <path id="path210" class="st13" d="m196.7 344.2c-1.2 0-4.5-0.3-7.3-2.7-0.5-0.4-1.4-1.3-2.2-2.7-1.8-3.1-1.5-6.3-1.3-7.5"/>
     </g>
    </g>
    <g id="g218">
     <path id="path216" class="st15" d="m234.1 311.5c-0.1-1.3-1-2.3-1.8-3.3-5.1-5.7-12.2-9.2-19.5-11.6-6-1.7-12-3.3-18.1-5-0.7-0.3-2-0.7-3.6-0.7s-2.8 0.4-3.5 0.8c-6 1.7-12 3.5-17.9 5.2-7.3 2.4-14.4 5.8-19.5 11.6-0.8 0.9-1.6 2-1.8 3.3-0.1 1.3 0.6 2.7 1.9 2.9 1.9 0.2 3.2-2.4 5.1-2.3 0.7 0 1.3 0.3 1.9 0.5 2.1 0.6 4.7-0.7 5.3-2.9 0.2-0.5 0.2-1.1 0.7-1.4 0.6-0.4 1.4-0.1 2.1 0.1 3.6 1.2 7.9-0.9 9.2-4.5 1.1 0.6 2.9 1.4 4.8 1 2.6-0.6 2.9-3 5.5-3.7 2.3-0.6 2.8 1.2 6.2 1.2 3.8 0.1 4.7-2 7.2-1.2 2.4 0.7 2.5 2.8 4.9 3.5 1.8 0.5 3.6-0.3 4.8-1 1.3 3.5 5.6 5.6 9.2 4.5 0.7-0.2 1.5-0.5 2.1-0.1 0.4 0.3 0.5 0.9 0.7 1.4 0.7 2.1 3.2 3.5 5.3 2.9 0.6-0.2 1.3-0.5 1.9-0.5 1.9 0 3.2 2.6 5.1 2.3 1.2-0.3 2-1.7 1.8-3z"/>
    </g>
    <g id="g222">
     <path id="path220" class="st16" d="m234.1 313.5c-0.1-1.3-1-2.3-1.8-3.3-5.1-5.7-12.2-9.2-19.5-11.6-6-1.7-12-3.3-18.1-5-0.7-0.3-2-0.7-3.6-0.7s-2.8 0.4-3.5 0.8c-6 1.7-12 3.5-17.9 5.2-7.3 2.4-14.4 5.8-19.5 11.6-0.8 0.9-1.6 2-1.8 3.3-0.1 1.3 0.6 2.7 1.9 2.9 1.9 0.2 3.2-2.4 5.1-2.3 0.7 0 1.3 0.3 1.9 0.5 2.1 0.6 4.7-0.7 5.3-2.9 0.2-0.5 0.2-1.1 0.7-1.4 0.6-0.4 1.4-0.1 2.1 0.1 3.6 1.2 7.9-0.9 9.2-4.5 1.1 0.6 2.9 1.4 4.8 1 2.6-0.6 2.9-3 5.5-3.7 2.3-0.6 2.8 1.2 6.2 1.2 3.8 0.1 4.7-2 7.2-1.2 2.4 0.7 2.5 2.8 4.9 3.5 1.8 0.5 3.6-0.3 4.8-1 1.3 3.5 5.6 5.6 9.2 4.5 0.7-0.2 1.5-0.5 2.1-0.1 0.4 0.3 0.5 0.9 0.7 1.4 0.7 2.1 3.2 3.5 5.3 2.9 0.6-0.2 1.3-0.5 1.9-0.5 1.9 0 3.2 2.6 5.1 2.3 1.2-0.3 2-1.7 1.8-3z"/>
    </g>
    <g id="g226">
     <path id="path224" class="st15" d="m230.2 363.4c-11.5-6.2-23.7-11.1-36.3-14.5-1.5-0.4-3-0.4-4.5 0-12.7 3.4-25.4 8.5-36.9 14.7-1.9 1-3.8 2.1-5.1 3.9 2.8 0.9 6.1-0.1 8-2.3 2.5 2.3 7.3 1.1 8.3-2.1 0.3 2.2 3.2 3.4 5.3 2.6s3.4-3 3.8-5.2c0.4 0.4 2.6 2.6 5.8 2.3 3.1-0.2 5.9-2.7 6.7-6.2 1.3 2.1 3.6 3.4 6.1 3.3 3.9-0.1 5.8-3.4 5.8-3.6 0.8 3.5 3.6 5.9 6.7 6.2 3.2 0.3 5.5-2 5.8-2.3 0.4 2.2 1.7 4.4 3.8 5.2s4.9-0.4 5.3-2.6c1 3.2 5.8 4.5 8.3 2.1 1.9 2.2 5.2 3.2 8 2.3-1.1-1.7-3-2.8-4.9-3.8z"/>
    </g>
    <g id="g230">
     <path id="path228" class="st15" d="m234.8 337.4c-15-11-40.2-16.9-40.2-16.9-0.7-0.2-1.6-0.4-2.7-0.3-1.5 0-2.6 0.4-2.9 0.6-2.8 1-29.4 9-40.2 16.9-1.3 0.9-2.8 2.2-2.6 3.3 0.3 1 1.5 1.6 2.5 1.4 1-0.1 1.9-0.8 2.7-1.5 0.3-0.3 0.7-0.7 1.1-0.7 0.5 0 0.8 0.4 1.2 0.8 1.2 1.1 3 1.2 4.4 0.7 1.5-0.5 2.7-1.7 3.6-2.9 0.2-0.3 0.5-0.6 0.9-0.7 0.6-0.1 1.1 0.6 1.5 1.1 1.3 1.4 3.6 1.3 5.2 0.3s2.7-2.6 4-4c0.2-0.3 0.5-0.5 0.8-0.6 0.5 0 0.8 0.4 1.1 0.8 1.5 1.8 4.2 2.5 6.4 1.7s3.8-3 3.9-5.4c0.2 0.2 2.5 3.3 6.5 3.1 3.6-0.2 5.5-3 5.8-3.3 0.1 2.3 1.7 4.6 3.9 5.4s4.9 0.1 6.4-1.7c0.3-0.4 0.7-0.8 1.1-0.8 0.3 0 0.6 0.3 0.8 0.6 1.2 1.4 2.4 3 4 4s4 1.1 5.2-0.3c0.4-0.5 0.9-1.2 1.5-1.1 0.4 0.1 0.6 0.4 0.9 0.7 1 1.3 2.1 2.4 3.6 2.9s3.3 0.4 4.4-0.7c0.4-0.3 0.7-0.8 1.2-0.8s0.8 0.3 1.1 0.7c0.7 0.7 1.6 1.4 2.7 1.5 1 0.1 2.2-0.4 2.5-1.4 0.5-1.2-1.2-2.6-2.3-3.4z"/>
    </g>
    <g id="g234">
     <path id="path232" class="st16" d="m234.8 339.4c-15-11-40.2-16.9-40.2-16.9-0.7-0.2-1.6-0.4-2.7-0.3-1.5 0-2.6 0.4-2.9 0.6-2.8 1-29.4 9-40.2 16.9-1.3 0.9-2.8 2.2-2.6 3.3 0.3 1 1.5 1.6 2.5 1.4 1-0.1 1.9-0.8 2.7-1.5 0.3-0.3 0.7-0.7 1.1-0.7 0.5 0 0.8 0.4 1.2 0.8 1.2 1.1 3 1.2 4.4 0.7 1.5-0.5 2.7-1.7 3.6-2.9 0.2-0.3 0.5-0.6 0.9-0.7 0.6-0.1 1.1 0.6 1.5 1.1 1.3 1.4 3.6 1.3 5.2 0.3s2.7-2.6 4-4c0.2-0.3 0.5-0.5 0.8-0.6 0.5 0 0.8 0.4 1.1 0.8 1.5 1.8 4.2 2.5 6.4 1.7s3.8-3 3.9-5.4c0.2 0.2 2.5 3.3 6.5 3.1 3.6-0.2 5.5-3 5.8-3.3 0.1 2.3 1.7 4.6 3.9 5.4s4.9 0.1 6.4-1.7c0.3-0.4 0.7-0.8 1.1-0.8 0.3 0 0.6 0.3 0.8 0.6 1.2 1.4 2.4 3 4 4s4 1.1 5.2-0.3c0.4-0.5 0.9-1.2 1.5-1.1 0.4 0.1 0.6 0.4 0.9 0.7 1 1.3 2.1 2.4 3.6 2.9s3.3 0.4 4.4-0.7c0.4-0.3 0.7-0.8 1.2-0.8s0.8 0.3 1.1 0.7c0.7 0.7 1.6 1.4 2.7 1.5 1 0.1 2.2-0.4 2.5-1.4 0.5-1.2-1.2-2.6-2.3-3.4z"/>
    </g>
    <g id="g238">
     <path id="path236" class="st16" d="m230.2 365.9c-11.5-6.2-23.7-11.1-36.3-14.5-1.5-0.4-3-0.4-4.5 0-12.7 3.4-25.4 8.5-36.9 14.7-1.9 1-3.8 2.1-5.1 3.9 2.8 0.9 6.1-0.1 8-2.3 2.5 2.3 7.3 1.1 8.3-2.1 0.3 2.2 3.2 3.4 5.3 2.6s3.4-3 3.8-5.2c0.4 0.4 2.6 2.6 5.8 2.3 3.1-0.2 5.9-2.7 6.7-6.2 1.3 2.1 3.6 3.4 6.1 3.3 3.9-0.1 5.8-3.4 5.8-3.6 0.8 3.5 3.6 5.9 6.7 6.2 3.2 0.3 5.5-2 5.8-2.3 0.4 2.2 1.7 4.4 3.8 5.2s4.9-0.4 5.3-2.6c1 3.2 5.8 4.5 8.3 2.1 1.9 2.2 5.2 3.2 8 2.3-1.1-1.7-3-2.8-4.9-3.8z"/>
    </g>
    <g id="g242">
     <path id="path240" class="st15" d="m219.5 404c-1.3-2.6-3.6-4.6-5.9-6.4-3.6-2.7-7.6-5.9-13.8-7.7-2-0.6-4.7-1.3-8.3-1.3-3.2 0.1-5.5 0.8-7.7 1.5-6.6 2.1-10.8 5.4-13.8 7.7-2.3 1.7-4.6 3.7-5.9 6.4s-1.4 6 0.5 8.3c0.4 0.5 0.9 0.9 1.5 0.9s1.1-0.5 1.4-1c0.9-1.5 0.9-3.5 0-5 0.6 1.3 2.6 1.2 3.5 0.1 0.6-0.8 0.8-1.8 0.7-2.9 0.5 0.9 1.8 1.5 2.9 1.2 1.5-0.5 2.3-2 2.7-3.5s0.4-3.1 1-4.5c0.3 1 1.5 1.6 2.6 1.4 1.1-0.1 2-0.8 2.7-1.5 1.3-1.2 2.2-2.8 2.8-4.5 0.1-0.2 0.1-0.4 0.3-0.5 0.4-0.3 1 0.1 1.2 0.3 1.8 1 6 0.8 7.8-0.2 0.2-0.1 0.9-0.5 1.2-0.3 0.1 0.1 0.2 0.3 0.3 0.5 0.6 1.7 1.5 3.2 2.8 4.5 0.8 0.8 1.7 1.4 2.7 1.5 1.1 0.1 2.3-0.4 2.6-1.4 0.5 1.4 0.6 3 1 4.5s1.2 3 2.7 3.5c1.1 0.4 2.4-0.2 2.9-1.2-0.1 1 0.1 2.1 0.7 2.9 0.9 1.1 2.9 1.2 3.5-0.1-0.9 1.5-0.9 3.5 0 5 0.3 0.5 0.8 1 1.4 1s1.1-0.4 1.5-0.9c1.9-2.3 1.8-5.7 0.5-8.3z"/>
    </g>
    <g id="g246">
     <path id="path244" class="st15" d="m237.8 377.6c-1.8 2.4-4.7 3.6-7.6 4s-5.9 0-8.8-0.5c-16.4-2.6-19.9-4.1-19.9-4.1-5.3-1.3-7.1-1.7-10.1-1.6-2.9 0.1-4.2 0.6-9.3 1.9-4 1-9.2 2.4-19.9 4.1-2.9 0.5-5.9 0.9-8.8 0.5s-5.8-1.7-7.6-4c-0.4 3.7 1.4 7.5 4.5 9.6s7.3 2.3 10.6 0.5c0.4-0.2 0.7-0.4 1.1-0.4 0.9 0 1.5 0.8 2.2 1.3 1.7 1.4 4.4 0.9 6.1-0.4s2.8-3.4 3.8-5.3c-0.6 2.1 2.2 3.8 4.3 3.1s3.3-2.8 4.3-4.7c0.8 1.9 3.8 2.5 5.3 1.1 0.7-0.7 0.6-1.6 1.6-2.3 1.1-0.8 2.8-0.8 4-0.2 1.3 0.7 1.1 1.7 2.1 2.3 0.8 0.5 2.4 0.6 5.3-1.1 1 1.9 2.2 4 4.3 4.7s4.9-1.1 4.3-3.1c1 2 2.1 4 3.8 5.3s4.4 1.8 6.1 0.4c0.7-0.5 1.3-1.4 2.2-1.3 0.4 0 0.8 0.2 1.1 0.4 3.3 1.7 7.5 1.5 10.6-0.5 3-2.2 4.8-6 4.4-9.7z"/>
    </g>
    <g id="g250">
     <path id="path248" class="st16" d="m219.5 406.5c-1.3-2.6-3.6-4.6-5.9-6.4-3.6-2.7-7.6-5.9-13.8-7.7-2-0.6-4.7-1.3-8.3-1.3-3.2 0.1-5.5 0.8-7.7 1.5-6.6 2.1-10.8 5.4-13.8 7.7-2.3 1.7-4.6 3.7-5.9 6.4s-1.4 6 0.5 8.3c0.4 0.5 0.9 0.9 1.5 0.9s1.1-0.5 1.4-1c0.9-1.5 0.9-3.5 0-5 0.6 1.3 2.6 1.2 3.5 0.1 0.6-0.8 0.8-1.8 0.7-2.9 0.5 0.9 1.8 1.5 2.9 1.2 1.5-0.5 2.3-2 2.7-3.5s0.4-3.1 1-4.5c0.3 1 1.5 1.6 2.6 1.4 1.1-0.1 2-0.8 2.7-1.5 1.3-1.2 2.2-2.8 2.8-4.5 0-0.1 0.1-0.4 0.3-0.5 0.4-0.1 0.8 1 1.4 1.7 1.5 1.6 5.5 1.6 7.3-0.2 0.6-0.6 1.1-1.4 1.5-1.3 0.3 0.1 0.3 0.6 0.4 1.2 0.4 1.4 1.4 2.3 2.6 3.3s1.9 1.4 2.7 1.5c1.1 0.1 2.3-0.4 2.6-1.4 0.5 1.4 0.6 3 1 4.5s1.2 3 2.7 3.5c1.1 0.4 2.4-0.2 2.9-1.2-0.1 1 0.1 2.1 0.7 2.9 0.9 1.1 2.9 1.2 3.5-0.1-0.9 1.5-0.9 3.5 0 5 0.3 0.5 0.8 1 1.4 1s1.1-0.4 1.5-0.9c2-2.2 1.9-5.6 0.6-8.2z"/>
    </g>
    <g id="g254">
     <path id="path252" class="st16" d="m237.8 379.6c-1.8 2.4-4.7 3.6-7.6 4s-5.9 0-8.8-0.5c-16.4-2.6-19.9-4.1-19.9-4.1-5.3-1.3-7.1-1.7-10.1-1.6-2.9 0.1-4.2 0.6-9.3 1.9-4 1-9.2 2.4-19.9 4.1-2.9 0.5-5.9 0.9-8.8 0.5s-5.8-1.7-7.6-4c-0.4 3.7 1.4 7.5 4.5 9.6s7.3 2.3 10.6 0.5c0.4-0.2 0.7-0.4 1.1-0.4 0.9 0 1.5 0.8 2.2 1.3 1.7 1.4 4.4 0.9 6.1-0.4s2.8-3.4 3.8-5.3c-0.6 2.1 2.2 3.8 4.3 3.1s3.3-2.8 4.3-4.7c0.8 1.9 3.8 2.5 5.3 1.1 0.7-0.7 0.6-1.6 1.6-2.3 1.1-0.8 2.8-0.8 4-0.2 1.3 0.7 1.1 1.7 2.1 2.3 0.8 0.5 2.4 0.6 5.3-1.1 1 1.9 2.2 4 4.3 4.7s4.9-1.1 4.3-3.1c1 2 2.1 4 3.8 5.3s4.4 1.8 6.1 0.4c0.7-0.5 1.3-1.4 2.2-1.3 0.4 0 0.8 0.2 1.1 0.4 3.3 1.7 7.5 1.5 10.6-0.5 3-2.2 4.8-6 4.4-9.7z"/>
    </g>
    <g id="g258">
     <path id="path256" class="st15" d="m225.2 282.9c-1.1-0.9-2.5-1-2.9-1-4.1-0.1-11.3-1.9-14.2-3-4.2-1.5-7.6-3.8-13.2-9.7-0.7-0.7-1.5-1.4-2.3-2.2-0.5-0.5-1.4-0.5-1.9 0-0.7 0.6-1.5 1.4-2.4 2.2-6.4 5.6-9.6 8.4-13.2 9.7-2.9 1.1-10.2 2.9-14.2 3-0.4 0-1.8 0.1-2.9 1-0.8 0.7-1.1 2.1-0.7 2.8 0.6 1 3.1 0.9 6-0.4 0.2 0.2 2.7 2.7 6.2 2.1 3.2-0.5 4.8-3.2 5-3.5 0.2 0.2 3.7 3.6 8.2 2.6 2.9-0.7 4.6-2.7 5-3.4 0.1 0.2 1.4 2 3.7 2.1 2.5 0.1 3.8-2 3.9-2.1 0.5 0.6 2.1 2.7 5 3.4 4.5 1 8-2.3 8.2-2.6 0.2 0.3 1.8 3 5 3.5 3.6 0.6 6-1.9 6.2-2.1 3 1.4 5.4 1.4 6 0.4 0.7-0.7 0.4-2.1-0.5-2.8z"/>
    </g>
    <g id="g262">
     <path id="path260" class="st16" d="m225.2 285.4c-1.1-0.9-2.5-1-2.9-1-4.1-0.1-11.3-1.9-14.2-3-4.2-1.5-7.6-3.8-13.2-9.7-0.7-0.7-1.5-1.4-2.3-2.2-0.5-0.5-1.4-0.5-1.9 0-0.7 0.6-1.5 1.4-2.4 2.2-6.4 5.6-9.6 8.4-13.2 9.7-2.9 1.1-10.2 2.9-14.2 3-0.4 0-1.8 0.1-2.9 1-0.8 0.7-1.1 2.1-0.7 2.8 0.6 1 3.1 0.9 6-0.4 0.2 0.2 2.7 2.7 6.2 2.1 3.2-0.5 4.8-3.2 5-3.5 1.7 2.4 4.5 3.5 7 2.8 2.7-0.7 3.9-3.1 4.1-3.5 0.2 0.3 2.4 3.1 6.1 3.1 3.8 0 5.9-2.8 6.1-3.1 0.1 0.2 1.3 3.1 4.4 3.7 2.4 0.5 5-0.7 6.4-3 0.2 0.3 1.8 3 5 3.5 3.6 0.6 6-1.9 6.2-2.1 3 1.4 5.4 1.4 6 0.4 0.6-0.7 0.3-2.1-0.6-2.8z"/>
    </g>
   </g>
  </g>
  <g id="g2542" transform="translate(-376.27 -9.221)">
   <g id="g384" transform="matrix(1.9418 0 0 1.9418 158.35 -180.37)">
    <path id="path380" class="st5" d="m338 421.5c-3.8 0.5-8.3 0.7-13.4 0.5-5.8-0.3-10.8-1.2-14.9-2.2 0.7-11.2 10.3-19.8 21.5-19.1l1.1 0.1c7.5 0.4 13.2 6.9 12.8 14.4-0.2 3.7-3.4 6.5-7.1 6.3z"/>
    <line id="line382" class="st32" x1="335.9" x2="335.9" y1="406.3" y2="406.3"/>
   </g>
   <g id="g390" transform="matrix(1.9418 0 0 1.9418 158.35 -180.37)">
    <path id="path386" class="st4" d="m320.6 430.9c-7.8 1.6-18.6 2.9-31.4 2-11-0.8-20.2-3.1-27.2-5.4 0.2-3.7 0.4-7.4 0.7-11.1 0.9-14.5 13.3-25.6 27.8-24.7l2.6 0.2c16.4 1 28.9 15.1 28 31.5z"/>
    <path id="path388" class="st32" d="m298.6 400.5c1.5 0.3 5.1 1.4 8.4 4.7 3.3 3.4 4.3 7.1 4.6 8.6"/>
   </g>
  </g>
  <g id="g2527" transform="translate(-294.72 -3.2014)">
   <g id="g278" class="swingingTree" transform="matrix(1.9418 0 0 1.9418 158.35 -180.37)">
    <g id="g268">
     <path id="path266" class="st18" d="m376.4 280.7c-2.6-0.4-11-1.6-19.2 1-18.1 5.9-28.3 28.5-28.5 47.1-0.1 5.9-0.3 20.2 10.7 31.7 7.9 8.3 19.6 12.9 31.1 12.2 19.9-1.2 31.4-16.3 33.2-18.7 14.7-20.5 10.1-52.3-6.5-65.1-8.3-6.3-19.5-8.1-20.8-8.2z"/>
    </g>
    <line id="line270" class="st19" x1="369.2" x2="369.2" y1="315.9" y2="403.9"/>
    <path id="path272" class="st19" d="m350.7 318.5c0.7 1.1 6 9.5 16.3 10.6 8.7 1 17.3-3.6 21.9-11.7"/>
    <path id="path274" class="st19" d="m345.3 340.1c0.9 1.4 7.8 12.2 20.9 13.6 11.1 1.2 22.3-4.7 28.2-15"/>
    <path id="path276" class="st20" d="m384.5 292c2.3 0.8 5.5 2.2 8.8 4.8 4.9 3.9 7.3 8.5 8.4 11.1"/>
   </g>
   <g id="g408" class="grass" transform="matrix(1.9418 0 0 1.9418 158.35 -180.37)">
    <path id="path406" class="st33" d="m352.1 404.9c-2.3-1.9-2.8-4.8-2.9-5.6-0.1-0.7-0.2-2 0.3-2.4 1-0.9 2.6 0.3 3.2 1.6s1.1 2.9 2.5 3.1c-0.5-2.2-0.6-4.5-0.2-6.7 0.2-0.9 0.4-1.8 1-2.5s1.7-0.9 2.4-0.4c0.6 0.5 0.8 1.3 0.9 2l0.9 6.3c1.2-1.5 2.8-2.7 4.5-3.4 0.5-0.2 1.3-0.4 1.6 0.1 0.3 0.4 0 1-0.2 1.3-1.8 3.8-2.6 5.8-3.2 6.2-2.7 2.5-7.7 2.9-10.8 0.4z"/>
   </g>
   <g id="g412" class="grass" transform="matrix(1.9418 0 0 1.9418 158.35 -180.37)">
    <path id="path410" class="st33" d="m366.4 409c-1-1-1.7-3.7-3.1-9.1 0-0.2-0.1-0.6 0.1-0.9 0.4-0.6 1.3-0.4 2-0.1 2 1.1 3.8 2.6 5.2 4.4 0.7-1.1 0.3-2.5 0.2-3.8s0.6-3 1.9-2.9c1.1 0.1 1.7 1.3 1.9 2.4s0.2 2.3 1 3.1c1.5-1.8 3.4-3.4 5.6-4.5 1.2-0.6 3.2-0.9 3.6 0.5 0.2 0.6 0 1.2-0.2 1.5-3.3 7-2.4 8.5-5 10.3-3.7 2.6-9.8 2.4-13.2-0.9z"/>
   </g>
   <g id="g593" class="swingingTree" transform="matrix(1.9418 0 0 1.9418 158.35 -180.37)">
    <g id="g583">
     <path id="path581" class="st18" d="m162.2 344.1c-11.4-1.1-19.6 5.4-21.7 7.1-11.7 9.6-11.8 24.1-11.8 26.7 0 4.3-0.2 14.2 7.5 22.3 5.6 5.9 13.8 9.1 21.9 8.6 13-0.8 20.7-9.9 22.5-12.1 7-8.6 7.5-17.9 7.6-20.6 0.1-2.4 0.1-17.1-11.4-26.1-2-1.6-7.1-5.2-14.6-5.9z"/>
    </g>
    <line id="line585" class="st19" x1="157.2" x2="157.2" y1="368.9" y2="434.9"/>
    <path id="path587" class="st19" d="m144.2 370.7c0.5 0.8 4.2 6.6 11.4 7.4 6.1 0.7 12.2-2.5 15.4-8.2"/>
    <path id="path589" class="st19" d="m140.3 385.8c0.6 1 5.5 8.5 14.7 9.6 7.8 0.9 15.6-3.3 19.8-10.5"/>
    <path id="path591" class="st20" d="m163.3 351c1.5 0.2 4.5 0.8 7.4 3 2.3 1.7 3.6 3.6 4.3 4.8"/>
   </g>
   <g id="g607" class="swingingTree" transform="matrix(1.9418 0 0 1.9418 158.35 -180.37)">
    <g id="g597">
     <path id="path595" class="st18" d="m485.2 327.1c-2.1-0.4-7.4-1.4-13.5 0.7-13.7 4.7-19.9 20.9-20 33.1 0 4.1-0.2 14.2 7.5 22.3 5.6 5.9 13.8 9.1 21.9 8.6 13.3-0.8 21.2-10.3 23.3-13.2 9.6-13.1 5.3-28 4.9-29.3-3.7-11.5-13.5-20-24.1-22.2z"/>
    </g>
    <line id="line599" class="st19" x1="480.2" x2="480.2" y1="351.9" y2="417.9"/>
    <path id="path601" class="st19" d="m467.2 353.7c0.5 0.8 4.2 6.6 11.4 7.4 6.1 0.7 12.2-2.5 15.4-8.2"/>
    <path id="path603" class="st19" d="m463.3 368.8c0.6 1 5.5 8.5 14.7 9.6 7.8 0.9 15.6-3.3 19.8-10.5"/>
    <path id="path605" class="st20" d="m488.7 335.7c1.3 0.2 4.4 0.9 7.3 3.4 2.6 2.2 3.7 4.8 4.1 6.1"/>
   </g>
  </g>
  <g id="g3029" transform="translate(-294.72 -3.2014)" stroke-width="1.9418">
   <path id="path811" class="st51 starSmall" d="m629.04 112.85-2.7185-2.7185c-0.19418-0.19417-0.19418-0.38837 0-0.38837l2.7185-2.7185c0.19419-0.19417 0.38837-0.19417 0.38837 0l2.7185 2.7185c0.19418 0.1942 0.19418 0.38837 0 0.38837l-2.7185 2.7185c0 0.19419-0.19418 0.19419-0.38837 0z"/>
   <path id="path813" class="st51 starSmall" d="m949.59 126.29-2.7185-2.7185c-0.19418-0.19418-0.19418-0.38836 0-0.38836l2.7185-2.7185c0.19419-0.19419 0.38836-0.19419 0.38836 0l2.7185 2.7185c0.1942 0.19418 0.1942 0.38836 0 0.38836l-2.7185 2.7185c-0.19417 0.19418-0.38836 0.19418-0.38836 0z"/>
   <path id="path815" class="st51 starSmall" d="m538.17 38.202-2.7185-2.7185c-0.19418-0.19419-0.19418-0.38836 0-0.38836l2.7185-2.7185c0.19418-0.19419 0.38836-0.19419 0.38836 0l2.7185 2.7185c0.19418 0.19417 0.19418 0.38836 0 0.38836l-2.7185 2.7185h-0.38836z"/>
   <path id="path817" class="st51 starSmall" d="m789.04 42.993-2.7185-2.7185c-0.19417-0.19419-0.19417-0.38836 0-0.38836l2.7185-2.7185c0.1942-0.19417 0.38837-0.19417 0.38837 0l2.7185 2.7185c0.19419 0.19417 0.19419 0.38836 0 0.38836l-2.7185 2.7185h-0.38837z"/>
   <path id="path821" class="st51 starSmall" d="m913.92 69.774-2.7185-2.7185c-0.19419-0.19419-0.19419-0.38836 0-0.38836l2.7185-2.7185c0.19418-0.19419 0.38836-0.19419 0.38836 0l2.7185 2.7185c0.19416 0.19418 0.19416 0.38836 0 0.38836l-2.7185 2.7185h-0.38836z"/>
   <path id="path823" class="st51 starSmall" d="m855.24 157.17-2.7185-2.7185c-0.19418-0.19418-0.19418-0.38836 0-0.38836l2.7185-2.7185c0.19417-0.19417 0.38836-0.19417 0.38836 0l2.7185 2.7185c0.19417 0.19418 0.19417 0.38836 0 0.38836l-2.7185 2.7185c-0.19419 0.19418-0.38836 0.19418-0.38836 0z"/>
   <path id="path825" class="st51 starSmall" d="m1015 33.528-2.7186-2.7185c-0.1941-0.19419-0.1941-0.38836 0-0.38836l2.7186-2.7185c0.1941-0.19418 0.3882-0.19418 0.3882 0l2.7186 2.7185c0.1942 0.19417 0.1942 0.38836 0 0.38836l-2.7186 2.7185c0 0.19418-0.1941 0.19418-0.3882 0z"/>
   <path id="path827" class="st51 starSmall" d="m444.8 73.522-2.7185-2.7185c-0.19419-0.19418-0.19419-0.38836 0-0.38836l2.7185-2.7185c0.19418-0.19417 0.38836-0.19417 0.38836 0l2.7185 2.7185c0.19418 0.19418 0.19418 0.38836 0 0.38836l-2.7185 2.7185c-0.19418 0.19418-0.38836 0.19418-0.38836 0z"/>
   <path id="path819" class="st51 starSmall" d="m546.55 119.96-2.7185-2.7185c-0.19415-0.19417-0.19415-0.38836 0-0.38836l2.7185-2.7185c0.19419-0.19417 0.38836-0.19417 0.38836 0l2.7185 2.7185c0.19419 0.19419 0.19419 0.38836 0 0.38836l-2.7185 2.7185c-0.19417 0.19418-0.38836 0.19418-0.38836 0z"/>
  </g>
  <g id="g3018" transform="translate(-294.72 -3.2014)">
   <path id="path809" class="st51 starPointy" d="m1058.4 216.5-10.486-4.272c-0.3884-0.19418-0.7767-0.58254-0.9709-1.1651l-2.3302-12.622c-0.1941-1.5534-2.5243-1.5534-2.9127 0l-2.7185 12.622c-0.1942 0.58255-0.5826 0.97091-0.9709 1.1651l-10.486 3.3011c-1.3592 0.38836-1.3592 2.3302 0 2.7185l10.097 3.8836c0.3884 0.19418 0.7767 0.58254 0.9709 1.1651l2.3302 13.398c0.1942 1.5534 2.5243 1.5534 2.9127 0l3.1069-14.564v0.58254l11.068-3.6894c1.5534 0 1.5534-1.9418 0.3884-2.5244z" stroke-width="1.9418"/>
   <g id="g833" class="starCross" transform="matrix(1.9418 0 0 1.9418 158.35 -180.37)">
    <line id="line829" class="st77" x1="356" x2="351" y1="136.4" y2="142.2"/>
    <line id="line831" class="st77" x1="356.4" x2="350.6" y1="141.8" y2="136.8"/>
   </g>
   <g id="g839" class="starCross" transform="matrix(1.9418 0 0 1.9418 161.82 -134.48)">
    <line id="line835" class="st77" x1="262" x2="257" y1="89.4" y2="95.2"/>
    <line id="line837" class="st77" x1="262.4" x2="256.6" y1="94.8" y2="89.8"/>
   </g>
   <g id="g845" class="starCross" transform="matrix(1.9418 0 0 1.9418 -236.08 64.9)">
    <line id="line841" class="st77" x1="336" x2="331" y1="30.4" y2="36.2"/>
    <line id="line843" class="st77" x1="336.4" x2="330.6" y1="35.8" y2="30.8"/>
   </g>
   <path id="path847" class="st51 starPointy" d="m636.63 175.34-10.486-4.272c-0.38836-0.19417-0.77672-0.58253-0.97089-1.1651l-2.3302-12.622c-0.1942-1.5534-2.5244-1.5534-2.9127 0l-2.7185 12.622c-0.19416 0.58255-0.58252 0.97091-0.9709 1.1651l-10.486 3.3011c-1.3593 0.38836-1.3593 2.3302 0 2.7185l10.097 3.8836c0.38836 0.19418 0.77674 0.58254 0.97091 1.1651l2.3302 13.398c0.19419 1.5534 2.5244 1.5534 2.9127 0l3.1069-14.564v0.58254l11.068-3.6894c1.7476-0.19418 1.7476-1.9418 0.38836-2.5244z" stroke-width="1.9418"/>
  </g>
 </g>
</svg>
